<svg width="304" height="306" viewBox="0 0 304 306" fill="none" xmlns="http://www.w3.org/2000/svg">
    <path
        d="M259.251 254.31C251.755 262.037 245.047 266.579 239.912 270.008C189.826 303.451 132.573 293.812 114.872 290.517C86.3129 285.202 62.2052 281.452 41.4925 262.739C-5.5731 220.217 -3.28395 131.513 32.6799 76.5648C36.9441 70.0495 72.8536 16.8206 130.231 9.32019C131.634 9.13676 132.681 9.0323 133.598 8.93513C142.474 7.9954 197.478 3.03535 242.328 40.6106C248.748 45.9893 259.08 55.6911 268.66 70.488C303.692 124.592 303.803 208.387 259.251 254.31Z"
        fill="url(#paint0_linear_10386_12795)" />
    <path
        d="M303.655 236.617C299.09 259.984 277.059 276.799 260.591 280.249L254.592 274.328C269.205 265.451 279.047 258.148 281.716 241.23C281.861 240.312 282.549 239.574 283.456 239.374L302.229 235.232C303.063 235.048 303.819 235.779 303.655 236.617Z"
        fill="#C00016" />
    <path
        d="M268.498 289.069L244.39 281.325C243.896 281.166 243.738 280.544 244.098 280.169L256.426 267.317C256.909 266.814 257.739 266.917 258.084 267.522L269.602 287.709C270.026 288.454 269.314 289.331 268.498 289.069Z"
        fill="#C00016" />
    <path
        d="M8.41786 52.1217C17.7421 30.2147 42.7886 18.3498 59.6139 18.4L64.2504 25.4384C48.1107 31.0824 36.9657 36.1793 30.8364 52.1726C30.5041 53.0398 29.6772 53.6184 28.7486 53.6256L9.52471 53.7727C8.67061 53.7793 8.08331 52.9076 8.41786 52.1217Z"
        fill="#C00016" />
    <path
        d="M53.7143 8.12764L77.9088 14.0552C79.569 14.4619 80.0429 16.5953 78.711 17.6667L60.9985 31.915C60.4221 32.3066 59.6312 32.0333 59.4193 31.3695L52.3521 9.22867C52.0914 8.4121 52.9706 7.70153 53.7143 8.12764Z"
        fill="#C00016" />
    <path
        d="M122.54 104.087C120.592 104.832 118.603 105.462 116.582 105.977C113.914 106.629 112.407 106.932 109.831 105.929C109.74 105.894 109.654 105.859 109.573 105.825C104.69 103.742 100.517 100.281 97.5598 95.863C94.603 91.4445 92.9905 86.259 92.9187 80.9379C92.9058 80.7554 92.9058 80.5635 92.9058 80.3763C92.9033 79.4744 92.9463 78.573 93.0346 77.6756C93.1475 76.4531 93.3424 75.2396 93.6182 74.0434L93.5924 74.0387C91.5069 71.8997 90.7045 68.9696 90.9705 66.0255C91.1528 64.0296 91.7843 62.1011 92.8175 60.3855C93.8507 58.6699 95.2587 57.2119 96.9352 56.1214C99.5627 54.4644 102.525 53.4155 105.608 53.0509C106.435 52.9552 107.268 52.9067 108.101 52.9058H115.928C117.544 52.5262 119.187 52.2665 120.841 52.1288H120.854C136.607 50.8183 149.03 61.2934 147.871 74.0387C147.863 74.0528 147.85 74.0668 147.841 74.0809C147.506 74.6285 147.21 75.148 146.949 75.6442C146.695 76.1075 146.481 76.5522 146.296 76.9735C144.859 80.2312 151.69 130.774 149.24 131.542C147.845 131.977 142.224 94.3666 143.232 101.519C144.503 110.491 129.797 101.396 122.54 104.087Z"
        fill="#2F2E41" />
    <path d="M146.271 195.455L168.107 242.117L84.1071 233.584L101.642 188.789L146.271 195.455Z" fill="#FFB6B6" />
    <path
        d="M190.106 289.011C175.499 293.888 160.106 295.956 144.734 295.107L138.049 284.233C138.049 284.233 137.769 288.283 137.352 294.474C130.035 293.623 122.293 291.943 114.5 290.5C101 288 90 286 76 282C73.4334 266.654 73.7435 234.235 87.933 220.459L164.308 234.497C164.308 234.497 176.562 243.69 173.284 246.983C170.005 250.272 169.498 249.762 171.652 251.923C173.805 254.083 178.459 256.972 178.507 258.861C178.526 259.598 183.749 272.975 190.106 289.011Z"
        fill="#2F2E41" />
    <path
        d="M132.934 105.286L114.482 106.577L102.556 118.137L98.3795 118.885C94.6251 119.556 91.2468 121.586 88.8853 124.59C86.5239 127.594 85.3433 131.362 85.5676 135.181C86.4268 149.781 88.3504 171.597 92.371 178.675C98.6053 189.649 103.755 186.206 98.6052 189.649C93.4559 193.093 89.9987 190.387 92.371 195.829C94.7432 201.271 89.1647 208.251 89.1647 208.251L86.944 210.478L89.2994 211.447L164.349 221.242C164.349 221.242 157.86 191.976 161.918 184.787C165.976 177.597 175.816 155.866 167.034 147.363L158.447 117.053L143.677 112.684L132.934 105.286Z"
        fill="#AD0014" />
    <path
        d="M244.633 225.403C243.398 225.363 242.186 225.055 241.082 224.5C239.977 223.945 239.006 223.156 238.236 222.187C237.465 221.219 236.913 220.094 236.619 218.89C236.324 217.687 236.294 216.433 236.53 215.217L201.326 191.302L205.526 179.909L247.132 208.619C249.144 209.17 250.884 210.441 252.024 212.193C253.163 213.945 253.622 216.055 253.314 218.124C253.006 220.193 251.952 222.076 250.352 223.418C248.752 224.759 246.717 225.466 244.633 225.403Z"
        fill="#FFB6B6" />
    <path
        d="M145.197 115.622L140.082 117.654L167.37 171.113L223.862 209.737L232.005 195.932L189.003 158.675L171.787 125.557C169.364 120.896 165.305 117.301 160.395 115.466C155.484 113.631 150.07 113.687 145.197 115.622Z"
        fill="#AD0014" />
    <path
        d="M122.748 100.584C132.981 100.584 141.276 92.2636 141.276 81.9994C141.276 71.7352 132.981 63.4145 122.748 63.4145C112.515 63.4145 104.219 71.7352 104.219 81.9994C104.219 92.2636 112.515 100.584 122.748 100.584Z"
        fill="#FFB6B6" />
    <path
        d="M138.86 74.1404C138.551 74.3039 138.246 74.4546 137.937 74.6052C137.615 74.7602 137.293 74.9152 136.967 75.0615C130.767 77.8808 125.716 78.195 122.652 74.1404C122.568 72.0073 122.09 69.9084 121.24 67.9509C121.39 70.1384 120.816 72.3144 119.605 74.1404H113.435C107.08 78.3715 103.818 82.2582 108.23 96.148C108.517 97.0605 110.487 129.48 111.049 131.972C101.428 128.271 93.129 88.9685 92.9187 78.6125C92.9058 78.4447 92.9058 78.2682 92.9058 78.096C92.9033 77.2664 92.9463 76.4373 93.0346 75.6124C93.1478 74.4863 93.3429 73.37 93.6182 72.2723L93.5924 72.268C92.6136 71.3293 91.8668 70.1743 91.4116 68.895C90.9564 67.6157 90.8054 66.2474 90.9706 64.8992C92.5845 62.7795 94.5817 60.9835 96.858 59.6049C98.9278 58.5996 101.085 57.787 103.303 57.1773C103.359 57.1644 103.406 57.1515 103.462 57.1386C104.14 56.9535 104.835 56.7857 105.53 56.6393C106.963 56.338 108.411 56.1181 109.869 55.9808C109.976 55.9765 110.079 55.9678 110.173 55.9678C110.756 55.9682 111.328 56.1258 111.83 56.4241C111.834 56.4241 111.834 56.4284 111.843 56.4284C112.324 56.7171 112.724 57.1254 113.003 57.6139C113.282 58.1024 113.43 58.6547 113.435 59.2175H120.309C120.562 59.2175 120.815 59.2262 121.069 59.2391C130.642 59.6221 138.336 63.7284 138.83 73.1676C138.851 73.4948 138.86 73.8133 138.86 74.1404Z"
        fill="#2F2E41" />
    <path
        d="M98.216 74.8876C104.957 74.8876 110.423 69.4058 110.423 62.6437C110.423 55.8816 104.957 50.3998 98.216 50.3998C91.4745 50.3998 86.0094 55.8816 86.0094 62.6437C86.0094 69.4058 91.4745 74.8876 98.216 74.8876Z"
        fill="#2F2E41" />
    <path
        d="M114.975 56.9806C113.588 63.5981 106.746 67.5559 100.201 65.9369C97.0577 65.1595 94.3511 63.1614 92.6766 60.3822C91.0021 57.6031 90.4968 54.2706 91.2719 51.1177C92.8859 44.5523 100.83 46.445 106.046 42.1614C113.425 36.1016 116.845 48.0564 114.975 56.9806Z"
        fill="#2F2E41" />
    <path
        d="M87.8543 241.185C98.2578 198.631 118.871 162.055 153.01 133.397C154.331 131.217 156.46 129.652 158.931 129.045C161.401 128.437 164.011 128.838 166.188 130.158L247.344 179.515C249.517 180.84 251.078 182.976 251.683 185.454C252.289 187.932 251.889 190.55 250.573 192.733C237.543 236.399 218.027 274.289 185.418 300.521C184.097 302.701 181.967 304.267 179.497 304.874C177.026 305.481 174.417 305.081 172.24 303.761L91.084 254.403C88.9105 253.078 87.3499 250.942 86.7444 248.464C86.1389 245.986 86.5381 243.369 87.8543 241.185Z"
        fill="#F2F2F2" />
    <path opacity="0.2"
        d="M102.279 255.527C100.106 254.202 98.5449 252.066 97.9394 249.588C97.334 247.11 97.7332 244.492 99.0494 242.309C109.453 199.754 130.066 163.178 164.205 134.521C165.079 133.094 166.314 131.924 167.784 131.129L166.187 130.158C164.011 128.838 161.401 128.437 158.931 129.045C156.46 129.652 154.331 131.217 153.01 133.397C118.871 162.054 98.2578 198.631 87.8544 241.186C86.5381 243.369 86.1389 245.986 86.7444 248.464C87.3498 250.942 88.9105 253.078 91.084 254.403L172.24 303.76C173.684 304.632 175.333 305.106 177.019 305.132C178.704 305.159 180.367 304.738 181.838 303.913L102.279 255.527Z"
        fill="black" />
    <path
        d="M197.454 231.752L142.979 198.828C142.113 198.303 141.491 197.456 141.248 196.471C141.005 195.486 141.162 194.445 141.684 193.577C142.206 192.708 143.05 192.082 144.031 191.837C145.013 191.593 146.051 191.749 146.918 192.271L201.393 225.195C202.257 225.72 202.877 226.568 203.119 227.552C203.36 228.535 203.203 229.575 202.682 230.442C202.161 231.31 201.318 231.935 200.338 232.181C199.358 232.426 198.321 232.272 197.454 231.752Z"
        fill="white" />
    <path
        d="M165.764 188.092L153.779 180.848C152.911 180.327 152.284 179.481 152.038 178.497C151.791 177.512 151.944 176.47 152.464 175.598C152.983 174.727 153.827 174.099 154.808 173.851C155.79 173.604 156.829 173.758 157.698 174.279L157.718 174.291L169.703 181.534C170.566 182.06 171.187 182.907 171.429 183.891C171.671 184.875 171.514 185.915 170.992 186.783C170.471 187.65 169.628 188.275 168.648 188.521C167.668 188.766 166.631 188.612 165.764 188.092Z"
        fill="white" />
    <path
        d="M188.796 246.165L134.321 213.241C133.454 212.718 132.83 211.871 132.586 210.886C132.342 209.902 132.497 208.86 133.018 207.991C133.539 207.121 134.383 206.494 135.364 206.249C136.346 206.003 137.384 206.158 138.252 206.679L138.259 206.684L192.735 239.608C193.598 240.133 194.219 240.981 194.46 241.965C194.702 242.948 194.545 243.988 194.024 244.855C193.502 245.723 192.66 246.348 191.68 246.594C190.7 246.839 189.663 246.685 188.796 246.165Z"
        fill="white" />
    <path
        d="M204.372 169.673C213.159 169.673 220.283 162.527 220.283 153.713C220.283 144.899 213.159 137.753 204.372 137.753C195.584 137.753 188.461 144.899 188.461 153.713C188.461 162.527 195.584 169.673 204.372 169.673Z"
        fill="#3F3D56" />
    <path
        d="M92.9147 241.636C91.7021 241.138 90.6119 240.381 89.7195 239.419C88.8271 238.456 88.1538 237.311 87.7462 236.061C87.3385 234.812 87.2063 233.489 87.3586 232.183C87.5109 230.878 87.9442 229.621 88.6283 228.5L62.486 191.64L70.8726 181.88L101.603 225.887C103.399 227.183 104.658 229.094 105.143 231.259C105.628 233.424 105.304 235.691 104.233 237.633C103.162 239.574 101.418 241.054 99.3323 241.792C97.2463 242.53 94.9628 242.474 92.9147 241.636Z"
        fill="#FFB6B6" />
    <path
        d="M93.5147 124.827C92.1921 124.047 90.6355 123.765 89.1242 124.032C87.6129 124.298 86.246 125.097 85.2687 126.284L49.9469 175.834L82.681 222.468L95.49 208.668L75.5649 177.261L102.045 151.972C104.222 147.19 104.554 141.769 102.978 136.756C101.403 131.743 98.0313 127.493 93.5147 124.827Z"
        fill="#AD0014" />
    <defs>
        <linearGradient id="paint0_linear_10386_12795" x1="320.222" y1="341.035" x2="117.155" y2="124.868"
            gradientUnits="userSpaceOnUse">
            <stop stop-color="#F8E0E3" />
            <stop offset="1" stop-color="#FFF0F2" />
        </linearGradient>
    </defs>
</svg>
