<svg width="206" height="294" viewBox="0 0 206 294" fill="none" xmlns="http://www.w3.org/2000/svg">
<g clip-path="url(#clip0_4347_3110)">
<path d="M74.1381 72.8833C72.1901 73.6277 70.201 74.2586 68.1806 74.7731C65.5119 75.4255 64.0051 75.7279 61.4292 74.7251C61.3387 74.6899 61.2524 74.6551 61.1709 74.6209C56.2885 72.5386 52.1149 69.0776 49.1581 64.6591C46.2013 60.2406 44.5888 55.0552 44.517 49.7341C44.5041 49.5515 44.5041 49.3596 44.5041 49.1724C44.5016 48.2706 44.5446 47.3692 44.6329 46.4717C44.7457 45.2492 44.9407 44.0357 45.2164 42.8396L45.1907 42.8349C43.1052 40.6958 42.3028 37.7658 42.5688 34.8217C42.7511 32.8257 43.3826 30.8973 44.4158 29.1817C45.449 27.4661 46.8569 26.0081 48.5335 24.9175C51.161 23.2605 54.1236 22.2116 57.2059 21.8471C58.0335 21.7513 58.8659 21.7029 59.6991 21.7019H67.5261C69.1427 21.3223 70.7849 21.0626 72.4395 20.925H72.4523C88.2051 19.6144 100.628 30.0896 99.4694 42.8349C99.4608 42.8489 99.448 42.8629 99.4394 42.877C99.1047 43.4246 98.8086 43.9442 98.5468 44.4403C98.2936 44.9037 98.0791 45.3483 97.8946 45.7696C96.457 49.0273 103.289 99.5705 100.838 100.338C99.4436 100.773 93.8222 63.1628 94.8306 70.3147C96.1009 79.2874 81.3953 70.1925 74.1381 72.8833Z" fill="#2F2E41"/>
<path d="M97.8685 164.251L119.705 210.913L35.7051 202.38L53.2396 157.585L97.8685 164.251Z" fill="#FFB6B6"/>
<path d="M141.704 257.807C127.097 262.684 111.703 264.752 96.3317 263.903L89.6474 253.03C89.6474 253.03 89.3674 257.079 88.95 263.27C81.6326 262.419 74.4107 260.884 67.3787 258.683C54.0431 254.5 41.5425 248.019 28.8711 242.042C26.3045 226.696 25.3415 203.031 39.531 189.255L115.906 203.293C115.906 203.293 128.16 212.487 124.882 215.78C121.603 219.068 121.096 218.559 123.25 220.719C125.403 222.879 130.057 225.768 130.105 227.657C130.124 228.395 135.347 241.771 141.704 257.807Z" fill="#2F2E41"/>
<path d="M84.5324 74.0823L66.0805 75.3736L54.1544 86.9331L49.9775 87.6809C46.2231 88.3524 42.8449 90.3824 40.4834 93.3861C38.1219 96.3897 36.9413 100.158 37.1656 103.977C38.0248 118.577 39.9484 140.393 43.969 147.471C50.2033 158.446 55.3526 155.002 50.2033 158.446C45.0539 161.889 41.5968 159.183 43.969 164.625C46.3412 170.067 40.7628 177.047 40.7628 177.047L38.5421 179.275L40.8974 180.243L115.947 190.038C115.947 190.038 109.458 160.772 113.516 153.583C117.574 146.394 127.414 124.662 118.632 116.159L110.045 85.8495L95.2754 81.48L84.5324 74.0823Z" fill="#C00016"/>
<path d="M196.231 194.199C194.996 194.16 193.784 193.852 192.68 193.297C191.575 192.741 190.604 191.952 189.834 190.983C189.063 190.015 188.511 188.89 188.217 187.686C187.922 186.483 187.892 185.229 188.128 184.013L152.924 160.099L157.124 148.705L198.73 177.415C200.742 177.966 202.482 179.238 203.622 180.989C204.761 182.741 205.22 184.852 204.912 186.92C204.604 188.989 203.55 190.873 201.95 192.214C200.35 193.556 198.315 194.262 196.231 194.199Z" fill="#FFB6B6"/>
<path d="M96.7952 84.4181L91.6797 86.4498L118.968 139.909L175.46 178.534L183.604 164.729L140.601 127.472L123.385 94.3528C120.962 89.692 116.903 86.097 111.993 84.2622C107.082 82.4274 101.668 82.4829 96.7952 84.4181Z" fill="#C00016"/>
<path d="M74.3457 69.3805C84.5786 69.3805 92.8741 61.0598 92.8741 50.7956C92.8741 40.5314 84.5786 32.2107 74.3457 32.2107C64.1128 32.2107 55.8174 40.5314 55.8174 50.7956C55.8174 61.0598 64.1128 69.3805 74.3457 69.3805Z" fill="#FFB6B6"/>
<path d="M90.458 42.9365C90.1491 43.1 89.8444 43.2507 89.5354 43.4013C89.2136 43.5563 88.8917 43.7112 88.5656 43.8576C82.3649 46.6768 77.3142 46.9911 74.2503 42.9365C74.1665 40.8033 73.6878 38.7045 72.8386 36.747C72.9886 38.9345 72.4139 41.1105 71.2036 42.9365H65.033C58.6778 47.1675 55.4165 51.0543 59.8278 64.9441C60.1153 65.8566 62.0849 98.2762 62.6471 100.768C53.0263 97.0667 44.7273 57.7646 44.517 47.4086C44.5041 47.2407 44.5041 47.0642 44.5041 46.8921C44.5016 46.0625 44.5446 45.2334 44.6329 44.4085C44.7461 43.2824 44.9411 42.1661 45.2165 41.0684L45.1907 41.0641C44.2118 40.1254 43.4651 38.9704 43.0099 37.6911C42.5547 36.4117 42.4037 35.0435 42.5688 33.6952C44.1827 31.5756 46.18 29.7796 48.4563 28.401C50.5261 27.3957 52.6836 26.583 54.9016 25.9734C54.9573 25.9605 55.0046 25.9476 55.0603 25.9347C55.7383 25.7496 56.4335 25.5817 57.1287 25.4354C58.5613 25.134 60.0097 24.9142 61.467 24.7768C61.5743 24.7725 61.6773 24.7639 61.7717 24.7639C62.3546 24.7643 62.9267 24.9219 63.4281 25.2202C63.4324 25.2202 63.4324 25.2245 63.4409 25.2245C63.9227 25.5132 64.3222 25.9215 64.601 26.41C64.8799 26.8985 65.0286 27.4507 65.0329 28.0136H71.9074C72.1605 28.0136 72.4137 28.0222 72.6669 28.0351C82.2404 28.4182 89.9345 32.5245 90.428 41.9637C90.4494 42.2908 90.458 42.6094 90.458 42.9365Z" fill="#2F2E41"/>
<path d="M49.814 43.6838C56.5555 43.6838 62.0206 38.202 62.0206 31.4399C62.0206 24.6778 56.5555 19.196 49.814 19.196C43.0725 19.196 37.6074 24.6778 37.6074 31.4399C37.6074 38.202 43.0725 43.6838 49.814 43.6838Z" fill="#2F2E41"/>
<path d="M66.5728 25.7768C65.1861 32.3942 58.3442 36.3521 51.7987 34.7331C48.6555 33.9556 45.9489 31.9575 44.2744 29.1784C42.5999 26.3992 42.0946 23.0667 42.8697 19.9139C44.4838 13.3484 52.4275 15.2412 57.6438 10.9576C65.023 4.89774 68.443 16.8526 66.5728 25.7768Z" fill="#2F2E41"/>
<path d="M39.4525 209.982C49.8559 167.427 70.4693 130.851 104.608 102.194C105.929 100.014 108.059 98.4482 110.529 97.8409C112.999 97.2336 115.609 97.634 117.786 98.9543L198.942 148.311C201.115 149.637 202.676 151.773 203.281 154.25C203.887 156.728 203.488 159.346 202.171 161.529C189.141 205.195 169.625 243.085 137.016 269.317C135.695 271.498 133.565 273.063 131.095 273.67C128.624 274.278 126.015 273.877 123.838 272.557L42.6822 223.2C40.5087 221.875 38.948 219.739 38.3425 217.261C37.7371 214.783 38.1362 212.165 39.4525 209.982Z" fill="#F2F2F2"/>
<path opacity="0.2" d="M53.8772 224.323C51.7037 222.998 50.143 220.862 49.5376 218.384C48.9321 215.906 49.3313 213.289 50.6476 211.106C61.051 168.551 81.6645 131.974 115.803 103.317C116.677 101.89 117.912 100.72 119.383 99.9256L117.786 98.9543C115.609 97.634 112.999 97.2336 110.529 97.8409C108.059 98.4482 105.929 100.014 104.608 102.194C70.4694 130.851 49.856 167.427 39.4525 209.982C38.1363 212.165 37.7371 214.783 38.3425 217.261C38.948 219.739 40.5086 221.874 42.6821 223.2L123.838 272.557C125.283 273.429 126.931 273.902 128.617 273.929C130.302 273.955 131.965 273.535 133.436 272.709L53.8772 224.323Z" fill="black"/>
<path d="M149.053 200.548L94.5768 167.624C93.7113 167.1 93.0888 166.252 92.846 165.267C92.6032 164.283 92.76 163.242 93.2818 162.373C93.8037 161.504 94.648 160.878 95.6294 160.634C96.6107 160.389 97.6488 160.545 98.5156 161.067L152.991 193.991C153.855 194.517 154.475 195.364 154.717 196.348C154.958 197.331 154.801 198.371 154.28 199.239C153.759 200.106 152.916 200.731 151.936 200.977C150.956 201.222 149.919 201.068 149.053 200.548Z" fill="white"/>
<path d="M117.362 156.888L105.377 149.644C104.509 149.123 103.882 148.277 103.636 147.293C103.389 146.308 103.542 145.266 104.062 144.395C104.581 143.523 105.425 142.895 106.406 142.647C107.388 142.4 108.427 142.554 109.296 143.075L109.316 143.087L121.301 150.331C122.165 150.856 122.785 151.704 123.027 152.687C123.269 153.671 123.112 154.711 122.59 155.579C122.069 156.447 121.226 157.072 120.246 157.317C119.266 157.562 118.229 157.408 117.362 156.888Z" fill="white"/>
<path d="M140.394 214.961L85.9187 182.037C85.0522 181.514 84.4284 180.667 84.1842 179.682C83.94 178.698 84.0955 177.656 84.6164 176.787C85.1374 175.917 85.9812 175.291 86.9625 175.045C87.9438 174.799 88.9822 174.954 89.8497 175.476L89.8574 175.48L144.333 208.404C145.197 208.93 145.817 209.777 146.058 210.761C146.3 211.744 146.143 212.784 145.622 213.652C145.101 214.519 144.258 215.144 143.278 215.39C142.298 215.635 141.261 215.481 140.394 214.961Z" fill="white"/>
<path d="M155.97 138.469C164.757 138.469 171.881 131.324 171.881 122.509C171.881 113.695 164.757 106.549 155.97 106.549C147.182 106.549 140.059 113.695 140.059 122.509C140.059 131.324 147.182 138.469 155.97 138.469Z" fill="#3F3D56"/>
<path d="M128.543 293.524C147.325 293.524 162.551 278.252 162.551 259.412C162.551 240.573 147.325 225.3 128.543 225.3C109.761 225.3 94.5352 240.573 94.5352 259.412C94.5352 278.252 109.761 293.524 128.543 293.524Z" fill="white"/>
<path d="M128.543 294C121.723 294 115.056 291.972 109.386 288.171C103.715 284.37 99.2953 278.969 96.6854 272.649C94.0755 266.329 93.3926 259.374 94.7231 252.665C96.0536 245.955 99.3377 239.793 104.16 234.955C108.983 230.118 115.127 226.824 121.816 225.489C128.504 224.155 135.438 224.84 141.739 227.458C148.039 230.075 153.425 234.509 157.214 240.196C161.003 245.884 163.025 252.571 163.025 259.412C163.015 268.582 159.379 277.374 152.914 283.858C146.45 290.342 137.685 293.99 128.543 294ZM128.543 225.777C121.911 225.777 115.427 227.749 109.913 231.445C104.398 235.141 100.1 240.394 97.5619 246.541C95.0239 252.687 94.3598 259.45 95.6537 265.975C96.9476 272.499 100.141 278.493 104.831 283.197C109.521 287.901 115.496 291.104 122.001 292.402C128.506 293.7 135.248 293.034 141.376 290.488C147.503 287.942 152.74 283.631 156.425 278.099C160.11 272.568 162.076 266.065 162.076 259.412C162.066 250.495 158.53 241.945 152.243 235.639C145.957 229.334 137.433 225.787 128.543 225.777Z" fill="#3F3D56"/>
<path d="M123.904 277.166C123.317 277.166 122.738 277.029 122.212 276.765C121.687 276.502 121.23 276.119 120.878 275.648L111.6 263.239C111.302 262.841 111.084 262.387 110.961 261.904C110.837 261.421 110.81 260.919 110.88 260.425C110.95 259.931 111.116 259.457 111.369 259.028C111.622 258.598 111.957 258.224 112.355 257.925C112.753 257.625 113.205 257.408 113.687 257.284C114.168 257.161 114.669 257.133 115.161 257.204C115.653 257.275 116.127 257.442 116.554 257.696C116.982 257.951 117.355 258.287 117.653 258.686L123.723 266.804L139.313 243.348C139.588 242.933 139.942 242.577 140.355 242.3C140.768 242.022 141.231 241.829 141.718 241.732C142.205 241.634 142.707 241.634 143.194 241.73C143.682 241.827 144.145 242.019 144.559 242.295C144.972 242.572 145.327 242.927 145.603 243.341C145.88 243.755 146.072 244.22 146.17 244.708C146.267 245.197 146.268 245.7 146.171 246.189C146.075 246.678 145.883 247.143 145.608 247.557L127.052 275.476C126.716 275.981 126.265 276.398 125.736 276.692C125.206 276.985 124.614 277.148 124.009 277.165C123.974 277.165 123.939 277.166 123.904 277.166Z" fill="#87B300"/>
<path d="M175.597 16.0404C175.829 15.123 174.951 14.1083 173.636 13.7741C172.321 13.4399 171.067 13.9127 170.836 14.8301C170.604 15.7475 171.482 16.7621 172.797 17.0963C174.111 17.4305 175.365 16.9578 175.597 16.0404Z" fill="white"/>
<path d="M44.5128 210.433C43.3001 209.934 42.2099 209.178 41.3175 208.215C40.4251 207.252 39.7518 206.107 39.3442 204.858C38.9366 203.608 38.8043 202.285 38.9566 200.98C39.109 199.674 39.5422 198.417 40.2264 197.296L14.084 160.436L22.4706 150.676L53.2012 194.683C54.9969 195.979 56.2564 197.89 56.7411 200.055C57.2258 202.22 56.902 204.488 55.831 206.429C54.76 208.37 53.0163 209.85 50.9303 210.588C48.8443 211.326 46.5609 211.271 44.5128 210.433Z" fill="#FFB6B6"/>
<path d="M45.1127 93.6236C43.7901 92.8431 42.2335 92.5609 40.7222 92.8278C39.2109 93.0947 37.844 93.8931 36.8667 95.0798L1.54492 144.63L34.279 191.264L47.088 177.464L27.1629 146.058L53.6435 120.768C55.8196 115.986 56.152 110.565 54.5765 105.552C53.0009 100.539 49.6293 96.2892 45.1127 93.6236Z" fill="#C00016"/>
</g>
<defs>
<clipPath id="clip0_4347_3110">
<rect width="205" height="294" fill="white" transform="translate(0.5)"/>
</clipPath>
</defs>
</svg>
