<svg width="228" height="228" viewBox="0 0 228 228" fill="none" xmlns="http://www.w3.org/2000/svg">
<path d="M167.729 192.482L118.23 106.767C117.322 105.191 115.82 104.322 114.001 104.322C112.182 104.322 110.681 105.191 109.773 106.767L60.2724 192.485C59.3647 194.062 59.3647 195.801 60.2738 197.38C61.1815 198.957 62.6881 199.825 64.5151 199.825H163.487C165.314 199.825 166.821 198.957 167.729 197.38C168.638 195.801 168.638 194.062 167.729 192.482Z" fill="#FF897F"/>
<path d="M170.918 51.3493C171.095 51.6535 171.211 51.9898 171.257 52.3388C171.304 52.6877 171.281 53.0424 171.19 53.3825C171.099 53.7226 170.941 54.0412 170.726 54.3201C170.511 54.599 170.243 54.8325 169.938 55.0073C169.632 55.1821 169.295 55.2947 168.946 55.3386C168.596 55.3824 168.242 55.3567 167.903 55.2628C167.563 55.169 167.246 55.0089 166.969 54.7918C166.692 54.5747 166.46 54.3049 166.288 53.9979C164.746 51.2965 162.419 49.1276 159.617 47.7788C155.992 46.034 151.899 45.7664 148.095 47.0271C147.427 47.2357 146.704 47.1737 146.082 46.8544C145.459 46.5351 144.987 45.984 144.767 45.32C144.547 44.6559 144.597 43.932 144.905 43.3041C145.214 42.6763 145.757 42.1948 146.417 41.9633C151.541 40.2648 157.052 40.6244 161.934 42.9738C165.727 44.8075 168.832 47.7032 170.918 51.3493ZM142.435 29.8776C150.717 27.1415 159.608 27.7216 167.467 31.5104C173.582 34.4662 178.595 39.1361 181.965 45.0151C182.139 45.3191 182.371 45.5859 182.649 45.8001C182.926 46.0143 183.243 46.1717 183.581 46.2635C183.919 46.3552 184.272 46.3794 184.619 46.3347C184.967 46.29 185.302 46.1772 185.606 46.0029C186.219 45.6511 186.668 45.07 186.853 44.3873C187.039 43.7046 186.945 42.9763 186.593 42.3625C182.686 35.5464 176.876 30.1333 169.787 26.7067C160.672 22.3129 150.364 21.6403 140.762 24.8126C140.429 24.9224 140.122 25.0967 139.856 25.3254C139.591 25.5542 139.374 25.8329 139.216 26.1457C139.059 26.4586 138.964 26.7994 138.938 27.1487C138.913 27.498 138.956 27.8489 139.066 28.1815C139.176 28.5141 139.35 28.8218 139.579 29.087C139.807 29.3522 140.086 29.5698 140.399 29.7273C140.712 29.8848 141.053 29.9791 141.402 30.0049C141.751 30.0307 142.102 29.9875 142.435 29.8776ZM224.246 127.967C224.246 152.27 204.474 172.043 180.171 172.043H162.085L172.35 189.817C174.222 193.068 174.222 196.794 172.351 200.042C170.478 203.294 167.248 205.159 163.487 205.159H64.515C60.7546 205.159 57.5237 203.294 55.6513 200.042C53.7807 196.794 53.7807 193.068 55.6513 189.819L65.917 172.042H47.831C23.5271 172.043 3.75488 152.27 3.75488 127.967C3.75488 107.997 17.3591 90.4688 36.4432 85.3757C36.2847 83.8598 36.2047 82.3367 36.2036 80.8125C36.2036 56.5091 55.9758 36.7369 80.2792 36.7369C96.757 36.7369 111.805 45.9464 119.364 60.4259C125.182 57.6916 131.597 56.2566 138.082 56.2566C156.129 56.2566 172.322 67.2878 178.995 83.9078C179.387 83.8968 179.779 83.8913 180.171 83.8914C204.474 83.8918 224.246 103.664 224.246 127.967ZM167.728 192.482L118.23 106.767C117.322 105.191 115.82 104.322 114.001 104.322C112.182 104.322 110.68 105.191 109.772 106.767L60.2718 192.485C59.3641 194.062 59.3641 195.801 60.2732 197.381C61.1809 198.957 62.6875 199.825 64.5145 199.825H163.487C165.314 199.825 166.82 198.957 167.728 197.381C168.638 195.801 168.638 194.062 167.728 192.482ZM218.912 127.967C218.912 106.605 201.533 89.2259 180.171 89.2259C179.238 89.2259 178.301 89.2614 177.389 89.3317C176.802 89.3767 176.217 89.2266 175.725 88.9048C175.233 88.5829 174.861 88.1074 174.666 87.5522C169.24 72.024 154.538 61.5911 138.082 61.5911C131.551 61.5911 125.103 63.2452 119.436 66.3748C119.112 66.5536 118.755 66.6632 118.387 66.6965C118.018 66.7298 117.647 66.6861 117.297 66.5683C116.946 66.4504 116.624 66.2609 116.351 66.0119C116.077 65.7628 115.859 65.4597 115.709 65.1216C109.497 51.1191 95.5909 42.0714 80.2797 42.0714C58.9178 42.0714 41.5385 59.4506 41.5385 80.8125C41.5385 82.8427 41.7052 84.9236 42.0346 86.9974C42.1421 87.6748 41.9846 88.3675 41.5946 88.9318C41.2047 89.496 40.6125 89.8884 39.9408 90.0274C22.0641 93.725 9.08935 109.681 9.08935 127.967C9.08935 149.329 26.4686 166.708 47.8305 166.708H68.9973L105.151 104.102C107.022 100.853 110.248 98.9879 114.001 98.9879C117.753 98.9879 120.979 100.853 122.852 104.105L159.004 166.708H180.171C201.533 166.708 218.912 149.329 218.912 127.967ZM114.001 134.058C115.251 134.061 116.488 134.317 117.636 134.81C118.785 135.304 119.822 136.024 120.685 136.929C122.346 138.675 123.196 140.928 123.079 143.273L122.096 162.881C121.869 167.348 118.314 170.846 114.001 170.846C109.689 170.846 106.133 167.348 105.906 162.882L104.923 143.273C104.806 140.928 105.656 138.675 107.317 136.929C108.18 136.024 109.217 135.303 110.366 134.81C111.514 134.317 112.751 134.061 114.001 134.058ZM116.82 140.605C116.087 139.834 115.059 139.392 114.001 139.392C112.942 139.392 111.915 139.834 111.182 140.605C110.538 141.282 110.207 142.134 110.251 143.006L111.233 162.613C111.316 164.237 112.531 165.511 114.001 165.511C115.47 165.511 116.686 164.237 116.768 162.611L117.751 143.005C117.794 142.135 117.464 141.282 116.82 140.605ZM121.532 181.46C121.532 185.613 118.154 188.992 114.001 188.992C109.848 188.992 106.469 185.613 106.469 181.46C106.469 177.307 109.848 173.929 114.001 173.929C118.154 173.929 121.532 177.308 121.532 181.46ZM116.198 181.46C116.198 180.249 115.212 179.263 114.001 179.263C112.789 179.263 111.804 180.249 111.804 181.46C111.804 182.672 112.789 183.657 114.001 183.657C115.212 183.657 116.198 182.672 116.198 181.46Z" fill="black"/>
<path d="M114.001 179.264C112.79 179.264 111.804 180.249 111.804 181.461C111.804 182.672 112.79 183.658 114.001 183.658C115.212 183.658 116.198 182.672 116.198 181.461C116.198 180.249 115.212 179.264 114.001 179.264ZM111.182 140.605C110.538 141.282 110.207 142.135 110.251 143.006L111.234 162.613C111.316 164.237 112.532 165.511 114.001 165.511C115.47 165.511 116.686 164.237 116.769 162.612L117.751 143.006C117.795 142.135 117.464 141.282 116.82 140.605C116.087 139.834 115.059 139.392 114.001 139.392C112.943 139.392 111.915 139.834 111.182 140.605Z" fill="#FFDAD6"/>
<path d="M180.172 89.2263C179.238 89.2263 178.302 89.2619 177.389 89.3321C176.803 89.3771 176.218 89.227 175.726 88.9052C175.233 88.5834 174.861 88.1078 174.667 87.5526C169.24 72.0244 154.539 61.5915 138.083 61.5915C131.552 61.5915 125.103 63.2456 119.437 66.3752C119.113 66.554 118.756 66.6636 118.387 66.6969C118.019 66.7302 117.648 66.6865 117.297 66.5687C116.947 66.4508 116.625 66.2614 116.351 66.0123C116.078 65.7633 115.859 65.4601 115.709 65.122C109.498 51.1195 95.5914 42.0718 80.2802 42.0718C58.9183 42.0718 41.539 59.451 41.539 80.8129C41.539 82.8432 41.7057 84.924 42.0351 86.9978C42.1426 87.6752 41.985 88.368 41.5951 88.9322C41.2052 89.4965 40.6129 89.8888 39.9413 90.0278C22.0646 93.725 9.08984 109.681 9.08984 127.967C9.08984 149.329 26.4691 166.708 47.831 166.708H68.9977L105.151 104.102C107.022 100.853 110.248 98.9879 114.001 98.9879C117.754 98.9879 120.98 100.853 122.853 104.105L159.005 166.708H180.172C201.534 166.708 218.912 149.329 218.912 127.967C218.912 106.605 201.533 89.2263 180.172 89.2263Z" fill="#FBEEEC"/>
<path d="M158.923 166.708C194.214 159.163 211.654 152.942 210.433 103.818C221.813 117.594 221.215 136.161 212.23 150.536C199.163 165.846 187.673 168.505 158.923 166.708Z" fill="#FFDAD6"/>
</svg>
