<svg width="254" height="266" viewBox="0 0 254 266" fill="none" xmlns="http://www.w3.org/2000/svg">
<path d="M75.5645 75.6801C72.7659 101.107 41.2029 105.826 38.5463 132.392C35.6612 161.227 58.6061 174.424 84.6523 175.347C107.14 176.147 121.51 153.076 143.781 148.597C171.953 142.937 191.771 160.545 212.004 142.869C262.873 98.4312 190.802 34.5891 147.037 21.737C126.211 15.6278 94.92 9.77085 77.6959 27.9693C60.6757 45.977 77.8936 54.504 75.5645 75.6801Z" fill="#C00016"/>
<path opacity="0.9" d="M75.5645 75.6801C72.7659 101.107 41.2029 105.826 38.5463 132.392C35.6612 161.227 58.6061 174.424 84.6523 175.347C107.14 176.147 121.51 153.076 143.781 148.597C171.953 142.937 191.771 160.545 212.004 142.869C262.873 98.4312 190.802 34.5891 147.037 21.737C126.211 15.6278 94.92 9.77085 77.6959 27.9693C60.6757 45.977 77.8936 54.504 75.5645 75.6801Z" fill="white"/>
<path d="M127 247.593C193.155 247.593 246.784 244.475 246.784 240.629C246.784 236.782 193.155 233.664 127 233.664C60.8451 233.664 7.21601 236.782 7.21601 240.629C7.21601 244.475 60.8451 247.593 127 247.593Z" fill="#F5F5F5"/>
<path d="M158.229 235.928L162.443 234.766L160.157 224.922L155.937 226.091L158.229 235.928Z" fill="#FF8B7B"/>
<path d="M107.842 235.793L112.167 236.47L114.076 226.645H109.702L107.842 235.793Z" fill="#FF8B7B"/>
<path d="M112.55 236.021L107.694 235.258C107.608 235.243 107.521 235.259 107.445 235.301C107.37 235.344 107.311 235.411 107.28 235.491L105.822 239.183C105.781 239.272 105.762 239.37 105.767 239.468C105.772 239.566 105.801 239.662 105.85 239.747C105.9 239.832 105.969 239.904 106.052 239.956C106.136 240.009 106.23 240.041 106.329 240.05C108.028 240.284 108.868 240.315 111.005 240.666C112.321 240.875 113.575 241.195 119.376 241.195C121.174 241.195 121.452 239.392 120.705 239.226C117.331 238.494 114.125 237.528 113.211 236.408C113.046 236.202 112.81 236.064 112.55 236.021Z" fill="#263238"/>
<path d="M162.282 234.286L157.673 235.559C157.59 235.584 157.518 235.635 157.468 235.705C157.417 235.776 157.392 235.861 157.395 235.947L157.605 239.909C157.606 240.005 157.63 240.1 157.675 240.186C157.72 240.272 157.784 240.346 157.863 240.402C157.942 240.458 158.033 240.495 158.129 240.51C158.225 240.525 158.323 240.517 158.415 240.487C160.07 240.001 162.443 239.257 164.531 238.641C166.971 237.971 169.115 237.522 171.982 236.728C173.711 236.248 173.705 234.378 172.939 234.415C169.436 234.612 166.724 235.276 163.388 234.31C163.029 234.201 162.646 234.193 162.282 234.286Z" fill="#263238"/>
<path d="M160.157 224.928L161.337 229.998L157.117 231.16L155.937 226.091L160.157 224.928Z" fill="#EA7063"/>
<path d="M109.702 226.645H114.076L113.063 231.849H108.639L109.702 226.645Z" fill="#EA7063"/>
<path d="M144.941 88.243C144.941 88.243 150.105 101.403 145.2 125.907H121.786C121.625 122.327 123.886 104.879 120.42 88.0216C123.007 87.5226 125.624 87.1938 128.254 87.0372C131.567 86.8433 134.888 86.8433 138.201 87.0372C140.475 87.2639 142.729 87.667 144.941 88.243Z" fill="#C00016"/>
<path opacity="0.1" d="M144.941 88.243C144.941 88.243 150.105 101.403 145.2 125.907H121.786C121.625 122.327 123.886 104.879 120.42 88.0216C123.007 87.5226 125.624 87.1938 128.254 87.0372C131.567 86.8433 134.888 86.8433 138.201 87.0372C140.475 87.2639 142.729 87.667 144.941 88.243Z" fill="black"/>
<path d="M157.204 111.437C157.112 111.092 156.992 110.754 156.846 110.428L156.636 109.917L156.222 108.896L155.388 106.841L153.707 102.67C152.583 99.9016 151.421 97.1331 150.217 94.4138L143.835 97.0715C144.959 99.877 146.158 102.609 147.43 105.377C148.048 106.749 148.709 108.109 149.376 109.475C149.71 110.157 150.044 110.84 150.396 111.517L150.884 112.471L150.748 112.52C149.515 112.95 148.239 113.249 146.942 113.412C144.156 113.818 141.166 114.027 138.25 114.181L137.947 117.583C141.032 118.208 144.171 118.529 147.319 118.543C149.036 118.567 150.749 118.385 152.422 118.002C152.922 117.876 153.411 117.713 153.886 117.516C154.486 117.266 155.047 116.935 155.554 116.531C156.287 115.945 156.837 115.164 157.142 114.279C157.437 113.358 157.458 112.371 157.204 111.437Z" fill="#FF8B7B"/>
<path d="M139.745 91.2269C138.275 95.1274 145.744 106.608 145.744 106.608L154.492 101.876C153.177 98.3066 151.483 94.887 149.438 91.676C146.343 87.0803 141.364 86.9449 139.745 91.2269Z" fill="#C00016"/>
<path opacity="0.1" d="M139.745 91.2269C138.275 95.1274 145.744 106.608 145.744 106.608L154.492 101.876C153.177 98.3066 151.483 94.887 149.438 91.676C146.343 87.0803 141.364 86.9449 139.745 91.2269Z" fill="black"/>
<path d="M131.084 111.8L130.676 116.384L134.834 116.931L135.532 111.905L131.084 111.8Z" fill="#FF8B7B"/>
<path d="M138.831 114.446L135.532 111.899L134.834 116.925C134.834 116.925 137.793 119.054 139.832 117.066L138.831 114.446Z" fill="#FF8B7B"/>
<path d="M129.249 75.877C129.867 79.07 130.484 84.9085 128.266 87.0372C128.266 87.0372 129.551 90.2671 135.501 90.2671C140.937 90.2671 138.213 87.0372 138.213 87.0372C134.642 86.1882 134.908 81.6847 135.742 78.3871L129.249 75.877Z" fill="#FF8B7B"/>
<path d="M129.817 80.3251L131.961 78.7747C132.078 79.1008 133.907 80.3251 133.629 80.9772C132.696 83.1797 130.966 83.9611 129.712 83.5735C129.847 82.4962 129.883 81.4088 129.817 80.3251Z" fill="#EA7063"/>
<path d="M128.965 69.1895L125.295 66.7286C123.565 68.199 123.262 72.1549 125.462 74.6404C129.86 73.8221 128.965 69.1895 128.965 69.1895Z" fill="#263238"/>
<path d="M136.848 70.6783C136.848 75.2494 137.119 77.9257 134.994 80.4173C131.757 84.1641 125.974 82.4538 124.578 77.9564C123.343 73.9267 123.491 67.1284 127.846 65.0367C128.804 64.5736 129.864 64.3611 130.926 64.4192C131.989 64.4772 133.019 64.8039 133.92 65.3685C134.821 65.933 135.562 66.7167 136.074 67.6458C136.587 68.5748 136.853 69.6185 136.848 70.6783Z" fill="#FF8B7B"/>
<path d="M137.725 67.8175L133.345 67.1161C132.399 69.171 133.808 72.887 136.854 74.2159C140.505 71.6381 137.725 67.8175 137.725 67.8175Z" fill="#263238"/>
<path d="M128.39 68.2605C126.506 68.4635 120.093 68.2912 123.33 61.8129C123.33 62.5942 124.065 64.7229 125.9 62.4281C127.445 60.4902 130.88 63.0987 130.534 61.1977C130.534 61.1977 131.769 61.8129 131.152 62.5758C130.534 63.3387 135.21 60.9823 137.848 62.5019C136.508 62.6373 136.36 64.483 138.312 65.7257C140.165 66.907 138.825 69.9462 136.458 69.374C134.092 68.8019 133.085 67.7498 128.39 68.2605Z" fill="#263238"/>
<path d="M138.954 74.2651C138.727 75.2465 138.124 76.1008 137.274 76.646C136.149 77.3597 135.229 76.443 135.247 75.1756C135.247 74.0375 135.865 72.2964 137.138 72.0995C138.411 71.9026 139.226 73.0592 138.954 74.2651Z" fill="#FF8B7B"/>
<path d="M145.2 125.907C145.2 125.907 153.936 160.563 155.703 173.741C157.556 187.442 161.986 228.066 161.986 228.066L155.147 230.25C155.147 230.25 145.379 190.346 142.754 177.026C139.869 162.501 129.817 125.907 129.817 125.907H145.2Z" fill="#C00016"/>
<path opacity="0.6" d="M145.2 125.907C145.2 125.907 153.936 160.563 155.703 173.741C157.556 187.442 161.986 228.066 161.986 228.066L155.147 230.25C155.147 230.25 145.379 190.346 142.754 177.026C139.869 162.501 129.817 125.907 129.817 125.907H145.2Z" fill="#FAFAFA"/>
<path d="M154.801 230.73L162.474 228.336L162.369 225.5L153.991 228.219L154.801 230.73Z" fill="#C00016"/>
<path opacity="0.2" d="M154.801 230.73L162.474 228.336L162.369 225.5L153.991 228.219L154.801 230.73Z" fill="black"/>
<path d="M134.698 128.467L132.659 136.403C134.549 143.49 137.082 153.1 139.22 161.744C139.423 150.487 137.898 139.265 134.698 128.467Z" fill="#C00016"/>
<path opacity="0.4" d="M134.698 128.467L132.659 136.403C134.549 143.49 137.082 153.1 139.22 161.744C139.423 150.487 137.898 139.265 134.698 128.467Z" fill="#FAFAFA"/>
<path d="M136.903 125.907C136.903 125.907 134.914 161.523 132.189 173.993C129.199 187.658 114.99 230.84 114.99 230.84H106.959C106.959 230.84 117.356 188.759 119.055 175.236C120.909 160.557 121.792 125.907 121.792 125.907H136.903Z" fill="#C00016"/>
<path opacity="0.6" d="M136.903 125.907C136.903 125.907 134.914 161.523 132.189 173.993C129.199 187.658 114.99 230.84 114.99 230.84H106.959C106.959 230.84 117.356 188.759 119.055 175.236C120.909 160.557 121.792 125.907 121.792 125.907H136.903Z" fill="#FAFAFA"/>
<path d="M106.378 230.963H115.565L116.405 228.509H106.378V230.963Z" fill="#C00016"/>
<path opacity="0.2" d="M106.378 230.963H115.565L116.405 228.509H106.378V230.963Z" fill="black"/>
<path d="M110.196 226.128C110.186 226.126 110.177 226.123 110.168 226.118C110.16 226.112 110.153 226.106 110.147 226.098C110.141 226.09 110.137 226.081 110.135 226.071C110.133 226.061 110.132 226.051 110.134 226.042C110.202 225.636 119.871 187.898 121.397 175.722C123.058 162.538 123.577 130.977 123.614 130.688C123.617 130.669 123.627 130.651 123.642 130.639C123.657 130.626 123.675 130.62 123.695 130.62C123.705 130.621 123.715 130.623 123.724 130.628C123.733 130.633 123.742 130.64 123.748 130.648C123.754 130.656 123.759 130.665 123.762 130.675C123.764 130.685 123.764 130.696 123.763 130.706C123.726 130.995 123.207 162.556 121.545 175.741C120.019 187.891 110.35 225.66 110.282 226.066C110.281 226.076 110.278 226.085 110.272 226.094C110.267 226.102 110.26 226.109 110.252 226.115C110.244 226.121 110.235 226.125 110.225 226.127C110.216 226.129 110.206 226.129 110.196 226.128Z" fill="#C00016"/>
<path opacity="0.4" d="M110.196 226.128C110.186 226.126 110.177 226.123 110.168 226.118C110.16 226.112 110.153 226.106 110.147 226.098C110.141 226.09 110.137 226.081 110.135 226.071C110.133 226.061 110.132 226.051 110.134 226.042C110.202 225.636 119.871 187.898 121.397 175.722C123.058 162.538 123.577 130.977 123.614 130.688C123.617 130.669 123.627 130.651 123.642 130.639C123.657 130.626 123.675 130.62 123.695 130.62C123.705 130.621 123.715 130.623 123.724 130.628C123.733 130.633 123.742 130.64 123.748 130.648C123.754 130.656 123.759 130.665 123.762 130.675C123.764 130.685 123.764 130.696 123.763 130.706C123.726 130.995 123.207 162.556 121.545 175.741C120.019 187.891 110.35 225.66 110.282 226.066C110.281 226.076 110.278 226.085 110.272 226.094C110.267 226.102 110.26 226.109 110.252 226.115C110.244 226.121 110.235 226.125 110.225 226.127C110.216 226.129 110.206 226.129 110.196 226.128Z" fill="#FAFAFA"/>
<path d="M122.75 95.2136C121.563 98.4927 120.34 101.784 119.111 105.057C117.881 108.33 116.64 111.622 115.546 114.772C114.582 117.799 113.878 121.25 113.174 124.615C112.469 127.981 111.765 131.469 111.03 134.89L107.614 134.557C107.614 130.989 107.712 127.451 107.984 123.889C108.133 122.117 108.281 120.333 108.522 118.537C108.743 116.686 109.071 114.85 109.504 113.037C109.961 111.222 110.468 109.518 110.999 107.813C111.53 106.109 112.074 104.424 112.642 102.744C113.779 99.3848 114.978 96.0749 116.269 92.7711L122.75 95.2136Z" fill="#FF8B7B"/>
<path d="M120.433 88.0216C116.294 88.6368 111.549 102.904 111.549 102.904L120.247 107.826C120.247 107.826 124.072 101.058 125.962 95.9888C127.964 90.667 124.875 87.3756 120.433 88.0216Z" fill="#C00016"/>
<path opacity="0.1" d="M120.433 88.0216C116.294 88.6368 111.549 102.904 111.549 102.904L120.247 107.826C120.247 107.826 124.072 101.058 125.962 95.9888C127.964 90.667 124.875 87.3756 120.433 88.0216Z" fill="black"/>
<path d="M113.859 236.999C114.15 237.067 114.455 237.034 114.724 236.906C114.813 236.854 114.887 236.781 114.94 236.693C114.993 236.604 115.023 236.505 115.027 236.402C115.036 236.343 115.028 236.283 115.006 236.227C114.983 236.172 114.945 236.124 114.897 236.088C114.459 235.768 112.927 236.402 112.754 236.476C112.736 236.484 112.721 236.498 112.71 236.514C112.699 236.53 112.693 236.549 112.692 236.568C112.692 236.589 112.698 236.609 112.709 236.626C112.72 236.643 112.735 236.657 112.754 236.667C113.109 236.818 113.48 236.929 113.859 236.999ZM114.644 236.205C114.69 236.212 114.735 236.229 114.774 236.254C114.774 236.254 114.823 236.304 114.817 236.384C114.816 236.454 114.798 236.523 114.763 236.584C114.729 236.645 114.679 236.697 114.619 236.734C114.102 236.877 113.549 236.818 113.075 236.568C113.57 236.349 114.103 236.226 114.644 236.205Z" fill="#C00016"/>
<path d="M112.778 236.673H112.828C113.316 236.5 114.329 235.695 114.31 235.202C114.308 235.124 114.279 235.049 114.227 234.991C114.175 234.932 114.104 234.894 114.026 234.882C113.951 234.86 113.872 234.855 113.794 234.865C113.716 234.876 113.642 234.903 113.575 234.944C113.007 235.276 112.704 236.5 112.692 236.55C112.689 236.568 112.69 236.587 112.696 236.605C112.701 236.623 112.71 236.64 112.723 236.654L112.778 236.673ZM113.927 235.067H113.971C114.1 235.104 114.107 235.172 114.107 235.196C114.107 235.485 113.452 236.113 112.951 236.377C113.063 235.892 113.317 235.451 113.68 235.11C113.717 235.087 113.757 235.071 113.8 235.064C113.842 235.057 113.885 235.058 113.927 235.067Z" fill="#C00016"/>
<path d="M164.241 234.532C164.609 234.466 164.945 234.277 165.192 233.996C165.244 233.917 165.276 233.826 165.285 233.732C165.293 233.638 165.278 233.542 165.241 233.455C165.224 233.402 165.193 233.355 165.152 233.317C165.111 233.279 165.061 233.253 165.007 233.24C164.389 233.092 162.956 234.421 162.795 234.569C162.782 234.586 162.776 234.606 162.776 234.627C162.776 234.648 162.782 234.669 162.795 234.686C162.802 234.706 162.815 234.724 162.833 234.736C162.851 234.748 162.872 234.754 162.894 234.753C163.348 234.719 163.799 234.645 164.241 234.532ZM164.759 233.455C164.824 233.438 164.892 233.438 164.957 233.455C164.979 233.461 164.999 233.473 165.015 233.489C165.032 233.505 165.043 233.525 165.05 233.547C165.078 233.602 165.092 233.662 165.092 233.723C165.092 233.784 165.078 233.844 165.05 233.898C164.852 234.2 164.166 234.433 163.196 234.513C163.655 234.076 164.183 233.719 164.759 233.455Z" fill="#C00016"/>
<path d="M162.888 234.747H162.931C163.376 234.378 164.129 233.191 163.919 232.735C163.87 232.631 163.752 232.514 163.474 232.563C163.372 232.577 163.274 232.614 163.187 232.669C163.099 232.724 163.025 232.797 162.968 232.883C162.71 233.447 162.636 234.078 162.758 234.686C162.77 234.72 162.794 234.748 162.826 234.765L162.888 234.747ZM163.444 232.76H163.505C163.691 232.729 163.722 232.797 163.734 232.815C163.858 233.092 163.369 233.99 162.937 234.446C162.852 233.955 162.921 233.45 163.135 233C163.205 232.886 163.315 232.8 163.444 232.76Z" fill="#C00016"/>
<path d="M111.172 134.397L110.332 137.738L106.588 135.48C106.588 135.48 107.132 131.887 109.986 131.826L111.172 134.397Z" fill="#FF8B7B"/>
<path d="M107.441 139.338L104.661 137.72L106.588 135.505L110.332 137.757L107.441 139.338Z" fill="#FF8B7B"/>
<path d="M76.3656 241.711H121.983C122.858 241.72 123.724 241.547 124.528 241.204C125.331 240.861 126.054 240.355 126.65 239.719C127.247 239.082 127.703 238.329 127.991 237.507C128.279 236.685 128.392 235.812 128.322 234.944L119.315 106.977C119.152 105.151 118.316 103.449 116.969 102.2C115.622 100.951 113.859 100.242 112.018 100.209H66.4253C65.5508 100.2 64.6839 100.372 63.88 100.714C63.0761 101.057 62.3528 101.563 61.7563 102.2C61.1598 102.837 60.7032 103.591 60.4158 104.413C60.1283 105.236 60.0162 106.109 60.0867 106.977L69.0694 234.944C69.2323 236.77 70.0677 238.471 71.4147 239.721C72.7617 240.97 74.5251 241.679 76.3656 241.711Z" fill="#C00016"/>
<path opacity="0.3" d="M76.3656 241.711H121.983C122.858 241.72 123.724 241.547 124.528 241.204C125.331 240.861 126.054 240.355 126.65 239.719C127.247 239.082 127.703 238.329 127.991 237.507C128.279 236.685 128.392 235.812 128.322 234.944L119.315 106.977C119.152 105.151 118.316 103.449 116.969 102.2C115.622 100.951 113.859 100.242 112.018 100.209H66.4253C65.5508 100.2 64.6839 100.372 63.88 100.714C63.0761 101.057 62.3528 101.563 61.7563 102.2C61.1598 102.837 60.7032 103.591 60.4158 104.413C60.1283 105.236 60.0162 106.109 60.0867 106.977L69.0694 234.944C69.2323 236.77 70.0677 238.471 71.4147 239.721C72.7617 240.97 74.5251 241.679 76.3656 241.711Z" fill="#FAFAFA"/>
<path d="M81.2832 241.711H126.907C127.781 241.72 128.648 241.547 129.451 241.204C130.255 240.861 130.978 240.355 131.574 239.719C132.17 239.082 132.627 238.329 132.915 237.507C133.203 236.685 133.315 235.812 133.246 234.944L124.257 106.977C124.097 105.151 123.263 103.449 121.917 102.199C120.571 100.949 118.807 100.24 116.967 100.209H71.3491C70.4746 100.2 69.6078 100.372 68.8038 100.714C67.9999 101.057 67.2766 101.563 66.6801 102.2C66.0836 102.837 65.6271 103.591 65.3396 104.413C65.0521 105.236 64.94 106.109 65.0105 106.977L73.9933 234.944C74.1547 236.769 74.9888 238.471 76.3347 239.72C77.6807 240.97 79.4434 241.679 81.2832 241.711Z" fill="#C00016"/>
<path opacity="0.6" d="M81.2832 241.711H126.907C127.781 241.72 128.648 241.547 129.451 241.204C130.255 240.861 130.978 240.355 131.574 239.719C132.17 239.082 132.627 238.329 132.915 237.507C133.203 236.685 133.315 235.812 133.246 234.944L124.257 106.977C124.097 105.151 123.263 103.449 121.917 102.199C120.571 100.949 118.807 100.24 116.967 100.209H71.3491C70.4746 100.2 69.6078 100.372 68.8038 100.714C67.9999 101.057 67.2766 101.563 66.6801 102.2C66.0836 102.837 65.6271 103.591 65.3396 104.413C65.0521 105.236 64.94 106.109 65.0105 106.977L73.9933 234.944C74.1547 236.769 74.9888 238.471 76.3347 239.72C77.6807 240.97 79.4434 241.679 81.2832 241.711Z" fill="#FAFAFA"/>
<path d="M75.6551 234.359H131.423C131.542 234.36 131.66 234.336 131.769 234.289C131.878 234.241 131.977 234.172 132.058 234.086C132.139 233.999 132.201 233.897 132.241 233.785C132.281 233.673 132.297 233.555 132.288 233.437L123.534 108.779C123.52 108.561 123.423 108.356 123.262 108.206C123.101 108.056 122.889 107.973 122.669 107.973H66.901C66.7817 107.974 66.6638 107.999 66.5546 108.047C66.4455 108.094 66.3473 108.164 66.2662 108.251C66.1851 108.338 66.1228 108.441 66.0832 108.553C66.0437 108.665 66.0276 108.784 66.0361 108.902L74.7902 233.554C74.8043 233.772 74.9017 233.977 75.0624 234.127C75.2231 234.277 75.435 234.36 75.6551 234.359Z" fill="#FAFAFA"/>
<path d="M71.8866 164.027L75.9702 153.882C76.4582 152.682 78.2004 152.682 79.1148 153.882L86.7939 164.027C87.7021 165.257 87.0967 166.74 85.7004 166.74H83.0316C85.7931 175.673 94.1519 182.773 103.326 183.966C104.104 184.076 104.829 184.421 105.402 184.957C105.974 185.492 106.367 186.19 106.526 186.956C106.623 187.362 106.615 187.786 106.502 188.187C106.39 188.589 106.176 188.956 105.882 189.253C105.588 189.55 105.223 189.768 104.821 189.886C104.42 190.004 103.994 190.018 103.586 189.928C91.3841 188.353 80.27 178.737 76.934 166.752H73.9377C72.5414 166.74 71.3985 165.233 71.8866 164.027Z" fill="#C00016"/>
<path d="M98.4394 141.276C98.3429 140.87 98.3512 140.447 98.4636 140.046C98.5759 139.645 98.7887 139.279 99.0819 138.982C99.3751 138.685 99.7392 138.467 100.14 138.349C100.541 138.23 100.965 138.215 101.374 138.304C113.575 139.879 124.689 149.495 128.025 161.48H131.053C132.449 161.48 133.592 162.987 133.104 164.187L129.02 174.332C128.538 175.562 126.79 175.562 125.876 174.332L118.166 164.193C117.257 162.993 117.863 161.486 119.259 161.486H121.934C119.166 152.553 110.814 145.453 101.633 144.259C100.858 144.149 100.135 143.804 99.5631 143.27C98.9916 142.736 98.5992 142.04 98.4394 141.276Z" fill="#C00016"/>
<g opacity="0.3">
<path d="M71.8866 164.027L75.9702 153.882C76.4582 152.682 78.2004 152.682 79.1148 153.882L86.7939 164.027C87.7021 165.257 87.0967 166.74 85.7004 166.74H83.0316C85.7931 175.673 94.1519 182.773 103.326 183.966C104.104 184.076 104.829 184.421 105.402 184.957C105.974 185.492 106.367 186.19 106.526 186.956C106.623 187.362 106.615 187.786 106.502 188.187C106.39 188.589 106.176 188.956 105.882 189.253C105.588 189.55 105.223 189.768 104.821 189.886C104.42 190.004 103.994 190.018 103.586 189.928C91.3841 188.353 80.27 178.737 76.934 166.752H73.9377C72.5414 166.74 71.3985 165.233 71.8866 164.027Z" fill="black"/>
<path d="M98.4394 141.276C98.3429 140.87 98.3512 140.447 98.4636 140.046C98.5759 139.645 98.7887 139.279 99.0819 138.982C99.3751 138.685 99.7392 138.467 100.14 138.349C100.541 138.23 100.965 138.215 101.374 138.304C113.575 139.879 124.689 149.495 128.025 161.48H131.053C132.449 161.48 133.592 162.987 133.104 164.187L129.02 174.332C128.538 175.562 126.79 175.562 125.876 174.332L118.166 164.193C117.257 162.993 117.863 161.486 119.259 161.486H121.934C119.166 152.553 110.814 145.453 101.633 144.259C100.858 144.149 100.135 143.804 99.5631 143.27C98.9916 142.736 98.5992 142.04 98.4394 141.276Z" fill="black"/>
</g>
<path d="M84.7738 103.765C84.7954 104.054 84.9247 104.324 85.1363 104.522C85.3478 104.72 85.6263 104.832 85.9167 104.836C86.0551 104.838 86.1925 104.811 86.3199 104.757C86.4473 104.703 86.5619 104.623 86.6563 104.522C86.7506 104.421 86.8227 104.302 86.8676 104.171C86.9126 104.041 86.9296 103.903 86.9175 103.765C86.8989 103.472 86.7705 103.197 86.5576 102.994C86.3447 102.791 86.063 102.676 85.7684 102.67C85.6279 102.667 85.4884 102.695 85.3594 102.75C85.2303 102.806 85.1148 102.888 85.0205 102.992C84.9262 103.096 84.8554 103.219 84.8128 103.352C84.7703 103.485 84.7569 103.626 84.7738 103.765Z" fill="#C00016"/>
<path opacity="0.4" d="M84.7738 103.765C84.7954 104.054 84.9247 104.324 85.1363 104.522C85.3478 104.72 85.6263 104.832 85.9167 104.836C86.0551 104.838 86.1925 104.811 86.3199 104.757C86.4473 104.703 86.5619 104.623 86.6563 104.522C86.7506 104.421 86.8227 104.302 86.8676 104.171C86.9126 104.041 86.9296 103.903 86.9175 103.765C86.8989 103.472 86.7705 103.197 86.5576 102.994C86.3447 102.791 86.063 102.676 85.7684 102.67C85.6279 102.667 85.4884 102.695 85.3594 102.75C85.2303 102.806 85.1148 102.888 85.0205 102.992C84.9262 103.096 84.8554 103.219 84.8128 103.352C84.7703 103.485 84.7569 103.626 84.7738 103.765Z" fill="#FAFAFA"/>
<path d="M90.2783 104.836H102.152C102.29 104.836 102.426 104.808 102.552 104.753C102.679 104.699 102.792 104.619 102.886 104.518C102.979 104.417 103.051 104.298 103.096 104.169C103.141 104.039 103.158 103.902 103.147 103.765C103.13 103.475 103.005 103.202 102.795 102.999C102.586 102.796 102.308 102.679 102.016 102.67H90.1547C90.0166 102.669 89.8796 102.696 89.7527 102.751C89.6257 102.805 89.5115 102.885 89.4173 102.986C89.3232 103.086 89.2511 103.206 89.2058 103.335C89.1604 103.465 89.1427 103.603 89.1539 103.741C89.1734 104.029 89.2988 104.3 89.5062 104.502C89.7136 104.704 89.9885 104.823 90.2783 104.836Z" fill="#C00016"/>
<path opacity="0.4" d="M90.2783 104.836H102.152C102.29 104.836 102.426 104.808 102.552 104.753C102.679 104.699 102.792 104.619 102.886 104.518C102.979 104.417 103.051 104.298 103.096 104.169C103.141 104.039 103.158 103.902 103.147 103.765C103.13 103.475 103.005 103.202 102.795 102.999C102.586 102.796 102.308 102.679 102.016 102.67H90.1547C90.0166 102.669 89.8796 102.696 89.7527 102.751C89.6257 102.805 89.5115 102.885 89.4173 102.986C89.3232 103.086 89.2511 103.206 89.2058 103.335C89.1604 103.465 89.1427 103.603 89.1539 103.741C89.1734 104.029 89.2988 104.3 89.5062 104.502C89.7136 104.704 89.9885 104.823 90.2783 104.836Z" fill="#FAFAFA"/>
</svg>
