<svg width="25" height="24" viewBox="0 0 25 24" fill="none" xmlns="http://www.w3.org/2000/svg">
    <g clip-path="url(#clip0_5935_269)">
        <path
            d="M20.4583 16.5085V17.3385C20.4583 18.665 19.3777 19.7474 18.0533 19.7474H6.61334C5.28897 19.7474 4.20834 18.665 4.20834 17.3385V16.5085H20.4583ZM22.0833 14.8809H2.58334V17.3385C2.58334 19.5684 4.38709 21.375 6.61334 21.375H18.0452C20.2715 21.375 22.0752 19.5684 22.0752 17.3385V14.8809H22.0833Z"
            fill="#524342" />
        <path
            d="M18.8334 6.7266V6.75916C18.8334 8.53324 17.3871 9.98181 15.6159 9.98181H8.52275C7.044 9.98181 5.83337 8.77738 5.83337 7.28813V6.7266H18.8334ZM20.4584 5.099H4.20837V7.28813C4.20837 9.67257 6.14212 11.6094 8.52275 11.6094H15.624C18.2971 11.6094 20.4665 9.43656 20.4665 6.75916V5.099H20.4584Z"
            fill="#524342" />
        <path d="M22.0833 12.4232H2.58334V14.0508H22.0833V12.4232Z" fill="#524342" />
        <path d="M20.4584 2.64929H4.20837V4.2769H20.4584V2.64929Z" fill="#524342" />
    </g>
    <defs>
        <clipPath id="clip0_5935_269">
            <rect width="19.5" height="18.75" fill="white" transform="translate(2.58334 2.625)" />
        </clipPath>
    </defs>
</svg>
