<svg width="40" height="40" viewBox="0 0 40 40" fill="none" xmlns="http://www.w3.org/2000/svg">
    <path
        d="M31.3542 24.1124V25.3298C31.3542 27.2754 29.7609 28.8628 27.8083 28.8628H10.9417C8.98906 28.8628 7.39583 27.2754 7.39583 25.3298V24.1124H31.3542ZM33.75 21.7252H5V25.3298C5 28.6002 7.65937 31.25 10.9417 31.25H27.7964C31.0786 31.25 33.738 28.6002 33.738 25.3298V21.7252H33.75Z"
        fill="#857371" />
    <path
        d="M28.9584 9.76563V9.81337C28.9584 12.4154 26.8261 14.5399 24.2146 14.5399H13.7568C11.5766 14.5399 9.79171 12.7734 9.79171 10.5892V9.76563H28.9584ZM31.3542 7.37848H7.39587V10.5892C7.39587 14.0864 10.2469 16.9271 13.7568 16.9271H24.2266C28.1677 16.9271 31.3662 13.7402 31.3662 9.81337V7.37848H31.3542Z"
        fill="#857371" />
    <path d="M33.75 18.1207H5V20.5078H33.75V18.1207Z" fill="#857371" />
    <path d="M31.3542 3.78564H7.39587V6.1728H31.3542V3.78564Z" fill="#857371" />
    <path
        d="M28.9305 16.8637L28.9305 16.8636C27.7375 14.8029 24.7625 14.8029 23.5695 16.8636L23.5695 16.8637L15.6693 30.5132C15.6693 30.5133 15.6692 30.5133 15.6692 30.5133C14.4761 32.5744 15.9627 35.1618 18.3498 35.1618H34.1502C36.5374 35.1618 38.024 32.5744 36.8307 30.5132L28.9305 16.8637ZM26.25 25.8176C26.2396 25.8176 26.2281 25.8142 26.2161 25.8023C26.2042 25.7903 26.2008 25.7788 26.2008 25.7684V23.6701C26.2008 23.6597 26.2042 23.6482 26.2161 23.6362C26.2281 23.6243 26.2396 23.6209 26.25 23.6209C26.2604 23.6209 26.2719 23.6243 26.2839 23.6362C26.2958 23.6482 26.2992 23.6597 26.2992 23.6701V25.7684C26.2992 25.7788 26.2958 25.7903 26.2839 25.8023C26.2719 25.8142 26.2604 25.8176 26.25 25.8176ZM26.2008 30.0143V29.9159H26.2992V30.0143H26.2008Z"
        fill="#C00016" stroke="#FBEEEC" stroke-width="2" />
</svg>
