<svg width="248" height="250" viewBox="0 0 248 250" fill="none" xmlns="http://www.w3.org/2000/svg">
<path d="M121.984 235.42C186.751 235.42 239.255 232.354 239.255 228.571C239.255 224.789 186.751 221.723 121.984 221.723C57.2166 221.723 4.71228 224.789 4.71228 228.571C4.71228 232.354 57.2166 235.42 121.984 235.42Z" fill="#F5F5F5"/>
<path d="M169.378 59.0605C167.068 57.6125 160.433 59.0478 161.536 66.3397C162.639 73.6317 154.089 71.7355 155.951 80.1821C157.813 88.6292 172.93 101.169 182.239 92.6532C191.548 84.1371 183.705 80.3792 183.878 70.273C183.98 64.2633 181.255 53.5093 169.378 59.0605Z" fill="#263238"/>
<path d="M184.415 91.4587C184.407 91.4387 184.51 91.5978 184.576 91.6867L184.822 92.0127C184.998 92.2377 185.183 92.4627 185.383 92.6865C185.78 93.1323 186.215 93.5653 186.677 93.9784C187.587 94.8204 188.597 95.5922 189.675 96.2829C190.765 96.9555 191.885 97.6117 193.079 98.1543C193.663 98.45 194.282 98.6829 194.883 98.9532C194.998 99.0047 194.896 98.9732 194.809 99.0022C194.713 99.0252 194.663 99.0905 194.728 99.0537C194.858 98.9938 195.178 98.6067 195.419 98.1295C195.674 97.648 195.894 97.0728 196.101 96.4758C196.51 95.271 196.808 93.9561 197.087 92.6272C197.359 91.2942 197.571 89.9309 197.758 88.5597C197.965 87.194 198.115 85.7944 198.266 84.4353L200.725 84.4486C200.929 87.3512 200.912 90.2073 200.664 93.1341C200.546 94.5978 200.335 96.0663 199.98 97.5797C199.799 98.3387 199.565 99.1039 199.227 99.9035C198.869 100.695 198.456 101.558 197.502 102.415C197.03 102.834 196.327 103.226 195.534 103.366C194.75 103.52 193.926 103.376 193.381 103.18C192.672 102.928 191.95 102.713 191.249 102.424C189.839 101.874 188.459 101.207 187.127 100.434C185.802 99.644 184.528 98.7397 183.333 97.7018C182.742 97.1762 182.177 96.6083 181.637 96.0004C181.367 95.6974 181.104 95.3762 180.847 95.0442L180.473 94.5125C180.34 94.3099 180.247 94.1756 180.063 93.8496L184.415 91.4587Z" fill="#FFC3BD"/>
<path d="M183.586 89.2154C189.243 92.8256 188.782 95.0508 188.782 95.0508L185.228 100.197C185.228 100.197 176.165 96.5599 175.593 93.7172C174.996 90.7565 180.843 87.4644 183.586 89.2154Z" fill="#263238"/>
<path opacity="0.1" d="M183.586 89.2154C189.243 92.8256 188.782 95.0508 188.782 95.0508L185.228 100.197C185.228 100.197 176.165 96.5599 175.593 93.7172C174.996 90.7565 180.843 87.4644 183.586 89.2154Z" fill="white"/>
<path d="M189.091 94.5422C189.311 94.6958 189.365 94.9982 189.211 95.2178L185.571 100.428C185.418 100.647 185.115 100.701 184.896 100.548C184.676 100.394 184.622 100.092 184.776 99.872L188.416 94.6619C188.569 94.4424 188.872 94.3885 189.091 94.5422Z" fill="#C00016"/>
<path d="M198.696 85.6208L195.891 81.8714L201.273 80.4827C201.273 80.4827 202.368 83.8238 200.578 86.2698L198.696 85.6208Z" fill="#FFC3BD"/>
<path d="M196.039 77.2625L200.521 76.5059L201.273 80.4827L195.891 81.8714L196.039 77.2625Z" fill="#FFC3BD"/>
<path d="M150.436 223.344L155.568 223.84L159.233 211.784L154.102 211.289L150.436 223.344Z" fill="#FFC3BD"/>
<path d="M117.807 205.522L121.612 209.093L129.824 200.067L126.021 196.496L117.807 205.522Z" fill="#FFC3BD"/>
<path d="M123.368 207.38L120.509 202.229C120.405 202.042 120.19 201.962 119.992 202.037L115.591 203.712C115.135 203.885 114.936 204.471 115.184 204.899C116.212 206.678 116.797 207.485 118.055 209.75C118.828 211.144 120.335 214.34 121.403 216.264C122.447 218.146 124.43 217.235 124.158 216.338C122.937 212.316 123.166 210.077 123.511 208.303C123.573 207.983 123.52 207.654 123.368 207.38Z" fill="#263238"/>
<path d="M156.174 222.274H149.953C149.727 222.274 149.522 222.432 149.462 222.652L148.109 227.574C147.969 228.084 148.345 228.554 148.868 228.559C151.06 228.579 152.099 228.569 154.835 228.569C156.518 228.569 160.872 228.569 163.196 228.569C165.469 228.569 165.944 226.271 165.004 226.063C160.787 225.13 158.356 223.843 157.054 222.615C156.82 222.394 156.505 222.274 156.174 222.274Z" fill="#263238"/>
<path opacity="0.2" d="M159.231 211.787L157.342 218.001H152.059L154.098 211.292L159.231 211.787Z" fill="black"/>
<path opacity="0.2" d="M126.017 196.497L129.823 200.07L125.588 204.721L121.782 201.148L126.017 196.497Z" fill="black"/>
<path d="M183.586 89.2154C183.586 89.2154 185.641 90.6162 172.61 118.934C164.466 116.679 156.049 114.349 152.086 113.252C154.743 104.994 156.179 99.8454 156.932 81.598C156.932 81.598 161.491 81.8533 165.965 82.8627C169.465 83.652 172.325 84.3252 175.285 85.443C179.187 86.9158 183.586 89.2154 183.586 89.2154Z" fill="#263238"/>
<path opacity="0.1" d="M183.586 89.2154C183.586 89.2154 185.641 90.6162 172.61 118.934C164.466 116.679 156.049 114.349 152.086 113.252C154.743 104.994 156.179 99.8454 156.932 81.598C156.932 81.598 161.491 81.8533 165.965 82.8627C169.465 83.652 172.325 84.3252 175.285 85.443C179.187 86.9158 183.586 89.2154 183.586 89.2154Z" fill="white"/>
<path d="M169.794 72.6234C169.551 75.7849 168.618 81.4413 165.965 82.8615C165.965 82.8615 164.424 88.1067 171.117 90.0325C176.78 91.6613 175.285 85.4418 175.285 85.4418C172.162 83.7174 174.092 80.6629 174.663 77.2438L169.794 72.6234Z" fill="#FFC3BD"/>
<path opacity="0.2" d="M169.792 72.6252C169.599 75.1631 168.96 79.3214 167.334 81.5865C169.221 81.7728 172.199 81.1951 173.043 79.7931C173.266 79.4332 173.707 78.0494 174.092 76.7024L169.792 72.6252Z" fill="black"/>
<path d="M178.095 68.0429C178.081 73.247 178.186 75.4498 175.723 78.2653C172.019 82.4998 165.63 81.3446 164.089 76.2409C162.702 71.6472 162.958 63.9089 167.913 61.5476C172.794 59.2208 178.109 62.8389 178.095 68.0429Z" fill="#FFC3BD"/>
<path d="M167.334 65.1579C170.256 69.2387 180.082 74.9139 180.742 69.4456C181.401 63.9772 176.381 58.5748 171.412 59.0956C166.443 59.6163 164.848 61.6849 167.334 65.1579Z" fill="#263238"/>
<path d="M180.25 72.9016C179.781 73.8736 178.908 74.5383 178.066 74.8171C176.8 75.2369 176.104 74.1198 176.403 72.8919C176.672 71.7869 177.655 70.2367 178.951 70.3504C180.228 70.4617 180.786 71.7905 180.25 72.9016Z" fill="#FFC3BD"/>
<path d="M172.61 118.933C172.61 118.933 179.916 148.528 175.124 170.916C171.915 185.91 160.34 216.199 160.34 216.199L151.29 215.967C151.29 215.967 160.052 184.18 161.863 171.679C164.962 150.296 157.58 114.772 157.58 114.772L172.61 118.933Z" fill="#C00016"/>
<path opacity="0.2" d="M164.46 123.185L159.935 130.322C161.086 137.722 162.232 146.978 162.524 155.885C168.887 144.493 165.875 129.217 164.46 123.185Z" fill="black"/>
<path d="M161.957 216.669L150.436 216.383L151.207 212.286L162.8 213.155L161.957 216.669Z" fill="#263238"/>
<path d="M168.111 117.753C168.111 117.753 163.887 150.112 154.759 168.498C147.386 183.348 127.71 204.488 127.71 204.488L122.68 199.306C122.68 199.306 135.97 176.331 141.449 166.467C154.886 142.278 142.975 120.591 152.086 113.252L168.111 117.753Z" fill="#C00016"/>
<path d="M128.22 205.181L121.728 198.853L123.882 195.923L130.957 203.237L128.22 205.181Z" fill="#263238"/>
<path d="M152.112 111.961L150.678 113.543C150.567 113.665 150.696 113.857 150.933 113.923L172.457 119.882C172.642 119.933 172.821 119.885 172.864 119.772L173.558 117.986C173.606 117.862 173.475 117.71 173.273 117.654L152.49 111.9C152.337 111.858 152.184 111.883 152.112 111.961Z" fill="#C00016"/>
<path opacity="0.5" d="M152.112 111.961L150.678 113.543C150.567 113.665 150.696 113.857 150.933 113.923L172.457 119.882C172.642 119.933 172.821 119.885 172.864 119.772L173.558 117.986C173.606 117.862 173.475 117.71 173.273 117.654L152.49 111.9C152.337 111.858 152.184 111.883 152.112 111.961Z" fill="white"/>
<path d="M154.26 115.058L153.703 114.904C153.593 114.873 153.524 114.793 153.551 114.725L154.473 112.41C154.5 112.343 154.612 112.312 154.723 112.343L155.28 112.497C155.39 112.528 155.459 112.609 155.432 112.676L154.51 114.991C154.484 115.059 154.371 115.089 154.26 115.058Z" fill="#C00016"/>
<path d="M170.837 119.648L170.281 119.494C170.17 119.463 170.101 119.382 170.128 119.315L171.05 117C171.077 116.932 171.19 116.902 171.301 116.933L171.857 117.087C171.968 117.118 172.037 117.198 172.01 117.266L171.088 119.581C171.061 119.648 170.948 119.678 170.837 119.648Z" fill="#C00016"/>
<path d="M162.549 117.353L161.992 117.199C161.881 117.168 161.812 117.087 161.84 117.02L162.761 114.705C162.789 114.637 162.901 114.607 163.012 114.638L163.568 114.792C163.679 114.823 163.748 114.903 163.721 114.971L162.799 117.286C162.772 117.354 162.659 117.384 162.549 117.353Z" fill="#C00016"/>
<path d="M171.898 66.8684C171.83 66.8859 171.755 66.8684 171.702 66.8158C170.901 66.0319 170.004 66.2127 169.966 66.2206C169.855 66.2442 169.746 66.174 169.721 66.0627C169.697 65.9515 169.766 65.8432 169.877 65.8172C169.924 65.8069 171.025 65.5752 171.991 66.52C172.072 66.5998 172.074 66.7305 171.994 66.8121C171.967 66.8406 171.933 66.8593 171.898 66.8684Z" fill="#263238"/>
<path d="M157.41 89.3938C156.882 90.1904 156.403 90.8297 155.869 91.5077C155.342 92.1706 154.804 92.819 154.248 93.4535C153.131 94.7164 151.94 95.9109 150.689 97.0462C149.442 98.1857 148.132 99.2629 146.733 100.236C146.053 100.743 145.319 101.187 144.602 101.647L143.488 102.287L142.929 102.603C142.726 102.711 142.459 102.855 142.202 102.96C141.18 103.419 139.866 103.658 138.621 103.43C137.371 103.215 136.319 102.615 135.512 101.955C134.692 101.29 134.078 100.539 133.543 99.7867C133.014 99.0289 132.562 98.2625 132.181 97.4787C130.667 94.3383 129.782 91.1793 129.223 87.8696L131.619 87.3143C132.119 88.7526 132.682 90.2424 133.317 91.6444C133.933 93.0597 134.623 94.4333 135.416 95.6738C136.194 96.9035 137.104 98.0533 138.031 98.6829C138.489 99.0004 138.912 99.1553 139.256 99.1752C139.601 99.1922 139.932 99.1268 140.359 98.9061C140.471 98.8535 140.554 98.7972 140.699 98.7095L141.17 98.4029L142.109 97.7871C142.713 97.3371 143.336 96.9246 143.922 96.4444C145.116 95.5268 146.245 94.5101 147.347 93.4674C148.449 92.4228 149.488 91.3033 150.484 90.1529C150.987 89.5813 151.474 88.997 151.947 88.4049C152.402 87.8218 152.894 87.1825 153.27 86.6533L157.41 89.3938Z" fill="#FFC3BD"/>
<path d="M132.127 89.5413L132.658 83.8988L127.587 85.9746C127.587 85.9746 128.193 88.8125 130.122 89.8256L132.127 89.5413Z" fill="#FFC3BD"/>
<path d="M131.038 80.8552L127.112 80L127.586 85.9746L132.658 83.8988L131.038 80.8552Z" fill="#FFC3BD"/>
<path d="M156.932 81.5974C154.291 81.5744 147.922 91.6879 147.922 91.6879L152.422 96.3422C152.422 96.3422 160.873 90.6319 161.219 87.249C161.512 84.3772 160.296 81.627 156.932 81.5974Z" fill="#263238"/>
<path opacity="0.1" d="M156.932 81.5974C154.291 81.5744 147.922 91.6879 147.922 91.6879L152.422 96.3422C152.422 96.3422 160.873 90.6319 161.219 87.249C161.512 84.3772 160.296 81.627 156.932 81.5974Z" fill="white"/>
<path d="M152.837 96.5472C152.65 96.7383 152.343 96.7413 152.151 96.5538L147.613 92.1047C147.422 91.9172 147.419 91.6099 147.607 91.4188C147.794 91.2276 148.101 91.2246 148.293 91.4121L152.831 95.8613C153.022 96.0482 153.025 96.3555 152.837 96.5472Z" fill="#C00016"/>
<path d="M124.371 210.149C124.523 210.149 124.675 210.092 124.827 209.978C124.988 209.856 125.012 209.711 125.004 209.611C124.95 208.955 123.288 208.066 123.099 207.967C123.062 207.948 123.018 207.952 122.985 207.978C122.953 208.004 122.94 208.047 122.951 208.087C123.139 208.754 123.547 209.905 124.169 210.115C124.236 210.138 124.303 210.149 124.371 210.149ZM123.221 208.269C123.791 208.593 124.765 209.226 124.798 209.628C124.801 209.674 124.796 209.742 124.702 209.813C124.539 209.935 124.387 209.97 124.235 209.919C123.881 209.8 123.509 209.191 123.221 208.269Z" fill="#C00016"/>
<path d="M124.628 208.529C124.941 208.529 125.216 208.476 125.373 208.342C125.457 208.271 125.58 208.11 125.468 207.832C125.395 207.654 125.265 207.53 125.08 207.465C124.371 207.214 123.056 207.937 123 207.968C122.968 207.986 122.947 208.019 122.947 208.056C122.946 208.093 122.965 208.127 122.996 208.146C123.314 208.341 124.038 208.529 124.628 208.529ZM124.728 207.618C124.831 207.618 124.928 207.631 125.012 207.66C125.141 207.706 125.227 207.787 125.277 207.91C125.342 208.071 125.291 208.141 125.24 208.185C124.932 208.445 123.84 208.298 123.277 208.058C123.587 207.906 124.239 207.618 124.728 207.618Z" fill="#C00016"/>
<path d="M158.934 223.281C159.411 223.281 159.853 223.207 160.135 222.994C160.325 222.851 160.429 222.655 160.443 222.412C160.452 222.237 160.368 222.142 160.296 222.093C159.729 221.708 157.47 222.751 157.215 222.871C157.175 222.89 157.151 222.932 157.156 222.976C157.161 223.02 157.193 223.056 157.236 223.066C157.686 223.165 158.337 223.281 158.934 223.281ZM159.927 222.209C160.037 222.209 160.124 222.226 160.179 222.264C160.209 222.283 160.241 222.316 160.236 222.401C160.225 222.582 160.152 222.723 160.01 222.83C159.5 223.215 158.261 223.053 157.59 222.927C158.364 222.587 159.407 222.209 159.927 222.209Z" fill="#C00016"/>
<path d="M157.258 223.068C157.271 223.068 157.285 223.065 157.297 223.06C157.977 222.782 159.4 221.64 159.323 221.073C159.307 220.952 159.223 220.8 158.916 220.763C157.698 220.623 157.179 222.847 157.158 222.942C157.149 222.979 157.162 223.018 157.192 223.043C157.21 223.059 157.234 223.068 157.258 223.068ZM158.805 220.962C158.834 220.962 158.862 220.964 158.891 220.968C159.103 220.993 159.114 221.074 159.118 221.1C159.167 221.463 158.15 222.391 157.415 222.776C157.567 222.257 158.024 220.962 158.805 220.962Z" fill="#C00016"/>
<path d="M63.0163 225.831L131.422 219.853C136.049 219.449 139.504 215.333 139.1 210.706L124.841 47.528C124.437 42.901 120.321 39.4462 115.693 39.8508L47.2874 45.8278C42.6604 46.2319 39.2056 50.3484 39.6102 54.9754L53.8687 218.153C54.2727 222.78 58.3893 226.235 63.0163 225.831Z" fill="#F1F1F1"/>
<path d="M44.7472 103.157C46.0639 103.042 47.0474 101.87 46.9324 100.553L45.0496 79.0051C44.9347 77.6884 43.7631 76.7049 42.4458 76.8198C41.129 76.9347 40.1456 78.1063 40.2605 79.4236L42.1433 100.972C42.2589 102.288 43.4304 103.272 44.7472 103.157Z" fill="#F1F1F1"/>
<path d="M128.289 86.1518L129.13 86.078C130.107 85.9928 130.837 85.123 130.752 84.1462L129.602 70.9946C129.517 70.0171 128.647 69.2877 127.671 69.373L126.83 69.4462C125.852 69.5315 125.123 70.4012 125.208 71.378L126.357 84.5302C126.442 85.5077 127.311 86.2377 128.289 86.1518Z" fill="#424242"/>
<path d="M130.219 108.239L131.06 108.166C132.037 108.08 132.767 107.211 132.682 106.234L131.532 93.0821C131.447 92.1047 130.578 91.3752 129.601 91.4605L128.759 91.5337C127.782 91.619 127.052 92.4887 127.138 93.4656L128.287 106.618C128.372 107.595 129.241 108.325 130.219 108.239Z" fill="#424242"/>
<path d="M64.4552 225.705L132.861 219.727C137.488 219.323 140.943 215.207 140.539 210.58L126.28 47.4022C125.876 42.7752 121.759 39.3204 117.132 39.725L48.7264 45.702C44.0994 46.1061 40.6445 50.2226 41.0492 54.8496L55.3076 218.028C55.7117 222.654 59.8282 226.109 64.4552 225.705Z" fill="#7D7D7D"/>
<path opacity="0.4" d="M57.7209 215.535L137.729 208.543C138.599 208.467 139.242 207.701 139.166 206.831L125.604 51.6258C125.528 50.7561 124.762 50.1125 123.892 50.1887L43.884 57.1801C43.0143 57.2563 42.3707 58.0226 42.4469 58.8924L56.0086 214.098C56.0842 214.967 56.8512 215.611 57.7209 215.535Z" fill="#F1F1F1"/>
<path opacity="0.3" d="M113.331 51.1111L103.277 211.554L86.5554 213.016L96.6084 52.5724L113.331 51.1111Z" fill="#F1F1F1"/>
<path opacity="0.2" d="M91.8206 45.9579L74.7363 47.4506C74.3419 47.4851 74.0474 47.8359 74.0818 48.2303L74.1423 48.9246C74.1768 49.319 74.5276 49.6135 74.922 49.5791L92.0062 48.0863C92.4006 48.0518 92.6951 47.701 92.6607 47.3067L92.6002 46.6123C92.5657 46.218 92.2149 45.9234 91.8206 45.9579Z" fill="white"/>
<path d="M75.8934 108.135H159.125C163.615 108.135 167.289 111.809 167.289 116.299V157.121C167.289 161.612 163.615 165.286 159.125 165.286H130.326L117.509 178.102L104.693 165.286H75.894C71.4036 165.286 67.7299 161.612 67.7299 157.121V116.299C67.7293 111.809 71.403 108.135 75.8934 108.135Z" fill="#201A19"/>
<path opacity="0.3" d="M75.8934 108.135H159.125C163.615 108.135 167.289 111.809 167.289 116.299V157.121C167.289 161.612 163.615 165.286 159.125 165.286H130.326L117.509 178.102L104.693 165.286H75.894C71.4036 165.286 67.7299 161.612 67.7299 157.121V116.299C67.7293 111.809 71.403 108.135 75.8934 108.135Z" fill="white"/>
<path d="M81.2311 122.284V151.137C81.2311 153.485 83.1091 155.405 85.4051 155.405H149.613C151.909 155.405 153.787 153.484 153.787 151.137V122.284C153.787 121.722 153.679 121.181 153.481 120.69C152.862 119.125 151.359 118.015 149.613 118.015H85.4051C83.6625 118.015 82.1559 119.125 81.5371 120.686C81.3381 121.181 81.2311 121.718 81.2311 122.284Z" fill="white"/>
<path opacity="0.1" d="M81.5371 120.686L112.579 134.206C115.73 135.579 119.292 135.579 122.443 134.206L153.481 120.689C152.862 119.124 151.359 118.014 149.613 118.014H85.405C83.6619 118.015 82.1559 119.125 81.5371 120.686Z" fill="black"/>
<path d="M82.9278 120.535C87.7742 115.689 87.7742 107.831 82.9278 102.985C78.0814 98.1383 70.2238 98.1383 65.3775 102.985C60.5311 107.831 60.5311 115.689 65.3775 120.535C70.2239 125.381 78.0814 125.381 82.9278 120.535Z" fill="#C00016"/>
<path d="M79.1358 110.465V113.015C79.1358 114.121 79.0177 115.075 78.7816 115.878C78.5456 116.674 78.2049 117.328 77.7597 117.841C77.3213 118.347 76.7985 118.721 76.1914 118.964C75.5843 119.207 74.9098 119.328 74.1678 119.328C73.5742 119.328 73.0211 119.254 72.5084 119.106C71.9958 118.95 71.5337 118.711 71.1222 118.387C70.7175 118.063 70.3667 117.655 70.0699 117.163C69.7799 116.664 69.5573 116.07 69.4022 115.382C69.247 114.694 69.1694 113.905 69.1694 113.015V110.465C69.1694 109.359 69.2875 108.411 69.5236 107.622C69.7664 106.826 70.107 106.175 70.5455 105.669C70.9907 105.163 71.5168 104.792 72.1239 104.556C72.731 104.313 73.4056 104.192 74.1475 104.192C74.7411 104.192 75.2909 104.269 75.7968 104.424C76.3094 104.573 76.7715 104.805 77.183 105.122C77.5944 105.439 77.9452 105.848 78.2353 106.347C78.5253 106.839 78.7479 107.429 78.9031 108.117C79.0582 108.799 79.1358 109.581 79.1358 110.465ZM76.2116 113.399V110.07C76.2116 109.537 76.1813 109.072 76.1206 108.674C76.0666 108.276 75.9823 107.939 75.8676 107.662C75.753 107.379 75.6113 107.149 75.4427 106.974C75.274 106.799 75.0818 106.67 74.8659 106.59C74.6501 106.509 74.4106 106.468 74.1475 106.468C73.817 106.468 73.5236 106.532 73.2673 106.66C73.0177 106.789 72.8052 106.994 72.6298 107.278C72.4544 107.554 72.3195 107.925 72.2251 108.391C72.1374 108.849 72.0936 109.409 72.0936 110.07V113.399C72.0936 113.932 72.1205 114.401 72.1745 114.805C72.2352 115.21 72.3229 115.558 72.4376 115.848C72.559 116.131 72.7007 116.364 72.8625 116.546C73.0312 116.721 73.2234 116.849 73.4393 116.93C73.6619 117.011 73.9047 117.052 74.1678 117.052C74.4916 117.052 74.7782 116.988 75.0278 116.859C75.2841 116.724 75.5 116.515 75.6754 116.232C75.8575 115.942 75.9924 115.564 76.0801 115.099C76.1678 114.633 76.2116 114.067 76.2116 113.399Z" fill="white"/>
<path d="M143.98 34.8289C143.104 34.8289 142.336 34.1889 142.202 33.2962C140.494 21.9525 129.878 14.1125 118.533 15.8188C117.549 15.967 116.632 15.2896 116.485 14.3067C116.336 13.3232 117.014 12.4063 117.997 12.2581C131.306 10.2555 143.76 19.4533 145.762 32.7597C145.911 33.7432 145.233 34.6601 144.25 34.8077C144.16 34.8228 144.069 34.8289 143.98 34.8289Z" fill="#C00016"/>
<path d="M135.039 36.1746C134.162 36.1746 133.395 35.5347 133.26 34.6419C132.295 28.2282 126.291 23.796 119.878 24.7607C118.895 24.9089 117.978 24.2315 117.83 23.2486C117.682 22.2651 118.36 21.3482 119.342 21.2006C127.719 19.9401 135.561 25.7296 136.821 34.1067C136.969 35.0901 136.292 36.0071 135.309 36.1546C135.218 36.168 135.128 36.1746 135.039 36.1746Z" fill="#C00016"/>
<path d="M126.097 37.5204C125.221 37.5204 124.453 36.8799 124.319 35.9877C124.211 35.2692 123.83 34.6359 123.245 34.2041C122.661 33.7728 121.944 33.5944 121.224 33.7026C120.241 33.8508 119.324 33.1734 119.176 32.1899C119.028 31.2065 119.705 30.2895 120.689 30.142C122.36 29.8903 124.026 30.3047 125.384 31.3075C126.742 32.3103 127.629 33.7825 127.88 35.4518C128.028 36.4347 127.35 37.3522 126.368 37.4998C126.277 37.5137 126.186 37.5204 126.097 37.5204Z" fill="#C00016"/>
</svg>
