<svg width="294" height="220" viewBox="0 0 294 220" fill="none" xmlns="http://www.w3.org/2000/svg">
<g clip-path="url(#clip0_3455_2910)">
<path d="M214.678 208.782H208.828L206.044 186.219H214.678V208.782Z" fill="#9E616A"/>
<path d="M217.765 218.918H213.57L212.821 214.957L210.904 218.918H199.777C199.244 218.918 198.724 218.748 198.295 218.431C197.865 218.115 197.548 217.67 197.389 217.161C197.23 216.652 197.239 216.105 197.413 215.601C197.587 215.097 197.917 214.662 198.356 214.359L207.241 208.222V204.218L216.587 204.776L217.765 218.918Z" fill="#2F2E41"/>
<path d="M249.432 201.4L244.737 204.891L229.04 188.446L235.968 183.294L249.432 201.4Z" fill="#9E616A"/>
<path d="M257.957 207.691L254.591 210.194L251.626 207.463L252.451 211.785L243.523 218.425C243.095 218.743 242.576 218.916 242.043 218.919C241.509 218.922 240.989 218.754 240.558 218.44C240.127 218.126 239.807 217.682 239.646 217.174C239.485 216.666 239.49 216.119 239.661 215.614L243.13 205.388L240.74 202.175L248.573 197.046L257.957 207.691Z" fill="#2F2E41"/>
<path d="M221.488 92.3675C221.488 92.3675 232.588 101.957 227.467 129.293L221.215 156.078L241.604 189.903L235.103 197.812L208.596 161.2L198.991 138.669L196.296 98.5685L221.488 92.3675Z" fill="#2F2E41"/>
<path d="M204.285 145.09L203.618 155.429L205.661 199.486L215.274 197.812L217.111 166.444L204.285 145.09Z" fill="#2F2E41"/>
<path d="M80.9187 214.088L86.1501 214.087L88.6385 193.909L80.918 193.91L80.9187 214.088Z" fill="#FFB6B6"/>
<path d="M79.5845 212.38L81.0569 212.38L86.8057 210.042L89.8868 212.379H89.8872C91.6284 212.379 93.2983 213.071 94.5296 214.302C95.7608 215.533 96.4525 217.203 96.4527 218.944V219.158L79.5848 219.158L79.5845 212.38Z" fill="#2F2E41"/>
<path d="M101.191 210.791L106.294 211.943L113.166 192.809L105.635 191.108L101.191 210.791Z" fill="#FFB6B6"/>
<path d="M100.266 208.831L101.702 209.155L107.825 208.141L110.315 211.1L110.316 211.1C112.014 211.484 113.491 212.526 114.42 213.998C115.35 215.471 115.657 217.252 115.274 218.95L115.227 219.158L98.7729 215.443L100.266 208.831Z" fill="#2F2E41"/>
<path d="M74.2933 90.7304C71.8406 98.1276 72.0999 106.157 74.8828 114.775L76.0725 163.296C76.0725 163.296 74.3 195.115 80.0195 206.312H88.3143L92.4212 160.39L92.9369 129.567L110.72 155.571L99.3934 205.561L109.602 206.474L127.983 152.223L105.305 99.5909L74.2933 90.7304Z" fill="#2F2E41"/>
<path d="M169.951 69.66C176.295 63.9427 185.732 61.068 193.648 64.2738C185.528 68.782 179.264 76.0171 175.965 84.699C174.705 88.0518 173.653 91.9122 170.553 93.7072C168.624 94.8242 166.225 94.8787 164.062 94.3396C161.9 93.8003 159.918 92.7194 157.962 91.6493L157.406 91.6367C159.903 83.4694 163.606 75.3773 169.951 69.66Z" fill="#E6E6E6"/>
<path d="M193.604 64.4475C186.593 65.3535 180.046 68.4455 174.893 73.2843C173.765 74.3063 172.805 75.4997 172.049 76.8206C171.354 78.1311 171.022 79.6038 171.089 81.0858C171.123 82.4688 171.318 83.8795 171.016 85.2468C170.85 85.9444 170.539 86.5992 170.103 87.1682C169.667 87.7372 169.116 88.2076 168.485 88.5486C166.936 89.4391 165.159 89.7198 163.412 89.9339C161.473 90.1717 159.454 90.3879 157.775 91.476C157.571 91.6078 157.379 91.2844 157.582 91.1528C160.503 89.2598 164.2 89.9486 167.341 88.6852C168.807 88.0957 170.104 87.0609 170.563 85.4964C170.964 84.1283 170.764 82.6734 170.718 81.2733C170.632 79.8286 170.901 78.3847 171.501 77.0679C172.188 75.7128 173.1 74.4844 174.199 73.4353C176.635 71.0341 179.433 69.0308 182.491 67.4988C185.972 65.7311 189.729 64.5717 193.601 64.071C193.84 64.0401 193.842 64.4168 193.604 64.4475Z" fill="white"/>
<path d="M176.46 71.6286C175.766 70.6537 175.44 69.4637 175.542 68.2711C175.644 67.0786 176.167 65.961 177.016 65.1181C177.189 64.9482 177.461 65.2083 177.288 65.3785C176.496 66.162 176.009 67.203 175.916 68.3137C175.824 69.4244 176.131 70.5317 176.783 71.4356C176.925 71.6322 176.601 71.824 176.46 71.6286Z" fill="white"/>
<path d="M170.979 80.3868C173.388 80.8137 175.87 80.3168 177.929 78.9952C178.133 78.8641 178.325 79.1875 178.122 79.3184C175.976 80.6897 173.393 81.2015 170.887 80.7518C170.648 80.7088 170.741 80.344 170.979 80.3868Z" fill="white"/>
<path d="M186.002 66.2292C186.192 66.6624 186.487 67.0416 186.86 67.3327C187.233 67.6239 187.672 67.8178 188.139 67.8972C188.378 67.9372 188.284 68.3019 188.047 68.2622C187.532 68.1721 187.047 67.9573 186.634 67.6366C186.221 67.3158 185.894 66.8989 185.679 66.4222C185.655 66.379 185.649 66.3282 185.661 66.2803C185.673 66.2324 185.703 66.1908 185.744 66.1641C185.787 66.1388 185.838 66.1314 185.887 66.1436C185.935 66.1558 185.977 66.1866 186.002 66.2292Z" fill="white"/>
<path d="M202.365 91.8453C202.215 91.8245 202.065 91.8038 201.913 91.7854C199.893 91.5174 197.855 91.4138 195.819 91.4758C195.661 91.4781 195.502 91.4828 195.344 91.4896C190.44 91.6913 185.616 92.8018 181.116 94.7647C179.327 95.5474 177.599 96.4651 175.949 97.5099C173.67 98.9529 171.314 100.699 168.766 101.287C168.501 101.352 168.232 101.4 167.961 101.431L157.434 92.3163C157.421 92.2836 157.405 92.2531 157.392 92.2203L156.955 91.8756C157.036 91.8158 157.122 91.7555 157.203 91.6956C157.25 91.6607 157.299 91.6279 157.346 91.593C157.379 91.5703 157.411 91.5478 157.438 91.5256C157.449 91.518 157.46 91.5105 157.468 91.5053C157.496 91.4831 157.524 91.4653 157.55 91.4455C158.028 91.1071 158.509 90.7715 158.993 90.4386C158.995 90.4362 158.995 90.4362 159 90.4358C162.666 87.8642 166.624 85.7365 170.791 84.0973C170.916 84.0501 171.043 84.0004 171.173 83.9573C173.05 83.2595 174.981 82.7162 176.946 82.3329C178.023 82.1265 179.109 81.9748 180.201 81.8782C183.024 81.6342 185.867 81.8356 188.627 82.4751C194.128 83.7508 199.16 86.7718 202.141 91.4831C202.217 91.6036 202.291 91.7223 202.365 91.8453Z" fill="#E6E6E6"/>
<path d="M202.226 91.9584C196.082 88.4608 188.993 86.9877 181.965 87.7485C180.449 87.8854 178.964 88.2604 177.565 88.8597C176.221 89.4876 175.07 90.4638 174.231 91.6872C173.425 92.8121 172.732 94.056 171.667 94.9655C171.115 95.423 170.473 95.7587 169.782 95.9505C169.091 96.1423 168.368 96.1859 167.659 96.0785C165.886 95.8568 164.298 95.0112 162.774 94.1303C161.083 93.1523 159.341 92.1096 157.345 91.9674C157.103 91.9501 157.144 91.5759 157.385 91.5931C160.858 91.8406 163.395 94.6162 166.663 95.4987C168.188 95.9105 169.847 95.8652 171.156 94.8924C172.3 94.0417 173.016 92.7596 173.822 91.6135C174.623 90.4081 175.707 89.4173 176.979 88.7274C178.343 88.0588 179.811 87.6272 181.32 87.4511C184.711 87.0005 188.151 87.0858 191.515 87.7039C195.359 88.388 199.057 89.7246 202.449 91.6557C202.659 91.7753 202.434 92.0772 202.226 91.9584Z" fill="white"/>
<path d="M184.214 87.3703C184.246 86.1738 184.703 85.0278 185.502 84.137C186.302 83.2461 187.392 82.6684 188.578 82.5071C188.818 82.4752 188.879 82.8468 188.638 82.8787C187.534 83.0269 186.518 83.5652 185.776 84.3962C185.033 85.2273 184.612 86.2965 184.588 87.4108C184.583 87.653 184.209 87.6111 184.214 87.3703Z" fill="white"/>
<path d="M174.564 91.063C176.231 92.8544 178.511 93.9517 180.951 94.1363C181.193 94.1544 181.152 94.5286 180.91 94.5105C178.372 94.3137 176.001 93.1669 174.271 91.299C174.106 91.1208 174.4 90.8858 174.564 91.063Z" fill="white"/>
<path d="M195.083 88.8042C194.974 89.2645 194.981 89.7447 195.104 90.2016C195.226 90.6586 195.46 91.078 195.785 91.4221C195.952 91.5981 195.657 91.8329 195.491 91.6581C195.135 91.2762 194.877 90.8127 194.74 90.3082C194.604 89.8036 194.593 89.2733 194.709 88.7637C194.716 88.7147 194.741 88.6702 194.78 88.6392C194.818 88.6082 194.867 88.5931 194.916 88.5968C194.966 88.6024 195.011 88.6273 195.042 88.6662C195.074 88.705 195.088 88.7546 195.083 88.8042Z" fill="white"/>
<path d="M17.4734 213.721C16.9792 215.575 15.6808 217.119 14.1132 218.243C13.8576 218.427 13.5952 218.598 13.3294 218.758C13.2476 218.806 13.1658 218.857 13.0806 218.901C12.9886 218.956 12.8966 219.007 12.8045 219.055H5.43327C5.30037 218.785 5.17087 218.513 5.04137 218.243C1.88225 211.605 -0.336285 204.441 0.0419907 197.145C0.192067 194.315 0.786634 191.526 1.80387 188.881C3.82816 183.609 7.52232 179.046 12.6035 176.749C12.7296 176.691 12.8625 176.633 12.992 176.579C12.9511 176.725 12.9102 176.868 12.8693 177.015C12.3242 178.979 11.939 180.983 11.7174 183.009C11.697 183.166 11.6799 183.323 11.6663 183.483C11.1822 188.369 11.6121 193.303 12.934 198.031C12.9375 198.041 12.9408 198.055 12.9443 198.065C13.234 199.112 13.5702 200.142 13.953 201.156C14.2529 201.957 14.5767 202.748 14.9311 203.525C16.4101 206.786 18.3935 210.262 17.4734 213.721Z" fill="#E6E6E6"/>
<path d="M13.0839 176.732C13.0123 176.827 12.9407 176.919 12.8692 177.015C11.3724 178.998 10.1013 181.143 9.0796 183.408C9.02507 183.52 8.97395 183.633 8.92965 183.749C7.52968 186.912 6.63059 190.274 6.26468 193.713C6.26072 193.737 6.25844 193.761 6.25787 193.785C6.17267 194.589 6.12155 195.4 6.1011 196.211C6.02532 197.732 6.18978 199.254 6.58843 200.723C6.95192 201.923 7.58886 203.022 8.44914 203.934C8.53434 204.026 8.61953 204.118 8.71155 204.206C8.77971 204.278 8.85468 204.349 8.92624 204.418C9.61463 205.075 10.3678 205.685 11.0153 206.391C11.3121 206.707 11.5801 207.049 11.8161 207.413C12.1929 208.023 12.4363 208.706 12.5302 209.417C12.6242 210.127 12.5667 210.85 12.3614 211.537C11.8979 213.261 10.8381 214.716 9.75436 216.103C9.21251 216.799 8.65361 217.501 8.16969 218.243C7.99249 218.509 7.8289 218.779 7.67898 219.055H7.24958C7.39271 218.779 7.54948 218.509 7.71987 218.243C8.96375 216.284 10.7324 214.6 11.6492 212.443C12.2694 210.988 12.4568 209.339 11.673 207.911C11.4433 207.496 11.1653 207.109 10.8449 206.759C10.2213 206.053 9.47494 205.45 8.79677 204.813C8.62637 204.653 8.45938 204.489 8.29921 204.319C7.45003 203.456 6.79476 202.422 6.37716 201.286C5.90424 199.843 5.68066 198.329 5.71603 196.811C5.71603 195.843 5.76715 194.869 5.86257 193.901C5.87279 193.778 5.88642 193.652 5.90006 193.526C6.59698 187.436 8.91153 181.643 12.6034 176.749C12.6715 176.654 12.7431 176.562 12.8147 176.47C12.9612 176.279 13.2304 176.544 13.0839 176.732Z" fill="white"/>
<path d="M6.03786 193.933C4.85747 193.735 3.78598 193.123 3.01476 192.208C2.24354 191.293 1.8228 190.133 1.82768 188.936C1.82833 188.887 1.8479 188.841 1.88227 188.806C1.91664 188.771 1.96312 188.751 2.01192 188.75C2.06071 188.749 2.10802 188.767 2.14387 188.8C2.17972 188.834 2.20131 188.879 2.2041 188.928C2.1975 190.043 2.58952 191.123 3.30943 191.974C4.02933 192.825 5.02968 193.39 6.12994 193.568C6.36899 193.607 6.27555 193.972 6.03786 193.933Z" fill="white"/>
<path d="M8.35489 204.002C10.3603 202.6 11.7637 200.494 12.2853 198.104C12.3367 197.867 12.7017 197.959 12.6502 198.196C12.1029 200.683 10.638 202.871 8.54786 204.325C8.34855 204.464 8.15666 204.14 8.35489 204.002Z" fill="white"/>
<path d="M8.96691 183.368C9.40764 183.54 9.88416 183.6 10.3537 183.542C10.8232 183.484 11.271 183.311 11.6569 183.037C11.8544 182.896 12.046 183.22 11.8499 183.36C11.4221 183.661 10.9273 183.852 10.4087 183.917C9.8901 183.982 9.36347 183.919 8.87482 183.733C8.8273 183.719 8.78674 183.688 8.76139 183.646C8.73605 183.603 8.72782 183.553 8.73837 183.505C8.75081 183.456 8.78179 183.415 8.82458 183.389C8.86738 183.364 8.91852 183.356 8.96691 183.368Z" fill="white"/>
<path d="M38.6499 189.91C38.5306 190.002 38.4079 190.094 38.2886 190.19C36.6707 191.428 35.156 192.796 33.7595 194.279C33.6505 194.392 33.5414 194.507 33.4358 194.623L33.4324 194.627C30.1213 198.221 27.5032 202.397 25.7101 206.943L25.6999 206.974C25.6965 206.984 25.6931 206.991 25.6896 207.001C24.9789 208.821 24.4059 210.691 23.9755 212.597C23.5597 214.457 23.2189 216.451 22.568 218.243C22.4692 218.52 22.3601 218.792 22.2443 219.055H7.09277C7.14389 218.785 7.19842 218.513 7.25294 218.243C8.02369 214.295 9.2283 210.443 10.8449 206.759C10.8994 206.636 10.9539 206.513 11.0153 206.391C11.8498 204.57 12.8311 202.821 13.9495 201.16L13.9497 201.158L13.9504 201.157L13.9515 201.157L13.9529 201.156C14.567 200.25 15.2267 199.375 15.9294 198.536C17.752 196.367 19.905 194.499 22.309 193.001C22.3226 192.991 22.3397 192.984 22.3533 192.974C27.138 190.006 32.8087 188.591 38.2307 189.815H38.2341C38.3738 189.846 38.5101 189.876 38.6499 189.91Z" fill="#E6E6E6"/>
<path d="M38.6328 190.091C38.517 190.122 38.4011 190.156 38.2886 190.19C35.9002 190.872 33.5949 191.817 31.4149 193.008C31.3059 193.066 31.1968 193.127 31.0877 193.189C28.075 194.87 25.3403 197.007 22.9804 199.524C22.9785 199.526 22.9773 199.528 22.977 199.531C22.9497 199.558 22.919 199.589 22.8952 199.616C22.3499 200.202 21.8251 200.812 21.3275 201.439C20.3543 202.608 19.5701 203.923 19.0034 205.334C18.5703 206.511 18.4175 207.772 18.5569 209.018C18.5671 209.144 18.5842 209.267 18.6012 209.393C18.6149 209.492 18.6285 209.591 18.6455 209.693C18.8705 211.06 19.2589 212.43 19.1499 213.823C19.0835 214.538 18.8667 215.23 18.5137 215.854C18.1607 216.478 17.6795 217.021 17.1018 217.446C16.709 217.75 16.2892 218.017 15.8477 218.243C15.2163 218.569 14.5585 218.84 13.8813 219.055H12.542C12.7226 219.003 12.8998 218.952 13.0804 218.901C13.7214 218.72 14.3507 218.501 14.965 218.243C15.3159 218.097 15.6574 217.928 15.9874 217.739C17.3573 216.952 18.499 215.745 18.7375 214.134C18.9454 212.723 18.5433 211.312 18.3047 209.932C18.2638 209.693 18.2264 209.458 18.2059 209.223C18.0432 208.028 18.142 206.811 18.4956 205.658C18.9859 204.22 19.719 202.876 20.663 201.684C21.247 200.909 21.8703 200.164 22.5305 199.452C22.6123 199.36 22.6975 199.268 22.7861 199.176C25.1957 196.641 27.9779 194.489 31.0366 192.793H31.04C33.3144 191.527 35.7272 190.528 38.2307 189.815H38.2341C38.3466 189.781 38.4624 189.747 38.5749 189.716C38.81 189.655 38.8646 190.026 38.6328 190.091Z" fill="white"/>
<path d="M22.6516 199.582C21.8285 198.713 21.3411 197.579 21.2764 196.384C21.2117 195.189 21.574 194.01 22.2985 193.057C22.4458 192.865 22.7515 193.085 22.604 193.277C21.9277 194.163 21.5904 195.262 21.6529 196.374C21.7154 197.487 22.1736 198.541 22.9449 199.346C23.1123 199.521 22.8181 199.756 22.6516 199.582Z" fill="white"/>
<path d="M18.4393 209.016C20.8844 209.104 23.273 208.268 25.1287 206.673C25.3124 206.515 25.5482 206.808 25.3647 206.966C23.4305 208.622 20.9431 209.488 18.3988 209.39C18.1563 209.381 18.1981 209.007 18.4393 209.016Z" fill="white"/>
<path d="M31.351 192.91C31.5994 193.312 31.9439 193.647 32.3536 193.883C32.7633 194.12 33.2253 194.251 33.6982 194.265C33.9407 194.271 33.8986 194.645 33.6576 194.639C33.1353 194.621 32.6252 194.476 32.172 194.216C31.7188 193.955 31.3362 193.588 31.0577 193.146C31.028 193.106 31.0144 193.057 31.0197 193.008C31.025 192.959 31.0488 192.913 31.0863 192.881C31.1253 192.85 31.175 192.836 31.2246 192.841C31.2741 192.846 31.3195 192.871 31.351 192.91Z" fill="white"/>
<path d="M155.53 59.0007C155.181 59.4608 154.734 59.8386 154.223 60.1074C153.711 60.3763 153.147 60.5298 152.57 60.557C151.992 60.5842 151.416 60.4845 150.882 60.265C150.347 60.0454 149.867 59.7113 149.476 59.2862L136.594 64.8888L137.849 57.6976L149.889 53.4797C150.647 52.8694 151.602 52.5583 152.574 52.6052C153.546 52.6522 154.467 53.054 155.162 53.7345C155.857 54.4151 156.279 55.327 156.347 56.2976C156.415 57.2682 156.124 58.23 155.53 59.0007Z" fill="#FFB8B8"/>
<path d="M146.934 61.246L117.014 74.5737L116.949 74.5508L82.8476 62.3986C80.3075 61.0711 78.3709 58.8227 77.4344 56.1139C76.4979 53.4052 76.6323 50.4408 77.8102 47.8279C78.463 46.3843 79.4142 45.0952 80.6012 44.0457C81.7881 42.9962 83.1839 42.2099 84.6966 41.7387C86.2093 41.2675 87.8047 41.122 89.3777 41.3118C90.9507 41.5016 92.4657 42.0224 93.8229 42.8399L119.201 58.1274L143.81 54.9381L146.934 61.246Z" fill="#E6E6E6"/>
<path d="M294 219.331C294 219.384 293.99 219.437 293.969 219.486C293.949 219.535 293.919 219.58 293.881 219.618C293.844 219.655 293.799 219.685 293.75 219.706C293.7 219.726 293.648 219.736 293.594 219.736H0.416765C0.30921 219.736 0.206063 219.693 0.13001 219.617C0.0539562 219.541 0.0112305 219.438 0.0112305 219.331C0.0112305 219.223 0.0539562 219.12 0.13001 219.044C0.206063 218.968 0.30921 218.925 0.416765 218.925H293.594C293.648 218.925 293.7 218.935 293.75 218.956C293.799 218.976 293.844 219.006 293.881 219.043C293.919 219.081 293.949 219.126 293.969 219.175C293.99 219.224 294 219.277 294 219.331Z" fill="#CCCCCC"/>
<path d="M106.784 101.145L76.6221 96.3206C75.8311 96.0672 75.1042 95.6457 74.4914 95.0849C73.8787 94.5241 73.3945 93.8374 73.0722 93.0718C72.7499 92.3063 72.597 91.48 72.6242 90.6498C72.6513 89.8197 72.8578 89.0052 73.2294 88.2623L74.5972 85.5263L74.0659 56.7819C74.0018 53.0429 74.9236 49.353 76.7384 46.0834C78.5533 42.8138 81.1972 40.0798 84.4042 38.1565L87.3455 36.3978L88.832 32.623L102.539 32.9573L102.579 37.908L107.487 45.7354L107.487 45.7678L107.179 88.3711L105.826 92.7678L107.872 97.8816L106.784 101.145Z" fill="#E6E6E6"/>
<path d="M96.9407 27.9291C103.819 27.9291 109.395 22.3533 109.395 15.4752C109.395 8.59716 103.819 3.02139 96.9407 3.02139C90.0626 3.02139 84.4868 8.59716 84.4868 15.4752C84.4868 22.3533 90.0626 27.9291 96.9407 27.9291Z" fill="#FFB8B8"/>
<path d="M83.9724 18.1901C83.601 16.6253 83.7715 14.4232 83.9814 12.8476C84.5317 8.71677 86.8258 4.78971 90.311 2.46357C90.9718 1.96164 91.7571 1.64958 92.5822 1.561C93.4067 1.52658 94.3004 1.96796 94.5536 2.75342C94.7613 2.23502 95.073 1.76468 95.4696 1.37145C95.8661 0.97821 96.339 0.670417 96.8592 0.467068C97.904 0.0667616 99.0277 -0.0846246 100.141 0.0249089C102.3 0.202814 104.369 0.961725 106.131 2.2211C107.893 3.48048 109.281 5.19333 110.148 7.1779C110.48 7.96812 111.41 5.04925 111.831 5.7959C112.218 6.572 112.894 7.16568 113.714 7.44989C114.539 7.68033 114.875 11.0828 115.2 10.2894C115.452 10.8758 115.552 11.5164 115.49 12.1516C115.427 12.7869 115.206 13.396 114.845 13.9225C114.484 14.4489 113.995 14.8754 113.425 15.1623C112.855 15.4492 112.222 15.5871 111.584 15.5632C110.743 15.5318 109.94 15.2226 109.109 15.0895C106.139 14.6136 102.988 16.7673 102.354 19.7074C102.126 18.8572 101.763 18.0492 101.278 17.3147C101.032 16.9494 100.702 16.6482 100.316 16.4361C99.9299 16.2239 99.4988 16.1071 99.0585 16.0952C98.2135 16.1268 97.4707 16.6792 96.9224 17.323C96.3742 17.9668 95.9624 18.7179 95.4101 19.3582C93.7894 21.2369 91.5975 25.6184 89.2879 25.2988C87.4653 25.0466 84.4796 20.3267 83.9724 18.1901Z" fill="#2F2E41"/>
<path d="M172.223 73.1131C172.31 72.5453 172.193 71.965 171.893 71.4751C171.593 70.9852 171.13 70.6173 170.584 70.4367L137.046 59.2666C136.725 59.159 136.384 59.1199 136.047 59.1518L127.641 59.9468L122.817 60.4043L113.916 61.2455C113.379 61.2969 112.874 61.5252 112.48 61.8946C112.086 62.264 111.826 62.7536 111.741 63.2867L107.221 91.5169C107.136 92.0675 107.241 92.6308 107.519 93.1139C107.796 93.5969 108.231 93.9707 108.75 94.1736L142.638 107.255C142.797 107.316 142.962 107.361 143.131 107.387C143.376 107.427 143.626 107.429 143.872 107.393L165.77 104.147C166.286 104.072 166.765 103.833 167.135 103.465C167.504 103.096 167.746 102.619 167.822 102.103L172.223 73.1131Z" fill="white"/>
<path d="M109.518 92.1846L143.406 105.265C143.455 105.284 143.509 105.291 143.562 105.283L165.456 102.038C165.521 102.029 165.581 101.999 165.628 101.953C165.674 101.907 165.704 101.847 165.714 101.782L170.117 72.7921C170.127 72.7213 170.112 72.6492 170.074 72.5882C170.037 72.5272 169.98 72.481 169.912 72.4576L169.687 72.3813L136.372 61.29C136.357 61.2846 136.341 61.2808 136.325 61.2787C136.299 61.2739 136.273 61.2726 136.247 61.2746L115.743 63.2148L114.116 63.3675C114.05 63.3746 113.987 63.4034 113.938 63.4494C113.889 63.4954 113.857 63.5561 113.846 63.6223L109.327 91.8514C109.316 91.9204 109.329 91.991 109.364 92.0516C109.398 92.1122 109.453 92.1592 109.518 92.1846Z" fill="#C00016"/>
<path d="M115.744 63.2148L136.247 61.2746C136.273 61.2726 136.3 61.2739 136.325 61.2787C136.341 61.2808 136.357 61.2846 136.372 61.29L169.687 72.3813L160.899 73.3115L157.61 73.658L148.252 74.6467C148.225 74.6481 148.197 74.6478 148.17 74.6457C148.153 74.6407 148.137 74.6357 148.117 74.6304L115.744 63.2148Z" fill="#2F2E41"/>
<path d="M108.749 94.1754L142.637 107.256C142.796 107.317 142.962 107.361 143.131 107.385C143.377 107.426 143.627 107.429 143.873 107.394L165.768 104.149C166.285 104.074 166.764 103.834 167.134 103.466C167.504 103.097 167.745 102.62 167.822 102.103L172.222 73.1131C172.287 72.6857 172.238 72.2487 172.079 71.8465C172.057 71.793 172.035 71.7395 172.009 71.6891C171.834 71.3219 171.569 71.0054 171.237 70.7698C171.038 70.6266 170.818 70.5143 170.585 70.437L170.545 70.4229L137.048 59.2663C136.911 59.2227 136.771 59.1887 136.63 59.1647C136.436 59.1373 136.24 59.1335 136.045 59.1534L127.641 59.9456L122.818 60.4057L113.915 61.2463C113.551 61.2803 113.199 61.3965 112.886 61.5862C112.862 61.5979 112.839 61.6117 112.817 61.6275C112.802 61.6376 112.787 61.6488 112.773 61.6609C112.5 61.8474 112.268 62.0874 112.09 62.3665C111.913 62.6456 111.794 62.9579 111.742 63.2843L107.219 91.5165C107.134 92.0676 107.239 92.6313 107.517 93.1147C107.795 93.5981 108.23 93.9723 108.749 94.1754ZM112.342 63.3828C112.397 63.0444 112.547 62.7286 112.774 62.4724C112.843 62.39 112.92 62.3147 113.005 62.2479C113.235 62.062 113.506 61.9352 113.796 61.8785C113.854 61.8667 113.912 61.8585 113.97 61.854L128.96 60.438L136.104 59.7581C136.153 59.7525 136.197 59.7533 136.242 59.7507C136.35 59.7485 136.458 59.7565 136.565 59.7747C136.663 59.7874 136.759 59.8104 136.853 59.8433L170.389 71.014C170.416 71.0234 170.439 71.0324 170.465 71.0418C170.77 71.1552 171.038 71.3502 171.24 71.6053C171.399 71.8007 171.516 72.0275 171.581 72.2709C171.647 72.5144 171.661 72.769 171.622 73.0181L167.218 102.011C167.161 102.398 166.98 102.756 166.703 103.032C166.427 103.308 166.069 103.488 165.682 103.545L143.784 106.79C143.471 106.835 143.151 106.799 142.856 106.684L108.968 93.6075C108.579 93.4544 108.254 93.1739 108.046 92.8119C107.838 92.4499 107.759 92.0279 107.823 91.6152L112.342 63.3828Z" fill="#3F3D56"/>
<path d="M112.7 61.8149C112.718 61.7635 112.75 61.718 112.792 61.6832C112.806 61.6721 112.82 61.6621 112.836 61.6532C112.85 61.6477 112.864 61.6388 112.879 61.6333C112.947 61.606 113.022 61.6047 113.091 61.6297L113.797 61.8785L148.256 74.0343L156.321 73.1822L160.834 72.7062L170.386 71.6949L171.24 71.6054L171.406 71.587C171.478 71.5805 171.549 71.5991 171.608 71.6398C171.668 71.6805 171.711 71.7406 171.73 71.8097C171.735 71.8256 171.738 71.842 171.74 71.8585C171.747 71.9241 171.732 71.9902 171.698 72.0469C171.664 72.1036 171.613 72.1477 171.552 72.1727C171.525 72.1839 171.497 72.1915 171.468 72.1954L170.306 72.3172L160.899 73.3115L157.61 73.658L148.252 74.6467C148.225 74.6481 148.197 74.6477 148.17 74.6457C148.153 74.6407 148.137 74.6357 148.117 74.6303L113.005 62.2479L112.886 62.2057C112.858 62.1967 112.833 62.1827 112.811 62.1643C112.758 62.1254 112.718 62.0705 112.698 62.0076C112.679 61.9448 112.679 61.8773 112.7 61.8149Z" fill="#3F3D56"/>
<path d="M143.224 107.474C143.144 107.461 143.073 107.418 143.026 107.353C142.979 107.288 142.959 107.207 142.971 107.128L147.918 74.2981C147.93 74.2182 147.973 74.1464 148.038 74.0984C148.103 74.0505 148.185 74.0303 148.264 74.0423L148.267 74.0427C148.346 74.0554 148.418 74.0989 148.465 74.1637C148.512 74.2286 148.532 74.3095 148.52 74.3889L143.573 107.219C143.561 107.298 143.518 107.37 143.453 107.418C143.388 107.466 143.306 107.486 143.226 107.474L143.224 107.474Z" fill="#3F3D56"/>
<path d="M155.764 105.391L152.474 105.738L156.322 73.1813C156.322 73.1813 160.717 72.3857 160.834 72.7047C160.906 72.8952 155.795 105.182 155.764 105.391Z" fill="#3F3D56"/>
<path d="M112.886 62.2053L112.798 77.0525L139.082 87.0676L148.52 74.3888L112.886 62.2053Z" fill="#3F3D56"/>
<path d="M171.241 71.6058C171.021 71.3297 170.725 71.1239 170.39 71.014L136.854 59.8437C136.76 59.8121 136.663 59.7885 136.565 59.7733C136.458 59.755 136.35 59.7468 136.241 59.7491L136.296 59.4092L136.631 59.1661L144.595 53.4004L171.19 61.5511L171.237 70.7699L171.241 71.6058Z" fill="#3F3D56"/>
<path d="M114.226 86.0399C114.264 86.0436 114.301 86.0514 114.337 86.0633L124.627 89.4428C124.755 89.4851 124.862 89.5768 124.923 89.6978C124.985 89.8188 124.995 89.9592 124.953 90.088C124.911 90.2168 124.819 90.3236 124.698 90.3848C124.577 90.446 124.437 90.4566 124.308 90.4143L114.018 87.0347C113.899 86.9955 113.798 86.9136 113.735 86.8047C113.672 86.6958 113.652 86.5676 113.677 86.4445C113.703 86.3214 113.773 86.2121 113.874 86.1375C113.976 86.0628 114.101 86.0281 114.226 86.0399Z" fill="white"/>
<path d="M155.742 148.324C158 148.324 159.831 146.493 159.831 144.234C159.831 141.976 158 140.145 155.742 140.145C153.483 140.145 151.652 141.976 151.652 144.234C151.652 146.493 153.483 148.324 155.742 148.324Z" fill="#F2F2F2"/>
<path d="M51.4601 163.318C53.7186 163.318 55.5495 161.488 55.5495 159.229C55.5495 156.97 53.7186 155.14 51.4601 155.14C49.2015 155.14 47.3706 156.97 47.3706 159.229C47.3706 161.488 49.2015 163.318 51.4601 163.318Z" fill="#F2F2F2"/>
<path d="M136.658 28.0251C138.916 28.0251 140.747 26.1942 140.747 23.9357C140.747 21.6771 138.916 19.8462 136.658 19.8462C134.399 19.8462 132.568 21.6771 132.568 23.9357C132.568 26.1942 134.399 28.0251 136.658 28.0251Z" fill="#F2F2F2"/>
<path d="M143.367 92.0545C142.837 92.2848 142.263 92.396 141.685 92.3804C141.108 92.3648 140.54 92.2228 140.024 91.9642C139.507 91.7057 139.053 91.337 138.694 90.8841C138.335 90.4312 138.08 89.905 137.946 89.3428L123.97 87.9307L128.581 82.2715L141.146 84.48C142.105 84.3182 143.091 84.5139 143.916 85.0301C144.74 85.5463 145.347 86.3471 145.621 87.2807C145.895 88.2143 145.816 89.216 145.401 90.0958C144.986 90.9757 144.262 91.6726 143.367 92.0545Z" fill="#FFB8B8"/>
<path d="M134.771 89.8095L102.154 86.8043L102.11 86.7529L78.3054 59.4773C76.7388 57.0772 76.149 54.169 76.6567 51.3482C77.1643 48.5274 78.7311 46.0074 81.0362 44.3041C82.3116 43.3641 83.7717 42.7048 85.3202 42.3698C86.8688 42.0347 88.4708 42.0314 90.0207 42.36C91.5707 42.6887 93.0334 43.3419 94.3127 44.2767C95.592 45.2114 96.6589 46.4065 97.443 47.7833L112.105 73.528L135.13 82.7794L134.771 89.8095Z" fill="#E6E6E6"/>
<path d="M216.636 37.3562C215.826 31.4149 214.811 25.0361 210.62 20.7472C209.291 19.3863 207.699 18.3088 205.942 17.5796C204.184 16.8504 202.298 16.4847 200.395 16.5043C198.493 16.524 196.614 16.9288 194.872 17.6942C193.13 18.4596 191.561 19.5698 190.26 20.9579C187.21 24.212 185.863 28.7813 185.739 33.2399C185.616 37.6985 186.609 42.1075 187.711 46.4296C193.54 46.5461 199.327 45.4071 204.677 43.0901C206.015 42.5094 207.332 41.8529 208.745 41.4931C210.159 41.1333 211.166 42.0386 212.481 42.6699L213.203 41.2879C213.794 42.3875 215.623 42.0615 216.287 41.0043C216.951 39.947 216.805 38.593 216.636 37.3562Z" fill="#2F2E41"/>
<path d="M193.529 70.518L169.716 71.0272C169.35 70.3951 168.809 69.8829 168.157 69.5529C167.506 69.2229 166.772 69.0893 166.046 69.1685C165.32 69.2477 164.633 69.5362 164.068 69.9989C163.503 70.4615 163.085 71.0785 162.864 71.7746C162.643 72.4707 162.629 73.216 162.824 73.9197C163.019 74.6235 163.415 75.2554 163.962 75.7385C164.51 76.2217 165.186 76.5353 165.909 76.6411C166.631 76.7469 167.369 76.6404 168.032 76.3346C171.191 76.5141 195.899 80.0211 197.373 77.761C198.87 75.4671 206.856 67.3717 206.856 67.3717L200.717 58.6325L193.529 70.518Z" fill="#9E616A"/>
<path d="M199.331 43.2344C205.51 43.2344 210.519 38.2252 210.519 32.0462C210.519 25.8672 205.51 20.8581 199.331 20.8581C193.152 20.8581 188.143 25.8672 188.143 32.0462C188.143 38.2252 193.152 43.2344 199.331 43.2344Z" fill="#9E616A"/>
<path d="M217.251 53.5733C215.933 50.9493 215.292 47.7077 212.481 46.857C210.583 46.2825 202.906 47.1434 201.176 48.1131C198.299 49.7261 200.906 52.7486 199.209 55.5771C197.363 58.652 192.348 64.8226 190.503 67.8975C189.234 70.0113 193.507 76.2159 192.821 78.5839C192.135 80.9519 192.102 83.6097 193.271 85.7805C194.317 87.7234 192.804 89.4422 193.855 91.382C194.949 93.3993 196.292 100.942 195.274 102.999L194.592 105.044C201.356 105.441 207.043 97.3607 213.764 96.5095C215.434 96.2981 217.167 96.0219 218.543 95.0529C220.569 93.6254 221.37 91.0352 221.871 88.6076C224.281 76.741 222.655 64.4096 217.251 53.5733Z" fill="#3F3D56"/>
<path d="M227.391 81.2801C226.449 78.7086 224.744 67.4656 224.744 67.4656L214.069 67.1526L219.288 80.0249L205.046 99.9621C205.046 99.9621 205.073 100.006 205.12 100.084C204.372 99.9638 203.604 100.073 202.918 100.396C202.232 100.719 201.66 101.242 201.276 101.896C200.892 102.55 200.714 103.305 200.766 104.061C200.818 104.818 201.097 105.541 201.567 106.136C202.037 106.732 202.676 107.171 203.399 107.398C204.123 107.624 204.898 107.626 205.624 107.405C206.349 107.184 206.991 106.748 207.464 106.156C207.938 105.564 208.222 104.843 208.279 104.087C208.332 104.117 208.393 104.127 208.453 104.117C208.512 104.107 208.567 104.076 208.606 104.03C210.191 102.042 228.333 83.8516 227.391 81.2801Z" fill="#9E616A"/>
<path d="M228.477 74.1797C227.497 70.0443 226.51 65.8864 224.858 61.9707C223.206 58.055 220.841 54.3565 217.515 51.7111C216.452 50.8653 215.263 50.1188 213.93 49.8559C212.597 49.5929 211.095 49.8872 210.159 50.8719C208.66 52.4476 209.111 54.9768 209.661 57.0804C211.281 63.2829 212.901 69.4854 214.521 75.6879C219.2 75.1919 223.879 74.696 228.558 74.2L228.477 74.1797Z" fill="#3F3D56"/>
<path d="M213.041 33.598C212.629 30.8915 212.198 28.1623 211.23 25.6138C210.262 23.0653 208.702 20.6783 206.464 19.2347C202.92 16.9489 198.332 17.3898 194.359 18.7046C191.286 19.7214 188.287 21.2668 186.12 23.7514C183.953 26.236 182.736 29.7813 183.542 33.03C187.78 32.0287 192.018 31.0273 196.257 30.026L195.793 30.3538C197.184 31.0477 198.399 32.0495 199.346 33.2832C200.293 34.5169 200.946 35.95 201.256 37.4738C201.559 39.0161 201.515 40.6065 201.128 42.1299C200.741 43.6534 200.021 45.0717 199.018 46.2824C201.909 45.2571 204.799 44.2317 207.69 43.2064C209.474 42.5735 211.383 41.8443 212.441 40.2209C213.668 38.3388 213.383 35.8442 213.041 33.598Z" fill="#2F2E41"/>
</g>
<defs>
<clipPath id="clip0_3455_2910">
<rect width="294" height="219.736" fill="white"/>
</clipPath>
</defs>
</svg>
