<svg width="294" height="220" viewBox="0 0 294 220" fill="none" xmlns="http://www.w3.org/2000/svg">
<path fill-rule="evenodd" clip-rule="evenodd" d="M145.624 160.022C144.826 162.467 143.655 165.225 141.475 165.91C139.963 166.384 135.086 163.377 134.022 162.17C132.957 160.963 127.26 102.758 128.735 99.2147C130.714 94.4614 152.73 101.026 153.202 109.272C153.805 119.815 152.449 131.03 150.424 141.483C149.209 147.757 147.606 153.959 145.624 160.022Z" fill="#405D64"/>
<path d="M183.905 207.712C181.842 208.804 179.53 209.415 177.201 209.485C176.448 206.856 175.696 204.226 174.944 201.597C174.849 201.265 174.753 200.915 174.83 200.578C174.943 200.083 175.394 199.749 175.834 199.5C177.501 198.558 180.169 197.506 181.008 199.721C182.011 202.369 182.937 205.051 183.905 207.712Z" fill="#F4A086"/>
<path d="M141.407 214.054C139.108 214.398 136.722 214.205 134.488 213.495C134.594 210.763 134.7 208.031 134.807 205.299C134.82 204.954 134.839 204.592 135.016 204.301C135.278 203.871 135.811 203.706 136.306 203.617C138.183 203.283 141.045 203.179 141.151 205.549C141.277 208.382 141.319 211.22 141.407 214.054Z" fill="#F4A086"/>
<path fill-rule="evenodd" clip-rule="evenodd" d="M133.355 153.322C135.66 148.486 142.427 145.171 146.691 153.561C153.195 166.356 141.937 190.29 141.989 205.742H134.099C133.663 204.245 132.076 156.005 133.355 153.322Z" fill="#405D64"/>
<path fill-rule="evenodd" clip-rule="evenodd" d="M163.44 113.386C161.519 114.908 158.98 115.141 156.597 115.141C136.988 115.141 128.352 110.449 128.352 99.6659C128.352 89.946 148.687 91.8614 157.854 94.8608C159.829 95.5069 162.709 96.1332 164.058 97.989C166.016 100.679 168.107 109.689 163.44 113.386Z" fill="#5F7884"/>
<path d="M136.618 49.58C135.98 58.6467 134.212 67.9352 129.142 75.4582C128.049 77.08 126.461 78.7621 124.524 78.5576C123.393 78.4377 122.408 77.6544 121.797 76.6877C121.186 75.7217 120.899 74.5864 120.69 73.4608C119.047 64.6018 121.735 55.5736 124.413 46.9736C125.515 43.4313 126.982 37.1614 130.567 35.2512C134.301 33.2614 136.181 39.4069 136.523 41.9127C136.869 44.4505 136.797 47.0313 136.618 49.58Z" fill="#F4A086"/>
<path fill-rule="evenodd" clip-rule="evenodd" d="M137.047 36.6986C136.876 35.1986 136.477 33.4313 135.093 32.7768C133.633 32.0864 132.065 33.0941 130.929 34.1191C124.045 40.3313 121.435 49.0999 120.188 58.5108L136.697 59.5351C137.798 52.0428 137.923 44.346 137.047 36.6986Z" fill="#00A0DB"/>
<path fill-rule="evenodd" clip-rule="evenodd" d="M161.774 160.022C161.111 162.467 160.093 165.225 157.95 165.91C156.465 166.384 153.275 160.213 152.144 159.006C151.013 157.799 140.065 112.131 141.344 108.588C143.059 103.834 147.363 100.756 151.788 100.047C158.219 99.0166 165.619 101.026 166.546 109.272C167.733 119.814 166.997 131.029 165.549 141.483C164.68 147.757 163.42 153.959 161.774 160.022Z" fill="#5F7884"/>
<path d="M114.078 74.0756C113.613 75.1198 114.095 76.3961 114.93 77.173C115.765 77.9499 121.569 80.6986 127.267 78.164C130.135 76.8884 130.57 74.1095 129.564 71.4723C128.165 67.8012 114.628 72.8384 114.078 74.0756Z" fill="#F7B690"/>
<path fill-rule="evenodd" clip-rule="evenodd" d="M150.702 155.068C150.871 149.893 156.568 143.839 163.385 150.844C174.362 162.124 177.571 183.638 181.849 199.627L174.405 202.255C173.373 201.034 150.609 157.945 150.702 155.068Z" fill="#5F7884"/>
<path fill-rule="evenodd" clip-rule="evenodd" d="M167.416 69.6627C170.091 61.0288 173.376 50.3627 171.895 41.3352C168.261 36.8723 160.83 26.5127 146.095 26.5127C135.759 26.5127 128.021 37.0095 126.229 39.6768C124.231 42.6493 124.956 46.8852 125.454 50.3223C126.515 57.6499 129.669 86.4422 126.929 106.426H168.662C168.581 96.8961 164.72 78.3646 167.416 69.6627Z" fill="#E6E6E6"/>
<path d="M177.017 59.1646C174.949 51.2339 170.537 43.9377 164.486 38.4448C163.397 37.4563 161.92 36.4653 160.57 37.0435C159.833 37.3589 159.341 38.0954 159.124 38.8704C158.907 39.6454 158.927 40.4653 158.959 41.2698C159.331 50.6518 161.026 59.9243 162.716 69.1589C163.236 71.996 163.767 74.8698 164.984 77.4813C166.203 80.0928 168.207 82.4576 170.889 83.4794C172.293 84.0146 174.59 84.3294 175.884 83.3134C176.924 82.4961 177.097 80.4134 177.36 79.2287C178.295 75.0255 178.59 70.68 178.239 66.3877C178.041 63.9505 177.634 61.5307 177.017 59.1646Z" fill="#F4A086"/>
<path fill-rule="evenodd" clip-rule="evenodd" d="M179.36 62.1454C179.374 62.2025 179.382 62.2608 179.382 62.3211C179.376 62.2621 179.366 62.2037 179.36 62.1454Z" fill="#18898D"/>
<path fill-rule="evenodd" clip-rule="evenodd" d="M158.697 36.6986C158.775 35.1986 159.063 33.4313 160.406 32.7768C161.823 32.0864 164.457 33.3883 165.657 34.4133C172.93 40.6255 176.977 49.1005 178.814 58.5114L160.477 59.5358C158.908 52.0428 158.3 44.346 158.697 36.6986Z" fill="#E6E6E6"/>
<path d="M142.175 5.60248C138.141 2.79671 132.335 5.23196 131.497 10.4211C130.729 15.1717 135.479 23.3236 137.732 24.6467C141.672 26.9595 146.968 21.4082 147.154 18.7448C147.425 14.8435 145.567 7.96209 142.175 5.60248Z" fill="#F7B690"/>
<path fill-rule="evenodd" clip-rule="evenodd" d="M145.044 6.60055C145.357 6.38837 145.782 6.41144 146.128 6.56273C146.474 6.71465 146.759 6.97683 147.037 7.23452C147.98 8.1108 148.931 8.99542 149.676 10.0473C150.422 11.0993 150.957 12.3448 150.959 13.6364C150.96 14.4743 150.743 15.3441 151.029 16.1313C151.286 16.8364 151.936 17.4858 151.741 18.2108C151.597 18.7486 150.986 19.0666 150.435 19.0063C149.884 18.9461 149.405 18.5845 149.056 18.1518C148.706 17.7191 148.462 17.2121 148.18 16.7326C147.242 15.1403 145.875 13.8416 144.9 12.2717C143.925 10.7018 143.381 8.64221 144.262 7.01721L145.044 6.60055Z" fill="#222B56"/>
<path fill-rule="evenodd" clip-rule="evenodd" d="M126.329 8.69605C127.2 8.34156 128.071 7.98707 128.942 7.63194C128.541 8.13002 128.13 8.64989 127.973 9.2704C127.816 9.89156 127.987 10.6454 128.537 10.9685C128.965 11.2198 129.52 11.1537 129.96 10.9262C130.4 10.6986 130.751 10.3313 131.092 9.97041C130.913 10.3044 130.73 10.6563 130.727 11.0358C130.725 11.4153 130.971 11.8255 131.347 11.8672C131.645 11.9005 131.915 11.7031 132.151 11.5159C133.333 10.5787 134.516 9.64156 135.698 8.70438C135.629 9.07746 135.559 9.45887 135.619 9.83387C135.679 10.2082 135.895 10.5807 136.246 10.7198C136.862 10.964 137.496 10.4108 137.871 9.86143C138.246 9.31207 138.636 8.65182 139.291 8.5531C140.027 8.4422 140.629 9.10502 141.079 9.70118C141.16 9.80823 141.24 9.91464 141.321 10.0217C142.15 11.1191 142.98 12.2159 143.808 13.3134C144.062 13.6493 144.322 13.9916 144.668 14.2294C145.015 14.4672 145.469 14.5877 145.861 14.4364C146.529 14.1787 153.752 3.46015 144.51 0.187073C143.173 -0.286645 141.284 0.238356 139.931 0.666561C138.578 1.09477 137.298 1.77425 135.902 2.02617C134.795 2.22617 133.659 2.14989 132.54 2.26143C129.411 2.57425 126.411 5.45887 126.329 8.69605Z" fill="#222B56"/>
<path d="M149.326 10.9691C149.744 12.0185 149.734 13.2332 149.299 14.2755C148.055 17.2582 145.148 14.5832 145.007 12.4236C144.84 9.8499 148.191 8.11401 149.326 10.9691Z" fill="#F7B690"/>
<path fill-rule="evenodd" clip-rule="evenodd" d="M119.791 218.068C119.69 216.933 120.761 215.992 121.864 215.727C122.966 215.463 124.119 215.665 125.252 215.651C128.484 215.613 131.624 213.664 133.106 210.775C133.31 210.377 133.508 209.94 133.895 209.72C134.411 209.429 135.08 209.646 135.538 210.024C135.995 210.401 136.318 210.917 136.736 211.338C137.485 212.093 138.553 212.512 139.611 212.496C140.498 212.483 141.491 211.802 142.342 212.252C143.094 212.649 143.296 213.697 143.487 214.443C143.816 215.729 144.113 217.024 144.426 218.315C144.496 218.601 144.563 218.899 144.584 219.193H138.425C138.139 218.788 137.905 217.606 137.783 217.119C137.763 217.62 137.566 218.808 137.25 219.193H120.323C120.032 218.878 119.829 218.495 119.791 218.068Z" fill="#0A3C5F"/>
<path fill-rule="evenodd" clip-rule="evenodd" d="M175.807 214.824C175.391 213.767 175.525 212.723 175.896 212.312C176.266 211.901 176.353 209.854 176.383 206.892C176.396 205.536 178.692 204.349 180.619 205.994C181.244 206.527 181.759 206.835 182.192 206.665C182.556 206.523 182.744 205.735 183.245 206.035C183.687 206.3 184.116 207.259 184.441 207.935C185 209.101 185.55 210.279 186.105 211.451C186.228 211.711 186.354 211.983 186.46 212.257L176.397 215.808C176.173 215.553 175.963 215.221 175.807 214.824Z" fill="#0A3C5F"/>
<path d="M147.13 86.3627H122.094C120.612 86.3627 119.075 85.155 118.66 83.6646L107.644 44.0916C107.229 42.6012 108.094 41.3935 109.575 41.3935H134.612C136.093 41.3935 137.631 42.6012 138.046 44.0916L149.062 83.6646C149.476 85.155 148.611 86.3627 147.13 86.3627Z" fill="#C00016"/>
<path d="M149.061 83.6646L138.046 44.0916C137.631 42.6012 136.093 41.3935 134.612 41.3935H131.942C133.424 41.3935 134.961 42.6018 135.376 44.0916L146.392 83.6646C146.807 85.155 145.942 86.3627 144.46 86.3627H147.13C148.611 86.3627 149.476 85.155 149.061 83.6646Z" fill="#C00016"/>
<path d="M145.484 74.6204C144.259 75.4204 144.057 77.2493 144.688 78.5743C145.318 79.8999 166.612 85.0922 171.742 85.0069C173.303 84.9807 175.097 84.8313 176.016 83.5614C176.836 82.4268 176.603 80.8486 176.163 79.5172C175.425 77.2813 174.134 74.7614 172.315 73.214C171.06 72.1467 146.269 74.1082 145.484 74.6204Z" fill="#F7B690"/>
<path d="M137.801 70.8313C137.288 70.1134 136.768 69.1249 137.292 68.4146C137.64 67.9441 138.328 67.848 138.883 68.0249C139.439 68.2025 139.896 68.5941 140.347 68.964C140.958 69.4646 141.625 69.9589 142.405 70.071C143.185 70.1832 144.094 69.7736 144.278 69.0031C144.479 68.1608 143.825 67.0993 144.442 66.4948C144.765 66.1775 145.309 66.198 145.704 66.4185C146.099 66.639 146.381 67.0153 146.65 67.3807C148.079 69.3217 149.541 71.3307 150.115 73.6762C150.69 76.0217 150.156 78.8146 148.207 80.2255C146.464 81.4871 143.893 81.2999 142.216 79.9531C140.783 78.8031 140.235 77.1563 140.047 75.3903C139.843 73.455 138.97 72.4678 137.801 70.8313Z" fill="#F7B690"/>
<path d="M112.737 68.8217C112.829 68.5512 112.978 64.2288 113.2 64.048C113.604 63.7185 115.112 68.805 114.8 69.2236C115.893 69.1063 116.22 69.0717 117.313 68.9544C118.107 68.8691 119.147 68.9339 119.388 69.7005C119.58 70.3127 119.093 70.9012 118.755 71.4454C118.153 72.4134 119.038 78.0627 118.569 78.5422C116.831 80.3159 113.026 77.2403 112.392 75.5095C111.512 73.1089 111.95 71.1307 112.737 68.8217Z" fill="#F7B690"/>
<path d="M276.527 213.721C277.021 215.575 278.319 217.119 279.887 218.243C280.142 218.427 280.405 218.598 280.671 218.758C280.752 218.806 280.834 218.857 280.919 218.901C281.011 218.956 281.103 219.007 281.195 219.055H288.567C288.7 218.785 288.829 218.513 288.959 218.243C292.118 211.605 294.336 204.441 293.958 197.145C293.808 194.315 293.213 191.526 292.196 188.881C290.172 183.609 286.478 179.046 281.396 176.749C281.27 176.691 281.137 176.633 281.008 176.579C281.049 176.725 281.09 176.868 281.131 177.015C281.676 178.979 282.061 180.983 282.283 183.009C282.303 183.166 282.32 183.323 282.334 183.483C282.818 188.369 282.388 193.303 281.066 198.031C281.063 198.041 281.059 198.055 281.056 198.065C280.766 199.112 280.43 200.142 280.047 201.156C279.747 201.957 279.423 202.748 279.069 203.525C277.59 206.786 275.606 210.262 276.527 213.721Z" fill="#E6E6E6"/>
<path d="M280.916 176.732C280.988 176.827 281.059 176.919 281.131 177.015C282.627 178.998 283.899 181.143 284.92 183.408C284.975 183.52 285.026 183.633 285.07 183.749C286.47 186.912 287.369 190.274 287.735 193.713C287.739 193.737 287.741 193.761 287.742 193.785C287.827 194.589 287.878 195.4 287.899 196.211C287.975 197.732 287.81 199.254 287.411 200.723C287.048 201.923 286.411 203.022 285.551 203.934C285.466 204.026 285.38 204.118 285.288 204.206C285.22 204.278 285.145 204.349 285.074 204.418C284.385 205.075 283.632 205.685 282.985 206.391C282.688 206.707 282.42 207.049 282.184 207.413C281.807 208.023 281.564 208.706 281.47 209.417C281.376 210.127 281.433 210.85 281.638 211.537C282.102 213.261 283.162 214.716 284.245 216.103C284.787 216.799 285.346 217.501 285.83 218.243C286.007 218.509 286.171 218.779 286.321 219.055H286.75C286.607 218.779 286.45 218.509 286.28 218.243C285.036 216.284 283.267 214.6 282.351 212.443C281.73 210.988 281.543 209.339 282.327 207.911C282.557 207.496 282.835 207.109 283.155 206.759C283.779 206.053 284.525 205.45 285.203 204.813C285.373 204.653 285.54 204.489 285.701 204.319C286.55 203.456 287.205 202.422 287.623 201.286C288.096 199.843 288.319 198.329 288.284 196.811C288.284 195.843 288.233 194.869 288.137 193.901C288.127 193.778 288.113 193.652 288.1 193.526C287.403 187.436 285.088 181.643 281.396 176.749C281.328 176.654 281.257 176.562 281.185 176.47C281.039 176.279 280.769 176.544 280.916 176.732Z" fill="white"/>
<path d="M287.962 193.933C289.143 193.735 290.214 193.123 290.985 192.208C291.757 191.293 292.177 190.133 292.172 188.936C292.172 188.887 292.152 188.841 292.118 188.806C292.083 188.771 292.037 188.751 291.988 188.75C291.939 188.749 291.892 188.767 291.856 188.8C291.82 188.834 291.799 188.879 291.796 188.928C291.803 190.043 291.411 191.123 290.691 191.974C289.971 192.825 288.97 193.39 287.87 193.568C287.631 193.607 287.725 193.972 287.962 193.933Z" fill="white"/>
<path d="M285.645 204.002C283.64 202.6 282.236 200.494 281.715 198.104C281.663 197.867 281.299 197.959 281.35 198.196C281.897 200.683 283.362 202.871 285.452 204.325C285.652 204.464 285.844 204.14 285.645 204.002Z" fill="white"/>
<path d="M285.033 183.368C284.592 183.54 284.116 183.6 283.646 183.542C283.177 183.484 282.729 183.311 282.343 183.037C282.146 182.896 281.954 183.22 282.15 183.36C282.578 183.661 283.073 183.852 283.591 183.917C284.11 183.982 284.636 183.919 285.125 183.733C285.173 183.719 285.213 183.688 285.239 183.646C285.264 183.603 285.272 183.553 285.262 183.505C285.249 183.456 285.218 183.415 285.175 183.389C285.133 183.364 285.081 183.356 285.033 183.368Z" fill="white"/>
<path d="M255.35 189.91C255.469 190.002 255.592 190.094 255.711 190.19C257.329 191.428 258.844 192.796 260.24 194.279C260.349 194.392 260.458 194.507 260.564 194.623L260.567 194.627C263.879 198.221 266.497 202.397 268.29 206.943L268.3 206.974C268.303 206.984 268.307 206.991 268.31 207.001C269.021 208.821 269.594 210.691 270.024 212.597C270.44 214.457 270.781 216.451 271.432 218.243C271.531 218.52 271.64 218.792 271.756 219.055H286.907C286.856 218.785 286.801 218.513 286.747 218.243C285.976 214.295 284.772 210.443 283.155 206.759C283.1 206.636 283.046 206.513 282.985 206.391C282.15 204.57 281.169 202.821 280.05 201.16L280.05 201.158L280.049 201.157L280.048 201.157L280.047 201.156C279.433 200.25 278.773 199.375 278.07 198.536C276.248 196.367 274.095 194.499 271.691 193.001C271.677 192.991 271.66 192.984 271.647 192.974C266.862 190.006 261.191 188.591 255.769 189.815H255.766C255.626 189.846 255.49 189.876 255.35 189.91Z" fill="#E6E6E6"/>
<path d="M255.367 190.091C255.483 190.122 255.599 190.156 255.711 190.19C258.1 190.872 260.405 191.817 262.585 193.008C262.694 193.066 262.803 193.127 262.912 193.189C265.925 194.87 268.66 197.007 271.019 199.524C271.021 199.526 271.022 199.528 271.023 199.531C271.05 199.558 271.081 199.589 271.105 199.616C271.65 200.202 272.175 200.812 272.672 201.439C273.646 202.608 274.43 203.923 274.996 205.334C275.429 206.511 275.582 207.772 275.443 209.018C275.433 209.144 275.416 209.267 275.399 209.393C275.385 209.492 275.371 209.591 275.354 209.693C275.129 211.06 274.741 212.43 274.85 213.823C274.916 214.538 275.133 215.23 275.486 215.854C275.839 216.478 276.32 217.021 276.898 217.446C277.291 217.75 277.711 218.017 278.152 218.243C278.784 218.569 279.441 218.84 280.119 219.055H281.458C281.277 219.003 281.1 218.952 280.919 218.901C280.278 218.72 279.649 218.501 279.035 218.243C278.684 218.097 278.342 217.928 278.012 217.739C276.642 216.952 275.501 215.745 275.262 214.134C275.054 212.723 275.457 211.312 275.695 209.932C275.736 209.693 275.773 209.458 275.794 209.223C275.957 208.028 275.858 206.811 275.504 205.658C275.014 204.22 274.281 202.876 273.337 201.684C272.753 200.909 272.13 200.164 271.469 199.452C271.387 199.36 271.302 199.268 271.214 199.176C268.804 196.641 266.022 194.489 262.963 192.793H262.96C260.685 191.527 258.273 190.528 255.769 189.815H255.766C255.653 189.781 255.537 189.747 255.425 189.716C255.19 189.655 255.135 190.026 255.367 190.091Z" fill="white"/>
<path d="M271.349 199.582C272.172 198.713 272.659 197.579 272.724 196.384C272.788 195.189 272.426 194.01 271.702 193.057C271.554 192.865 271.249 193.085 271.396 193.277C272.072 194.163 272.41 195.262 272.347 196.374C272.285 197.487 271.827 198.541 271.055 199.346C270.888 199.521 271.182 199.756 271.349 199.582Z" fill="white"/>
<path d="M275.561 209.016C273.116 209.104 270.727 208.268 268.871 206.673C268.688 206.515 268.452 206.808 268.635 206.966C270.57 208.622 273.057 209.488 275.601 209.39C275.844 209.381 275.802 209.007 275.561 209.016Z" fill="white"/>
<path d="M262.649 192.91C262.4 193.312 262.056 193.647 261.646 193.883C261.237 194.12 260.774 194.251 260.302 194.265C260.059 194.271 260.101 194.645 260.342 194.639C260.865 194.621 261.375 194.476 261.828 194.216C262.281 193.955 262.664 193.588 262.942 193.146C262.972 193.106 262.985 193.057 262.98 193.008C262.975 192.959 262.951 192.913 262.913 192.881C262.874 192.85 262.825 192.836 262.775 192.841C262.726 192.846 262.68 192.871 262.649 192.91Z" fill="white"/>
<path d="M0 219.331C-0.000152588 219.384 0.0102234 219.437 0.0305481 219.486C0.0508728 219.535 0.080719 219.58 0.118408 219.618C0.156097 219.655 0.200867 219.685 0.250153 219.706C0.299408 219.726 0.352234 219.736 0.405518 219.736H293.583C293.691 219.736 293.794 219.693 293.87 219.617C293.946 219.541 293.989 219.438 293.989 219.331C293.989 219.223 293.946 219.12 293.87 219.044C293.794 218.968 293.691 218.925 293.583 218.925H0.405518C0.352234 218.925 0.299408 218.935 0.250153 218.956C0.200867 218.976 0.156097 219.006 0.118408 219.043C0.080719 219.081 0.0508728 219.126 0.0305481 219.175C0.0102234 219.224 -0.000152588 219.277 0 219.331Z" fill="#CCCCCC"/>
</svg>
