<svg width="242" height="251" viewBox="0 0 242 251" fill="none" xmlns="http://www.w3.org/2000/svg">
<g clip-path="url(#clip0_3455_2821)">
<path d="M118.809 250.979C184.149 250.979 237.118 249.093 237.118 246.766C237.118 244.439 184.149 242.553 118.809 242.553C53.4688 242.553 0.5 244.439 0.5 246.766C0.5 249.093 53.4688 250.979 118.809 250.979Z" fill="#FAE7EC"/>
<path d="M87.7062 7.64828C95.2434 0.937683 107.074 -0.429976 117.843 0.104581C151.669 1.78361 182.203 18.0993 208.614 36.5542C218.176 43.2351 227.589 50.4351 233.796 59.6353C246.43 78.364 242.682 104.309 225.114 119.738C219.137 124.988 211.891 129.012 204.452 132.579C191.226 138.922 176.954 144.014 161.943 145.463C151.237 146.497 140.401 145.657 129.758 144.215C100.024 140.186 70.8374 131.277 46.3749 116.034C35.6458 109.349 25.533 101.038 21.1107 90.2228C16.6883 79.4078 19.5186 65.703 30.4741 59.3016C35.0052 56.654 40.4227 55.4582 45.7266 54.3354C53.5337 52.6828 61.4661 51.0535 68.5114 47.6937C75.7883 44.2233 84.4049 37.5123 82.9641 29.8311C81.4182 21.5893 80.1778 14.351 87.7062 7.64828Z" fill="#FAE7EC"/>
<path d="M165.526 95.1808C165.011 94.1845 162.288 87.9929 162.288 87.9929L157.724 76.1791C157.724 76.1791 154.486 71.1974 154.486 70.2723C154.486 69.3471 148.598 65.6464 148.598 65.6464C148.598 65.6464 143.814 64.2231 143.446 64.0807C143.078 63.9384 137.41 62.0652 137.41 62.0652C137.41 62.0652 135.179 59.1332 134.861 59.8989L134.86 59.9008C134.849 59.8815 134.837 59.8647 134.825 59.8448C134.369 58.9936 134.081 58.0631 133.975 57.1035C133.962 57.0182 133.952 56.9282 133.941 56.8393C135.411 55.8439 136.616 54.5054 137.451 52.9398C138.287 51.3742 138.727 49.6287 138.735 47.8546C138.734 47.3875 138.703 46.921 138.641 46.458C138.681 46.4327 138.724 46.4104 138.767 46.3914C138.859 46.3516 138.836 46.3193 138.769 46.2856C138.792 46.2735 138.815 46.2606 138.838 46.2508C138.96 46.1979 138.878 46.1579 138.76 46.1103L138.767 46.1067C138.933 46.0346 138.724 45.9869 138.555 45.9107C138.546 45.8614 138.537 45.812 138.528 45.763C138.565 45.6692 138.588 45.5703 138.595 45.4697C138.61 45.4771 138.624 45.4852 138.64 45.4921C138.681 45.3087 138.68 45.1184 138.637 44.9354C138.626 44.9726 138.613 45.0091 138.598 45.0447C138.609 44.8789 138.575 44.7132 138.499 44.565C138.424 44.4169 138.31 44.2916 138.17 44.2023C138.161 44.1949 138.152 44.187 138.143 44.1795L138.456 40.9868C143.058 40.7695 143.866 32.946 142.816 32.5114C141.766 32.0767 142.816 31.135 142.816 29.2516C142.816 27.3681 139.344 25.2674 139.344 25.2674C139.344 25.2674 137.89 25.9918 135.63 22.3698C133.369 18.7479 125.052 18.1683 124.486 19.11C123.921 20.0518 120.207 21.2832 115.362 22.6596C110.517 24.0359 111.405 29.7587 112.213 30.9901C112.878 32.0082 113.268 33.1813 113.343 34.3948C113.343 35.1192 114.877 38.1616 114.877 38.1616C114.394 39.2159 115.625 44.9914 115.99 46.6329C115.984 46.6833 115.978 46.7336 115.973 46.7843C115.97 46.7892 115.966 46.7934 115.963 46.7985C115.945 46.825 115.93 46.8525 115.916 46.881C115.837 47.0511 115.811 47.2406 115.841 47.4255C115.815 47.6275 115.843 47.833 115.923 48.0204C115.951 49.5669 116.309 51.0896 116.973 52.4865C117.638 53.8834 118.593 55.1224 119.776 56.1204C119.782 56.2191 119.787 56.3186 119.793 56.4203C119.861 57.761 119.899 59.3467 119.828 60.8639C119.825 60.9416 119.819 61.0176 119.815 61.0948C119.548 61.1488 119.297 61.2647 119.083 61.4333C118.869 61.6019 118.698 61.8184 118.583 62.0652C118.127 62.942 115.477 64.2942 115.477 64.2942C115.477 64.2942 110.84 64.5077 110.398 65.3617C109.957 66.2158 103.259 69.0624 103.259 69.0624C103.259 69.0624 99.7261 71.1263 100.241 73.4748C100.511 74.702 99.7548 76.6084 98.9718 78.15C97.334 77.5295 95.6285 77.1046 93.8908 76.8842L97.643 80.4707C97.5644 80.5933 97.5181 80.6627 97.5181 80.6627L95.3836 88.2064C95.3836 88.2064 94.6476 90.8396 93.9116 91.4801C93.1756 92.1206 94.574 97.9563 94.574 97.9563C94.574 97.9563 93.7644 102.084 93.102 103.152C92.4396 104.219 94.1324 106.852 94.1324 106.852L97.5181 114.538L106.497 116.816C106.497 116.816 107.096 116.942 108.063 117.149C108.032 117.333 108.001 117.516 107.97 117.698C107.537 120.146 106.969 122.398 106.277 123.007C104.584 124.502 104.657 131.191 104.657 131.191L104.731 140.657C104.731 140.657 105.32 152.328 105.025 152.755C104.84 153.025 105.213 153.464 106.196 153.859C106.168 154.035 106.141 154.213 106.115 154.395C105.838 156.331 105.714 158.54 106.35 159.516C106.626 160.044 106.778 160.628 106.792 161.224C106.792 162.149 108.19 164.071 108.19 164.071C108.19 164.071 107.086 171.97 108.926 174.675C110.766 177.379 112.312 182.289 111.429 183.428C111.429 183.428 109.883 186.773 110.619 188.268C111.355 189.762 110.619 190.616 109.662 190.972C108.706 191.328 108.788 194.246 108.788 194.246L110.546 208.123C110.546 208.123 111.502 210.97 110.693 211.966C109.883 212.963 109.883 217.944 111.134 219.652C112.386 221.36 109.368 224.492 109.368 224.492C109.368 224.492 107.528 227.125 110.472 227.979C110.472 227.979 111.061 228.121 109.957 229.26C108.853 230.399 108.632 231.822 109.368 232.32C109.521 232.411 109.68 232.491 109.845 232.557C109.818 232.726 109.788 232.9 109.754 233.086C109.471 234.572 108.938 236.507 107.97 237.444C106.092 239.366 104.472 241.523 103.15 243.86C102.14 245.773 101.699 247.564 102.817 248.404C105.467 250.397 108.853 251.037 110.84 250.254C112.827 249.471 115.624 247.052 115.624 247.052L116.287 244.276C116.287 244.276 115.845 242.568 118.053 241.928C120.261 241.287 122.322 239.01 122.322 239.01V235.321C122.856 235.015 123.373 234.679 123.868 234.313C123.868 234.313 124.898 230.683 123.868 229.473C122.837 228.264 122.469 227.837 123.794 227.054C125.119 226.271 125.298 224.563 124.327 223.068C123.352 221.574 121.807 219.368 123.131 216.236C124.456 213.105 124.942 203.497 124.942 203.497C124.942 203.497 124.324 196.95 124.942 195.455C125.56 193.961 124.236 190.972 124.236 190.972C124.236 190.972 124.677 187.271 125.487 185.563C126.296 183.855 126.959 174.817 126.959 174.817C126.959 174.817 128.431 170.974 128.431 168.483C128.431 165.992 126.149 160.014 129.535 158.448C129.535 158.448 131.007 159.729 130.418 164.854C130.418 164.854 132.111 170.832 132.111 172.682C132.111 174.532 133.362 181.222 133.362 181.222C133.362 181.222 133.509 183.357 134.025 184.14C134.54 184.923 134.025 187.058 134.025 187.058C134.025 187.058 135.938 188.837 135.423 189.976C134.908 191.114 135.511 193.682 135.511 193.682L135.055 209.618C135.055 209.618 133.73 216.45 136.821 220.578C136.821 220.578 135.717 226.627 135.055 227.054C134.393 227.481 137.484 231.181 137.484 231.181C137.484 231.181 136.627 233.579 138.367 233.696V237.658C138.971 238.724 139.8 239.647 140.796 240.362C142.415 241.501 141.753 245.415 141.753 245.415C141.753 245.415 143.814 250.397 149.26 249.329C154.707 248.262 155.443 247.763 155.148 245.984C155.042 245.335 154.807 244.177 154.468 242.861C153.882 240.575 152.984 237.817 151.91 236.456C150.217 234.313 148.819 229.829 148.819 229.829C148.819 229.829 148.156 228.335 148.819 227.837C149.481 227.338 149.187 226.413 149.187 226.413C149.187 226.413 149.831 224.563 149.251 223.424C148.671 222.286 150.364 219.937 150.364 219.937L149.849 208.977L150.364 193.036C150.364 193.036 148.082 190.403 149.039 188.837C149.996 187.271 147.935 185.065 147.935 185.065C147.935 185.065 147.715 184.994 148.303 183.215C148.656 182.166 148.603 181.024 148.156 180.012C148.156 180.012 146.905 175.6 149.113 172.255C149.113 172.255 150.07 167.843 150.364 165.565C150.567 163.983 151.839 158.07 152.596 154.611C152.639 154.416 152.68 154.229 152.719 154.05C153.809 154.109 154.633 154.179 154.633 154.179C154.633 154.179 152.94 142.436 154.633 140.016C156.326 137.597 153.308 119.093 153.308 119.093C153.308 119.093 152.587 115.859 152.142 112.56C152.117 112.372 152.094 112.184 152.07 111.996C153.437 111.887 154.809 111.857 156.179 111.905C159.712 112.119 163.171 110.766 163.244 109.414C163.318 108.062 165.232 102.725 165.526 101.515C165.821 100.305 166.041 96.1771 165.526 95.1808Z" fill="url(#paint0_linear_3455_2821)"/>
<path d="M122.579 232.471V239.06C122.579 239.06 120.594 241.328 118.466 241.965C116.338 242.603 116.764 244.304 116.764 244.304L116.126 247.067C116.126 247.067 113.431 249.476 111.516 250.256C109.601 251.035 106.339 250.397 103.785 248.413C102.707 247.577 103.133 245.794 104.106 243.89C105.374 241.57 106.934 239.423 108.75 237.501C109.683 236.569 110.197 234.642 110.469 233.162C110.67 232.054 110.736 231.195 110.736 231.195L122.579 232.471Z" fill="#4C495A"/>
<path opacity="0.1" d="M122.579 237.388V239.06C122.579 239.06 120.594 241.328 118.466 241.965C116.338 242.603 116.764 244.304 116.764 244.304L116.126 247.067C116.126 247.067 113.431 249.476 111.516 250.256C109.601 251.035 106.339 250.397 103.785 248.413C102.707 247.577 103.133 245.794 104.106 243.89C104.061 245.891 104.654 248.138 107.544 248.059C110.664 247.96 113.671 246.868 116.126 244.941C116.126 244.941 116.055 240.265 119.317 239.202C120.509 238.809 121.616 238.193 122.579 237.388Z" fill="black"/>
<path d="M148.536 249.334C143.288 250.397 141.302 245.437 141.302 245.437C141.302 245.437 141.941 241.54 140.38 240.406C139.416 239.688 138.617 238.769 138.04 237.714V231.195L144.423 226.66L147.878 229.716L148.111 229.92C148.111 229.92 149.458 234.384 151.089 236.518C152.125 237.873 152.99 240.619 153.555 242.895C153.881 244.204 154.108 245.358 154.21 246.004C154.494 247.776 153.784 248.272 148.536 249.334Z" fill="#4C495A"/>
<path opacity="0.1" d="M148.536 249.334C143.288 250.397 141.302 245.437 141.302 245.437C141.302 245.437 141.941 241.54 140.38 240.406C139.416 239.688 138.617 238.769 138.04 237.714V235.189C139.053 236.257 140.962 238.326 141.373 239.202C141.941 240.406 142.012 244.8 144.636 245.579C147.26 246.358 152.366 247.067 152.791 245.083C152.968 244.329 153.224 243.596 153.555 242.895C153.881 244.204 154.108 245.358 154.21 246.004C154.494 247.776 153.784 248.272 148.536 249.334Z" fill="black"/>
<path opacity="0.1" d="M110.736 231.195L122.58 232.471V235.954C121.243 236.745 119.329 237.584 118.253 236.722C116.665 235.452 111.942 233.839 110.469 233.162C110.671 232.054 110.736 231.195 110.736 231.195Z" fill="black"/>
<path opacity="0.1" d="M148.111 230.487C146.48 229.92 143.572 232.4 139.742 233.959C139.21 234.209 138.629 234.339 138.04 234.338V231.195L144.423 226.66L147.878 229.716C147.931 229.979 148.009 230.237 148.111 230.487Z" fill="black"/>
<path d="M152.295 152.473C152.295 152.473 152.071 153.516 151.75 155.03C151.021 158.473 149.796 164.36 149.6 165.936C149.316 168.203 148.394 172.596 148.394 172.596C146.267 175.927 147.472 180.32 147.472 180.32C147.904 181.331 147.954 182.463 147.614 183.508C147.047 185.28 147.26 185.351 147.26 185.351C147.26 185.351 149.245 187.547 148.323 189.106C147.401 190.665 149.6 193.287 149.6 193.287L149.104 209.159L149.6 220.071C149.6 220.071 147.969 222.409 148.528 223.543C149.086 224.676 148.465 226.519 148.465 226.519C148.465 226.519 148.749 227.44 148.111 227.936C147.472 228.432 148.111 229.92 148.111 229.92C146.479 229.353 143.572 231.833 139.742 233.392C135.912 234.951 137.189 231.266 137.189 231.266C137.189 231.266 134.21 227.581 134.849 227.156C135.487 226.731 136.551 220.708 136.551 220.708C133.572 216.599 134.849 209.796 134.849 209.796L135.288 193.93C135.288 193.93 134.707 191.373 135.203 190.24C135.7 189.106 133.856 187.335 133.856 187.335C133.856 187.335 134.352 185.209 133.856 184.43C133.359 183.65 133.217 181.524 133.217 181.524C133.217 181.524 132.012 174.864 132.012 173.022C132.012 171.179 130.381 165.227 130.381 165.227C130.948 160.126 129.53 158.85 129.53 158.85C126.267 160.409 128.466 166.361 128.466 168.841C128.466 171.321 127.047 175.147 127.047 175.147C127.047 175.147 126.409 184.146 125.629 185.847C124.849 187.547 124.423 191.232 124.423 191.232C124.423 191.232 125.7 194.208 125.104 195.696C124.508 197.184 125.104 203.703 125.104 203.703C125.104 203.703 124.636 213.268 123.359 216.386C122.083 219.504 123.572 221.7 124.511 223.188C125.447 224.676 125.274 226.377 123.998 227.156C122.721 227.936 123.076 228.361 124.069 229.565C125.062 230.77 124.069 234.384 124.069 234.384C124.069 234.384 120.026 237.572 118.253 236.155C116.48 234.738 110.807 232.896 110.097 232.4C109.388 231.904 109.601 230.487 110.665 229.353C111.729 228.219 111.161 228.077 111.161 228.077C108.324 227.227 110.097 224.605 110.097 224.605C110.097 224.605 113.005 221.488 111.799 219.787C110.594 218.087 110.594 213.127 111.374 212.135C112.154 211.143 111.232 208.308 111.232 208.308L109.539 194.491C109.539 194.491 109.459 191.586 110.381 191.232C111.303 190.877 112.012 190.027 111.303 188.539C110.594 187.051 112.083 183.721 112.083 183.721C112.934 182.587 111.445 177.698 109.672 175.006C107.899 172.313 108.963 164.448 108.963 164.448C108.963 164.448 107.615 162.535 107.615 161.614C107.602 161.022 107.456 160.441 107.19 159.913C106.577 158.941 106.696 156.741 106.963 154.814C107.221 152.949 107.615 151.339 107.615 151.339L152.295 152.473Z" fill="#5F5D7E"/>
<path d="M138.395 72.1921L124.424 75.4515C124.424 75.4515 117.544 69.6412 119.246 66.5235C119.831 65.4522 120.089 63.6241 120.177 61.6911C120.245 60.1804 120.208 58.6017 120.143 57.2668C120.044 55.3366 119.885 53.911 119.885 53.911C119.885 53.911 134.211 45.8333 133.714 53.911C133.613 55.2562 133.645 56.608 133.808 57.947C133.909 58.8998 134.187 59.8253 134.628 60.6764C135.393 62.0397 136.338 62.0595 136.338 62.0595L138.395 72.1921Z" fill="#F8DFE5"/>
<path opacity="0.1" d="M133.808 57.947C131.789 59.3941 129.338 60.1146 126.856 59.9911C124.375 59.8675 122.008 58.9072 120.143 57.2668C120.044 55.3366 119.885 53.911 119.885 53.911C119.885 53.911 134.211 45.8333 133.714 53.911C133.613 55.2561 133.645 56.608 133.808 57.947Z" fill="black"/>
<path d="M127.402 59.7213C133.473 59.7213 138.395 54.8041 138.395 48.7384C138.395 42.6728 133.473 37.7556 127.402 37.7556C121.331 37.7556 116.41 42.6728 116.41 48.7384C116.41 54.8041 121.331 59.7213 127.402 59.7213Z" fill="#F8DFE5"/>
<path opacity="0.1" d="M138.395 72.1921L124.424 75.4515C124.424 75.4515 117.544 69.6412 119.246 66.5235C119.831 65.4522 120.089 63.6241 120.177 61.6911C120.485 63.3719 121.388 64.8859 122.721 65.9567C125.913 68.0824 125.416 70.7041 125.416 70.7041L131.161 70.4915C130.806 68.1532 132.934 66.8778 133.643 66.5944C134.352 66.3109 133.998 65.0355 133.998 65.0355L134.628 60.6764C135.393 62.0397 136.338 62.0595 136.338 62.0595L138.395 72.1921Z" fill="black"/>
<path opacity="0.1" d="M152.295 152.473C152.295 152.473 152.071 153.516 151.75 155.03C150.207 154.947 148.168 154.888 147.26 155.095C145.7 155.449 139.459 155.591 139.459 155.591L123.998 156.138V155.662C122.22 155.676 120.444 155.794 118.679 156.016C116.055 156.37 111.942 155.874 109.317 155.449C108.51 155.333 107.719 155.12 106.963 154.814C107.221 152.949 107.615 151.339 107.615 151.339L152.295 152.473Z" fill="black"/>
<path d="M151.089 107.479C150.865 108.802 151.03 110.996 151.313 113.162C151.742 116.447 152.437 119.666 152.437 119.666C152.437 119.666 155.344 138.089 153.713 140.498C152.082 142.907 153.713 154.599 153.713 154.599C153.713 154.599 148.82 154.174 147.26 154.528C145.699 154.882 139.458 155.024 139.458 155.024L123.998 155.571V155.095C122.219 155.109 120.443 155.227 118.679 155.449C116.055 155.803 111.941 155.307 109.317 154.882C106.693 154.457 105.629 153.607 105.913 153.182C106.197 152.756 105.629 141.136 105.629 141.136L105.558 131.712C105.558 131.712 105.488 125.051 107.119 123.563C107.785 122.957 108.333 120.715 108.75 118.277C109.348 114.749 109.672 110.809 109.672 110.809L98.892 81.9703L98.6792 81.4035C98.6792 81.4035 101.8 76.5852 101.303 74.2469C100.807 71.9086 104.211 69.8538 104.211 69.8538C104.211 69.8538 110.665 67.0195 111.09 66.1692C111.516 65.3189 115.984 65.1064 115.984 65.1064C115.984 65.1064 118.537 63.7601 118.977 62.8871C119.084 62.6433 119.247 62.4284 119.454 62.2604C119.661 62.0923 119.904 61.9758 120.165 61.9207C120.466 63.6221 121.374 65.1569 122.721 66.2401C125.913 68.3658 125.416 70.9875 125.416 70.9875L131.161 70.775C130.806 68.4367 132.934 67.1612 133.643 66.8778C134.352 66.5944 133.997 65.319 133.997 65.319L134.661 60.7303C134.968 59.9678 137.118 62.8871 137.118 62.8871C137.118 62.8871 142.579 64.7521 142.933 64.8938C143.288 65.0355 147.898 66.4527 147.898 66.4527C147.898 66.4527 153.571 70.1372 153.571 71.0584C153.571 71.9795 156.692 76.9395 156.692 76.9395C156.692 76.9395 156.655 77.1379 156.587 77.5007C155.866 81.4063 151.608 104.432 151.089 107.479Z" fill="#C00016"/>
<path d="M128.395 96C128.395 96 116.126 92.7406 114.92 91.9612C113.714 91.1817 106.622 95.7166 115.275 101.881C115.275 101.881 125.855 104.078 128.685 101.881C131.515 99.6846 128.395 96 128.395 96Z" fill="#F8DFE5"/>
<path opacity="0.1" d="M154.919 76.5852L156.409 76.6561L160.806 88.4183C160.806 88.4183 163.43 94.5829 163.926 95.5749C164.423 96.5669 164.21 100.677 163.926 101.881C163.642 103.086 161.799 108.4 161.728 109.746C161.657 111.093 158.323 112.439 154.919 112.226C151.515 112.014 143.572 113.077 143.572 113.077C143.572 113.077 135.089 112.191 129.884 114.848C129.884 114.848 126.551 107.975 126.906 95.1497C126.906 95.1497 132.792 94.7954 134.282 95.3623C135.771 95.9292 143.005 97.5589 143.927 96.7086C144.849 95.8583 149.033 98.2674 149.033 98.2674C149.246 97.8002 149.356 97.2928 149.356 96.7794C149.356 96.2661 149.246 95.7587 149.033 95.2914C148.324 93.5909 147.118 88.2766 148.678 86.576C150.239 84.8755 154.919 76.5852 154.919 76.5852Z" fill="black"/>
<path opacity="0.1" d="M151.314 113.162C147.793 113.4 143.856 113.927 143.856 113.927C143.856 113.927 135.374 113.04 130.168 115.698C130.168 115.698 126.835 108.825 127.189 96C127.189 96 133.076 95.6457 134.565 96.2126C136.055 96.7794 143.288 98.4092 144.21 97.5589C145.132 96.7086 149.317 99.1177 149.317 99.1177C149.53 98.6505 149.64 98.1431 149.64 97.6297C149.64 97.1164 149.53 96.609 149.317 96.1417C148.607 94.4412 147.402 89.1269 148.962 87.4263C150.522 85.7258 155.203 77.4355 155.203 77.4355L156.587 77.5007C155.867 81.4063 151.609 104.432 151.09 107.479C150.866 108.802 151.03 110.996 151.314 113.162Z" fill="black"/>
<path d="M155.203 76.8686L156.692 76.9395L161.089 88.7018C161.089 88.7018 163.713 94.8663 164.21 95.8583C164.706 96.8503 164.494 100.96 164.21 102.165C163.926 103.369 162.082 108.683 162.011 110.03C161.94 111.376 158.607 112.722 155.203 112.51C151.799 112.297 143.856 113.36 143.856 113.36C143.856 113.36 135.373 112.474 130.168 115.131C130.168 115.131 126.835 108.258 127.189 95.4332C127.189 95.4332 133.076 95.0789 134.565 95.6457C136.055 96.2126 143.288 97.8423 144.21 96.992C145.132 96.1417 149.317 98.5509 149.317 98.5509C149.53 98.0836 149.64 97.5762 149.64 97.0629C149.64 96.5495 149.53 96.0421 149.317 95.5749C148.607 93.8743 147.402 88.56 148.962 86.8595C150.522 85.1589 155.203 76.8686 155.203 76.8686Z" fill="#B30014"/>
<path d="M140.219 102.895L141.989 103.99L151.85 88.0778L150.081 86.983L140.219 102.895Z" fill="#DFE6F5"/>
<path d="M156.907 85.9228C158.65 83.1106 158.462 79.8408 156.488 78.6195C154.514 77.3982 151.501 78.6879 149.758 81.5001C148.015 84.3123 148.202 87.5821 150.177 88.8034C152.151 90.0247 155.164 88.735 156.907 85.9228Z" fill="#DFE6F5"/>
<path opacity="0.1" d="M155.898 85.2988C157.149 83.2802 157.015 80.9331 155.598 80.0565C154.18 79.1798 152.018 80.1055 150.767 82.1241C149.516 84.1427 149.65 86.4898 151.067 87.3664C152.484 88.2431 154.647 87.3173 155.898 85.2988Z" fill="black"/>
<path d="M135.179 111.028L136.949 112.123L143.085 102.222L141.315 101.127L135.179 111.028Z" fill="#53526B"/>
<path d="M124.778 111.73L129.104 110.526C129.104 110.526 150.451 111.093 143.288 102.306C143.288 102.306 139.529 98.6926 131.657 101.598C123.785 104.503 121.586 104.857 121.586 104.857L124.778 111.73Z" fill="#F8DFE5"/>
<path opacity="0.1" d="M121.586 74.6721C122.056 74.6721 122.437 74.2914 122.437 73.8218C122.437 73.3522 122.056 72.9715 121.586 72.9715C121.116 72.9715 120.735 73.3522 120.735 73.8218C120.735 74.2914 121.116 74.6721 121.586 74.6721Z" fill="black"/>
<path opacity="0.1" d="M136.196 74.1761C136.666 74.1761 137.047 73.7954 137.047 73.3258C137.047 72.8562 136.666 72.4755 136.196 72.4755C135.726 72.4755 135.345 72.8562 135.345 73.3258C135.345 73.7954 135.726 74.1761 136.196 74.1761Z" fill="black"/>
<path d="M121.586 74.3886C122.056 74.3886 122.437 74.008 122.437 73.5384C122.437 73.0688 122.056 72.6881 121.586 72.6881C121.116 72.6881 120.735 73.0688 120.735 73.5384C120.735 74.008 121.116 74.3886 121.586 74.3886Z" fill="white"/>
<path opacity="0.1" d="M122.792 86.4343C123.262 86.4343 123.643 86.0536 123.643 85.584C123.643 85.1144 123.262 84.7338 122.792 84.7338C122.322 84.7338 121.941 85.1144 121.941 85.584C121.941 86.0536 122.322 86.4343 122.792 86.4343Z" fill="black"/>
<path opacity="0.1" d="M136.622 85.584C137.092 85.584 137.473 85.2034 137.473 84.7338C137.473 84.2642 137.092 83.8835 136.622 83.8835C136.152 83.8835 135.771 84.2642 135.771 84.7338C135.771 85.2034 136.152 85.584 136.622 85.584Z" fill="black"/>
<path d="M122.792 86.1509C123.262 86.1509 123.643 85.7702 123.643 85.3006C123.643 84.831 123.262 84.4503 122.792 84.4503C122.322 84.4503 121.941 84.831 121.941 85.3006C121.941 85.7702 122.322 86.1509 122.792 86.1509Z" fill="white"/>
<path opacity="0.1" d="M136.267 126.615C136.737 126.615 137.118 126.234 137.118 125.765C137.118 125.295 136.737 124.914 136.267 124.914C135.797 124.914 135.416 125.295 135.416 125.765C135.416 126.234 135.797 126.615 136.267 126.615Z" fill="black"/>
<path opacity="0.1" d="M125.067 126.615C125.537 126.615 125.918 126.234 125.918 125.765C125.918 125.295 125.537 124.914 125.067 124.914C124.597 124.914 124.216 125.295 124.216 125.765C124.216 126.234 124.597 126.615 125.067 126.615Z" fill="black"/>
<path d="M136.267 126.332C136.737 126.332 137.118 125.951 137.118 125.481C137.118 125.012 136.737 124.631 136.267 124.631C135.797 124.631 135.416 125.012 135.416 125.481C135.416 125.951 135.797 126.332 136.267 126.332Z" fill="white"/>
<path opacity="0.1" d="M125.917 140.852C126.387 140.852 126.768 140.472 126.768 140.002C126.768 139.533 126.387 139.152 125.917 139.152C125.447 139.152 125.066 139.533 125.066 140.002C125.066 140.472 125.447 140.852 125.917 140.852Z" fill="black"/>
<path opacity="0.1" d="M136.622 140.002C137.092 140.002 137.473 139.621 137.473 139.152C137.473 138.682 137.092 138.302 136.622 138.302C136.152 138.302 135.771 138.682 135.771 139.152C135.771 139.621 136.152 140.002 136.622 140.002Z" fill="black"/>
<path d="M125.917 140.569C126.387 140.569 126.768 140.188 126.768 139.719C126.768 139.249 126.387 138.868 125.917 138.868C125.447 138.868 125.066 139.249 125.066 139.719C125.066 140.188 125.447 140.569 125.917 140.569Z" fill="white"/>
<path d="M125.067 126.332C125.537 126.332 125.918 125.951 125.918 125.481C125.918 125.012 125.537 124.631 125.067 124.631C124.597 124.631 124.216 125.012 124.216 125.481C124.216 125.951 124.597 126.332 125.067 126.332Z" fill="white"/>
<path d="M136.622 139.719C137.092 139.719 137.473 139.338 137.473 138.868C137.473 138.399 137.092 138.018 136.622 138.018C136.152 138.018 135.771 138.399 135.771 138.868C135.771 139.338 136.152 139.719 136.622 139.719Z" fill="white"/>
<path d="M136.196 73.8927C136.666 73.8927 137.047 73.512 137.047 73.0424C137.047 72.5728 136.666 72.1921 136.196 72.1921C135.726 72.1921 135.345 72.5728 135.345 73.0424C135.345 73.512 135.726 73.8927 136.196 73.8927Z" fill="white"/>
<path d="M136.622 85.3006C137.092 85.3006 137.473 84.9199 137.473 84.4503C137.473 83.9807 137.092 83.6001 136.622 83.6001C136.152 83.6001 135.771 83.9807 135.771 84.4503C135.771 84.9199 136.152 85.3006 136.622 85.3006Z" fill="white"/>
<path opacity="0.1" d="M137.898 114.281C137.898 114.281 138.04 133.696 138.466 137.168C138.466 137.168 138.62 115.196 137.898 114.281Z" fill="black"/>
<path opacity="0.1" d="M141.515 123.28C141.223 123.28 147.331 146.025 147.614 147.655C147.898 149.284 143.217 123.28 141.515 123.28Z" fill="black"/>
<path opacity="0.1" d="M146.338 119.595C146.338 119.808 149.742 131.925 151.444 132.562C153.146 133.2 146.338 119.595 146.338 119.595Z" fill="black"/>
<path opacity="0.1" d="M159.742 96C159.742 96 152.508 96.3222 152.295 97.3657C152.082 98.4092 159.742 96 159.742 96Z" fill="black"/>
<path opacity="0.1" d="M146.976 188.397C146.976 188.397 141.799 190.594 142.579 190.736C143.359 190.877 146.976 188.397 146.976 188.397Z" fill="black"/>
<path opacity="0.1" d="M136.267 185.138C136.066 184.685 139.742 186.98 139.742 187.264C139.742 187.547 136.551 185.776 136.267 185.138Z" fill="black"/>
<path opacity="0.1" d="M141.09 192.578C141.09 192.578 145.132 192.374 145.416 193.929C145.7 195.483 141.09 192.578 141.09 192.578Z" fill="black"/>
<path opacity="0.1" d="M112.012 192.569C112.012 192.569 116.409 191.71 116.764 192.569C117.118 193.428 112.012 192.569 112.012 192.569Z" fill="black"/>
<path opacity="0.1" d="M113.643 219.291C113.643 219.291 113.932 222.905 112.866 223.755C111.799 224.605 113.643 219.291 113.643 219.291Z" fill="black"/>
<path opacity="0.1" d="M113.106 226.944C114.495 227.085 121.799 225.81 121.728 226.944C121.657 228.077 113.106 226.944 113.106 226.944Z" fill="black"/>
<path opacity="0.1" d="M146.621 222.551C146.621 222.551 144.13 222.168 144.738 223.847L146.621 222.551Z" fill="black"/>
<path opacity="0.1" d="M100.31 81.1201H98.9629L96.9062 88.6309C96.9062 88.6309 96.197 91.2526 95.4878 91.8903C94.7786 92.528 96.1261 98.3383 96.1261 98.3383C96.1261 98.3383 95.346 102.448 94.7077 103.511C94.0694 104.574 95.7006 107.195 95.7006 107.195L98.9629 114.848L107.615 117.115C107.615 117.115 122.863 120.446 123.572 120.942C124.281 121.438 124.92 120.729 125.416 116.123C125.913 111.518 127.26 102.59 128.324 102.165C128.324 102.165 119.813 103.086 119.104 102.944C118.395 102.802 114.991 103.015 114.991 103.015C114.991 103.015 110.523 102.731 109.814 103.157C109.105 103.582 110.736 101.099 110.736 101.099C111.034 99.9615 111.034 98.7668 110.736 97.6297C110.239 95.7166 109.956 74.0344 100.31 81.1201Z" fill="black"/>
<path opacity="0.1" d="M128.04 103.015C126.977 103.44 125.629 112.368 125.133 116.974C124.636 121.579 123.998 122.288 123.289 121.792C122.713 121.389 112.548 119.116 108.75 118.277C109.349 114.749 109.672 110.809 109.672 110.809L98.8921 81.9703H100.027C109.672 74.8846 109.956 96.5669 110.452 98.48C110.751 99.6171 110.751 100.812 110.452 101.949C110.452 101.949 108.821 104.432 109.53 104.007C110.239 103.582 114.707 103.865 114.707 103.865C114.707 103.865 118.111 103.653 118.821 103.794C119.53 103.936 128.04 103.015 128.04 103.015Z" fill="black"/>
<path d="M100.027 81.4035H98.6792L96.6225 88.9143C96.6225 88.9143 95.9133 91.536 95.2041 92.1737C94.4949 92.8114 95.8424 98.6217 95.8424 98.6217C95.8424 98.6217 95.0623 102.731 94.424 103.794C93.7857 104.857 95.4169 107.479 95.4169 107.479L98.6792 115.131L107.331 117.399C107.331 117.399 122.579 120.729 123.289 121.225C123.998 121.721 124.636 121.013 125.132 116.407C125.629 111.801 126.976 102.873 128.04 102.448C128.04 102.448 119.53 103.369 118.821 103.227C118.111 103.086 114.707 103.298 114.707 103.298C114.707 103.298 110.239 103.015 109.53 103.44C108.821 103.865 110.452 101.382 110.452 101.382C110.751 100.245 110.751 99.0502 110.452 97.9132C109.956 96 109.672 74.3178 100.027 81.4035Z" fill="#B30014"/>
<path opacity="0.1" d="M104.637 107.054C104.637 107.054 100.736 114.423 100.027 113.573C99.3178 112.722 104.637 107.054 104.637 107.054Z" fill="black"/>
<path opacity="0.1" d="M100.594 102.857C100.594 102.857 96.9775 105.849 98.6796 106.629C100.382 107.408 100.594 102.857 100.594 102.857Z" fill="black"/>
<path opacity="0.1" d="M103.999 99.1886C104.282 99.2594 109.247 100.245 109.318 100.673C109.388 101.102 103.999 99.1886 103.999 99.1886Z" fill="black"/>
<path opacity="0.1" d="M138.426 47.2816C138.272 47.3358 138.14 47.4401 138.052 47.5778C137.964 47.7155 137.925 47.8786 137.941 48.0412C137.652 48.2963 137.246 47.9958 137.01 47.6699C136.772 47.3468 136.503 46.9472 136.142 46.9925C135.971 47.047 135.805 47.1163 135.646 47.1994C135.079 47.3808 134.599 46.7147 134.281 46.1309C133.728 45.1077 133.175 44.0855 132.622 43.0642C131.513 43.7076 130.202 43.033 129.101 42.367C128.001 41.7009 126.69 41.0235 125.578 41.6669C123.947 42.6079 123.887 45.7454 122.197 46.5192C121.652 46.7686 121.019 46.7147 120.514 47.0577C120.015 47.3978 119.746 48.0525 119.522 48.6789C119.439 49.0355 119.244 49.3562 118.966 49.5944C118.789 49.6867 118.592 49.7344 118.392 49.7333C117.891 49.8184 117.376 49.7461 116.917 49.5263C116.677 49.3755 116.495 49.1472 116.403 48.8792C116.31 48.6112 116.311 48.3196 116.407 48.0525C116.42 48.0242 116.435 47.9968 116.452 47.9703C116.634 47.7508 116.797 47.5167 116.94 47.2703C117.11 46.8196 116.866 46.2953 116.92 45.8078C117.008 44.9745 117.89 44.5352 118.041 43.7161C118.103 43.3958 118.038 43.0529 118.097 42.7298C118.106 42.6874 118.117 42.6457 118.132 42.605L117.612 42.9622C118.194 42.2848 118.486 41.3438 118.912 40.5218C119.384 39.6219 120.035 38.8271 120.824 38.1855C121.613 37.5439 122.524 37.0689 123.502 36.7891C125.351 36.2506 127.306 36.398 129.172 36.8543C130.947 37.2961 132.648 37.9961 134.219 38.9318C134.78 39.2326 135.279 39.6376 135.689 40.125C136.032 40.6305 136.323 41.1688 136.559 41.7321C137.11 42.8715 138.613 43.9258 137.416 44.0845C136.42 44.2177 137.328 44.915 137.85 45.3855C137.968 45.4777 138.07 45.5888 138.151 45.7142C138.238 45.8935 138.277 46.0918 138.266 46.2905C138.255 46.4893 138.194 46.6821 138.088 46.8508C137.887 47.1059 138.704 47.1569 138.426 47.2816Z" fill="black"/>
<path d="M138.426 46.9982C138.272 47.0524 138.14 47.1567 138.052 47.2943C137.964 47.432 137.925 47.5952 137.941 47.7578C137.652 48.0129 137.246 47.7124 137.01 47.3865C136.772 47.0634 136.503 46.6637 136.142 46.7091C135.971 46.7636 135.805 46.8328 135.646 46.916C135.079 47.0974 134.599 46.4313 134.281 45.8475C133.728 44.8243 133.175 43.8021 132.622 42.7808C131.513 43.4242 130.202 42.7496 129.101 42.0835C128.001 41.4175 126.69 40.7401 125.578 41.3835C123.947 42.3245 123.887 45.462 122.197 46.2358C121.652 46.4852 121.019 46.4313 120.514 46.7743C120.015 47.1144 119.746 47.7691 119.522 48.3955C119.439 48.752 119.244 49.0728 118.966 49.3109C118.789 49.4033 118.592 49.451 118.392 49.4498C117.891 49.5349 117.376 49.4626 116.917 49.2429C116.677 49.092 116.495 48.8637 116.403 48.5957C116.31 48.3278 116.311 48.0361 116.407 47.7691C116.42 47.7408 116.435 47.7134 116.452 47.6869C116.634 47.4674 116.797 47.2333 116.94 46.9868C117.11 46.5362 116.866 46.0119 116.92 45.5243C117.008 44.6911 117.89 44.2518 118.041 43.4326C118.103 43.1124 118.038 42.7694 118.097 42.4463C118.106 42.404 118.117 42.3623 118.132 42.3216L117.612 42.6787C118.194 42.0013 118.486 41.0604 118.912 40.2384C119.384 39.3385 120.035 38.5437 120.824 37.9021C121.613 37.2605 122.524 36.7854 123.502 36.5057C125.351 35.9672 127.306 36.1145 129.172 36.5709C130.947 37.0127 132.648 37.7126 134.219 38.6484C134.78 38.9491 135.279 39.3541 135.689 39.8416C136.032 40.347 136.323 40.8854 136.559 41.4486C137.11 42.588 138.613 43.6424 137.416 43.8011C136.42 43.9343 137.328 44.6315 137.85 45.102C137.968 45.1943 138.07 45.3054 138.151 45.4308C138.238 45.6101 138.277 45.8083 138.266 46.0071C138.255 46.2059 138.194 46.3986 138.088 46.5673C137.887 46.8224 138.704 46.8735 138.426 46.9982Z" fill="#865A61"/>
<path opacity="0.1" d="M137.85 45.102L137.737 46.2953C137.737 46.2953 125.833 31.2226 116.574 48.2424C116.574 48.2424 116.529 48.0355 116.452 47.6869C116.634 47.4674 116.797 47.2333 116.94 46.9868C117.11 46.5362 116.866 46.0119 116.92 45.5243C117.008 44.6911 117.89 44.2518 118.041 43.4326C118.103 43.1124 118.038 42.7694 118.097 42.4463C118.106 42.404 118.117 42.3623 118.132 42.3216L117.612 42.6787C118.194 42.0013 118.486 41.0604 118.912 40.2384C119.384 39.3385 120.035 38.5437 120.824 37.9021C121.613 37.2605 122.524 36.7854 123.502 36.5057C125.351 35.9672 127.306 36.1145 129.172 36.5709C130.947 37.0127 132.648 37.7126 134.219 38.6484C134.78 38.9491 135.279 39.3541 135.689 39.8416C136.032 40.347 136.323 40.8854 136.559 41.4486C137.11 42.588 138.613 43.6424 137.416 43.8011C136.42 43.9343 137.328 44.6316 137.85 45.102Z" fill="black"/>
<g opacity="0.1">
<path d="M138.143 46.8438C138.085 46.9097 138.042 46.9883 138.019 47.0733C137.995 47.1584 137.992 47.2477 138.008 47.3344C137.719 47.5895 137.313 47.289 137.078 46.9631C136.84 46.64 136.57 46.2403 136.21 46.2857C136.039 46.3402 135.873 46.4095 135.714 46.4926C135.146 46.674 134.667 46.0079 134.349 45.4241C133.796 44.4009 133.243 43.3787 132.689 42.3574C131.58 43.0008 130.27 42.3262 129.169 41.6601C128.068 40.9941 126.758 40.3167 125.646 40.9601C124.015 41.9011 123.955 45.0386 122.264 45.8124C121.72 46.0618 121.087 46.0079 120.582 46.3509C120.083 46.691 119.813 47.3457 119.589 47.9721C119.506 48.3286 119.311 48.6494 119.033 48.8876C118.856 48.9799 118.66 49.0276 118.46 49.0264C117.959 49.1115 117.443 49.0393 116.985 48.8195C116.71 48.6375 116.513 48.3597 116.432 48.0404C116.376 48.2943 116.399 48.5593 116.497 48.7999C116.596 49.0406 116.766 49.2452 116.985 49.3864C117.443 49.6061 117.959 49.6784 118.46 49.5933C118.66 49.5945 118.856 49.5468 119.033 49.4544C119.311 49.2163 119.506 48.8955 119.589 48.5389C119.813 47.9126 120.083 47.2578 120.582 46.9177C121.087 46.5748 121.72 46.6286 122.264 46.3792C123.955 45.6055 124.015 42.4679 125.646 41.5269C126.758 40.8836 128.068 41.5609 129.169 42.227C130.27 42.893 131.58 43.5676 132.689 42.9242C133.243 43.9446 133.796 44.9668 134.349 45.9909C134.667 46.5748 135.146 47.2408 135.714 47.0595C135.873 46.9763 136.039 46.9071 136.21 46.8525C136.57 46.8072 136.84 47.2068 137.078 47.5299C137.313 47.8559 137.719 48.1563 138.008 47.9012C137.993 47.7387 138.032 47.5755 138.12 47.4378C138.208 47.3001 138.339 47.1959 138.494 47.1416C138.715 47.0425 138.244 46.9895 138.143 46.8438Z" fill="black"/>
<path d="M137.216 44.0121C137.302 43.9777 137.392 43.9549 137.484 43.9446C138.012 43.8746 138.014 43.6302 137.805 43.2815C137.705 43.3351 137.596 43.3678 137.484 43.3777C136.914 43.4539 136.968 43.7148 137.216 44.0121Z" fill="black"/>
<path d="M138.302 46.3862C138.342 46.2035 138.341 46.0143 138.3 45.832C138.274 45.945 138.225 46.0513 138.156 46.144C138.067 46.2565 138.176 46.3293 138.302 46.3862Z" fill="black"/>
<path d="M117.004 45.5698C116.998 45.6022 116.991 45.6342 116.988 45.6678C116.976 45.9231 116.995 46.1788 117.043 46.4297C117.077 46.1428 117.063 45.8525 117.004 45.5698Z" fill="black"/>
<path d="M118.156 42.1118C118.022 42.3645 117.863 42.6026 117.68 42.8222L118.138 42.5072C118.135 42.3752 118.141 42.2431 118.156 42.1118Z" fill="black"/>
</g>
<path d="M116.573 47.959C116.573 47.959 114.862 40.3139 115.406 39.0878C115.406 39.0878 113.928 36.0586 113.928 35.3373C113.856 34.1338 113.482 32.9678 112.839 31.9475C112.061 30.7214 111.205 25.0236 115.873 23.6533C120.541 22.2829 124.12 21.0568 124.665 20.1192C125.21 19.1816 133.224 19.7586 135.402 23.3648C137.581 26.971 138.981 26.2497 138.981 26.2497C138.981 26.2497 142.327 28.3413 142.327 30.2166C142.327 32.0918 141.315 33.0294 142.327 33.4621C143.338 33.8949 142.56 41.6842 138.125 41.9006L137.736 46.0117C137.736 46.0117 125.832 30.9378 116.573 47.959Z" fill="#B30014"/>
<path opacity="0.1" d="M117.083 25.1431C117.083 25.1431 116.055 31.1659 117.934 33.1853L117.083 25.1431Z" fill="black"/>
<path opacity="0.1" d="M121.906 23.7613C121.906 23.7613 119.282 30.2093 119.92 31.4493L121.906 23.7613Z" fill="black"/>
<path opacity="0.1" d="M124.175 21.7065C124.175 21.7065 122.402 30.103 123.253 30.7762L124.175 21.7065Z" fill="black"/>
<path opacity="0.1" d="M127.225 23.9739C127.225 23.9739 125.026 29.3591 125.913 30.103L127.225 23.9739Z" fill="black"/>
<path opacity="0.1" d="M131.374 24.6116C131.374 24.6116 128.785 29.0048 129.317 29.7842L131.374 24.6116Z" fill="black"/>
<path opacity="0.1" d="M136.693 28.8985C136.693 28.8985 133.927 29.6425 134.494 30.5282L136.693 28.8985Z" fill="black"/>
<path opacity="0.1" d="M139.317 33.4688C139.317 33.4688 136.834 34.6733 137.295 35.311L139.317 33.4688Z" fill="black"/>
<path opacity="0.1" d="M115.406 39.0878C115.406 39.0878 131.261 32.6536 138.125 41.9006C138.125 41.9006 129.793 34.8222 115.406 39.0878Z" fill="black"/>
<path d="M109.677 91.955L111.886 89.7223L118.132 95.8908L115.923 98.1239L110.179 92.4508L109.677 91.955Z" fill="#53526B"/>
<path d="M95.1841 77.6415C95.1841 77.6415 104.853 78.4635 113.852 88.5836L110.101 92.3745L95.1841 77.6415Z" fill="#DFE6F5"/>
<path d="M124.186 95.7364C124.186 95.7364 114.892 92.3517 113.979 91.5423C113.066 90.7329 107.694 95.4421 114.248 101.844C114.248 101.844 122.262 104.125 124.405 101.844C126.549 99.5626 124.186 95.7364 124.186 95.7364Z" fill="#F8DFE5"/>
</g>
<defs>
<linearGradient id="paint0_linear_3455_2821" x1="129.392" y1="250.579" x2="129.392" y2="18.7099" gradientUnits="userSpaceOnUse">
<stop stop-color="#808080" stop-opacity="0.25"/>
<stop offset="0.53514" stop-color="#808080" stop-opacity="0.12"/>
<stop offset="1" stop-color="#808080" stop-opacity="0.1"/>
</linearGradient>
<clipPath id="clip0_3455_2821">
<rect width="241" height="251" fill="white" transform="translate(0.5)"/>
</clipPath>
</defs>
</svg>
