<svg width="442" height="76" viewBox="0 0 442 76" fill="none" xmlns="http://www.w3.org/2000/svg">
<path d="M101.382 68.7552C102.47 70.0858 103.928 70.2829 104.497 70.2829C106.969 70.2829 109.541 68.2131 109.541 64.7142C109.541 61.4125 107.217 59.3181 104.472 59.3181C103.434 59.3181 102.272 59.663 101.382 60.7226V59.5891H98.959V75.6051H101.382V68.7552ZM104.176 61.4864C105.931 61.4864 107.068 62.9648 107.068 64.8128C107.068 66.6115 105.931 68.1146 104.176 68.1146C102.643 68.1146 101.234 67.0058 101.234 64.8374C101.234 62.5706 102.643 61.4864 104.176 61.4864Z" fill="#E21013"/>
<path d="M112.069 69.9626H114.492V64.591C114.492 63.9011 114.492 62.9155 115.16 62.201C115.629 61.7082 116.148 61.6342 116.668 61.6342C116.915 61.6342 117.36 61.6589 117.904 62.0038L118.893 59.8109C118.225 59.4166 117.582 59.3181 116.989 59.3181C116.445 59.3181 115.975 59.392 115.506 59.663C115.16 59.8602 114.764 60.2051 114.492 60.5254V59.5891H112.069V69.9626Z" fill="#E21013"/>
<path d="M124.814 59.3181C121.674 59.3181 119.251 61.585 119.251 64.7882C119.251 67.9667 121.674 70.2829 124.814 70.2829C127.954 70.2829 130.377 67.9667 130.377 64.7882C130.377 61.585 127.954 59.3181 124.814 59.3181ZM124.814 68.1146C122.91 68.1146 121.724 66.8086 121.724 64.8128C121.724 62.4474 123.281 61.4864 124.814 61.4864C126.347 61.4864 127.904 62.4474 127.904 64.8128C127.904 66.8086 126.718 68.1146 124.814 68.1146Z" fill="#E21013"/>
<path d="M132.905 59.5891V75.6051H135.328V59.5891H132.905ZM132.559 55.3018C132.559 56.1888 133.227 56.8541 134.117 56.8541C135.007 56.8541 135.674 56.1888 135.674 55.3018C135.674 54.4147 135.007 53.7494 134.117 53.7494C133.227 53.7494 132.559 54.4147 132.559 55.3018Z" fill="#E21013"/>
<path d="M145.679 66.4637C145.457 66.8579 145.135 67.2768 144.715 67.5971C144.221 67.9667 143.726 68.1146 143.059 68.1146C142.465 68.1146 141.773 68.016 141.204 67.4493C140.685 66.9318 140.364 66.0941 140.314 65.3549H147.781V65.0592C147.781 63.975 147.657 62.0531 146.322 60.6733C145.704 60.0326 144.641 59.3181 142.985 59.3181C141.501 59.3181 140.364 59.8602 139.499 60.7226C138.411 61.8314 137.842 63.3837 137.842 64.9853C137.842 66.5376 138.386 67.9667 139.375 68.9523C140.364 69.9379 141.501 70.2829 142.886 70.2829C143.998 70.2829 145.111 70.0365 145.951 69.4944C146.619 69.0755 147.262 68.3856 147.707 67.5971L145.679 66.4637ZM140.487 63.3837C140.611 62.8662 140.883 62.3734 141.229 62.0531C141.551 61.7328 142.094 61.3878 142.935 61.3878C143.726 61.3878 144.245 61.6835 144.567 61.9792C144.938 62.3242 145.21 62.817 145.309 63.3837H140.487Z" fill="#E21013"/>
<path d="M150.313 52V69.9626H152.736V65.9709L153.181 65.5274L156.593 69.9626H159.658L154.862 63.9011L159.337 59.5891H156.123L152.736 63.0634V52H150.313Z" fill="#E21013"/>
<path d="M165.602 61.8067V59.5891H163.747V55.7946H161.324V59.5891H160.311V61.8067H161.324V69.9626H163.747V61.8067H165.602Z" fill="#E21013"/>
<path d="M184.431 53.5277H173.552V55.8931H180.326L172.217 69.9626H184.233V67.5971H176.321L184.431 53.5277Z" fill="#E21013"/>
<path d="M193.782 60.7965C192.793 59.5152 191.458 59.3181 190.691 59.3181C187.947 59.3181 185.623 61.3878 185.623 64.7635C185.623 67.6218 187.452 70.2829 190.666 70.2829C191.408 70.2829 192.718 70.1104 193.782 68.8784V69.9626H196.204V59.5891H193.782V60.7965ZM190.988 61.4864C192.521 61.4864 193.93 62.5706 193.93 64.8374C193.93 67.0058 192.521 68.1146 190.988 68.1146C189.232 68.1146 188.095 66.6115 188.095 64.8128C188.095 62.9648 189.232 61.4864 190.988 61.4864Z" fill="#E21013"/>
<path d="M207.337 60.0573C206.224 59.4413 205.285 59.3181 204.493 59.3181C202.441 59.3181 201.131 60.0326 200.315 60.8458C199.549 61.6096 198.733 62.9155 198.733 64.8621C198.733 66.7594 199.475 67.9914 200.216 68.7552C201.205 69.7901 202.441 70.2829 204.172 70.2829C205.779 70.2829 206.743 69.8394 207.337 69.4698V66.784C206.496 67.7203 205.334 68.1146 204.345 68.1146C203.455 68.1146 202.689 67.7942 202.145 67.2768C201.675 66.8086 201.205 65.9955 201.205 64.7882C201.205 63.6301 201.65 62.8416 202.095 62.3981C202.54 61.9546 203.257 61.4864 204.395 61.4864C205.136 61.4864 206.224 61.6835 207.337 62.7677V60.0573Z" fill="#E21013"/>
<path d="M209.659 69.9626H212.082V64.9606C212.082 63.6301 212.23 62.8416 212.576 62.3488C212.898 61.8806 213.54 61.4864 214.356 61.4864C214.974 61.4864 215.444 61.7328 215.716 62.0285C216.186 62.5459 216.186 63.2112 216.186 63.8272V69.9626H218.609V63.6054C218.609 62.8662 218.584 61.6589 217.941 60.7226C217.644 60.3037 216.779 59.3181 214.875 59.3181C214.257 59.3181 213.12 59.4166 212.082 60.4762V52H209.659V69.9626Z" fill="#E21013"/>
<path d="M221.682 69.9626H224.105V64.591C224.105 63.9011 224.105 62.9155 224.773 62.201C225.243 61.7082 225.762 61.6342 226.281 61.6342C226.528 61.6342 226.973 61.6589 227.517 62.0038L228.506 59.8109C227.839 59.4166 227.196 59.3181 226.602 59.3181C226.058 59.3181 225.589 59.392 225.119 59.663C224.773 59.8602 224.377 60.2051 224.105 60.5254V59.5891H221.682V69.9626Z" fill="#E21013"/>
<path d="M236.975 60.7965C235.986 59.5152 234.651 59.3181 233.885 59.3181C231.14 59.3181 228.816 61.3878 228.816 64.7635C228.816 67.6218 230.646 70.2829 233.86 70.2829C234.602 70.2829 235.912 70.1104 236.975 68.8784V69.9626H239.398V59.5891H236.975V60.7965ZM234.181 61.4864C235.714 61.4864 237.123 62.5706 237.123 64.8374C237.123 67.0058 235.714 68.1146 234.181 68.1146C232.426 68.1146 231.289 66.6115 231.289 64.8128C231.289 62.9648 232.426 61.4864 234.181 61.4864Z" fill="#E21013"/>
<path d="M242.446 69.9626H244.868V64.9853C244.868 61.6342 245.981 61.4864 247.069 61.4864C247.984 61.4864 248.973 61.5603 248.973 64.1968V69.9626H251.395V63.6054C251.395 62.0038 251.148 61.2893 250.753 60.7226C250.431 60.279 249.615 59.3181 247.687 59.3181C247.094 59.3181 245.907 59.392 244.868 60.5501V59.5891H242.446V69.9626ZM247.366 55.4496L245.19 53.3306L243.558 54.6118L247.366 58.0122L251.173 54.6118L249.541 53.3306L247.366 55.4496Z" fill="#E21013"/>
<path d="M260.24 59.5891V75.6051H262.663V59.5891H260.24ZM259.894 55.3018C259.894 56.1888 260.562 56.8541 261.452 56.8541C262.342 56.8541 263.009 56.1888 263.009 55.3018C263.009 54.4147 262.342 53.7494 261.452 53.7494C260.562 53.7494 259.894 54.4147 259.894 55.3018Z" fill="#E21013"/>
<path d="M265.721 59.5891V69.9626H268.144V59.5891H265.721ZM267.303 53.3059L265.474 57.815L266.957 58.2586L269.8 53.8726L267.303 53.3059Z" fill="#E21013"/>
<path d="M278.816 60.7965C277.827 59.5152 276.492 59.3181 275.726 59.3181C272.982 59.3181 270.658 61.3878 270.658 64.7635C270.658 67.6218 272.487 70.2829 275.701 70.2829C276.443 70.2829 277.753 70.1104 278.816 68.8784V69.9626H281.239V52H278.816V60.7965ZM276.023 61.4864C277.555 61.4864 278.965 62.5706 278.965 64.8374C278.965 67.0058 277.555 68.1146 276.023 68.1146C274.267 68.1146 273.13 66.6115 273.13 64.8128C273.13 62.9648 274.267 61.4864 276.023 61.4864Z" fill="#E21013"/>
<path d="M284.312 52V69.9626H286.735V52H284.312Z" fill="#E21013"/>
<path d="M294.811 59.3181C291.671 59.3181 289.248 61.585 289.248 64.7882C289.248 67.9667 291.671 70.2829 294.811 70.2829C297.951 70.2829 300.374 67.9667 300.374 64.7882C300.374 61.585 297.951 59.3181 294.811 59.3181ZM294.811 68.1146C292.907 68.1146 291.721 66.8086 291.721 64.8128C291.721 62.4474 293.278 61.4864 294.811 61.4864C296.344 61.4864 297.902 62.4474 297.902 64.8128C297.902 66.8086 296.715 68.1146 294.811 68.1146Z" fill="#E21013"/>
<path d="M331.015 22.4096C332.36 22.4096 333.866 23.0529 334.834 23.9643C335.91 25.0366 336.502 26.5913 336.502 27.878C336.502 29.2719 335.91 30.6658 334.834 31.6844C333.812 32.703 332.414 33.2927 331.015 33.2927C329.563 33.2927 328.164 32.703 327.142 31.6844C326.174 30.7194 325.475 29.3255 325.475 27.878C325.475 26.4841 326.066 24.983 327.142 23.9643C328.11 23.0529 329.617 22.4096 331.015 22.4096ZM345.432 27.878C345.432 23.5891 343.495 20.8013 341.72 19.0857C339.73 17.2093 336.287 15.1184 330.961 15.1184C325.743 15.1184 322.247 17.1557 320.257 19.0857C318.481 20.8013 316.545 23.5891 316.545 27.878C316.545 31.0947 317.621 34.1505 320.257 36.7239C323.592 39.9942 327.465 40.6911 330.961 40.6911C334.834 40.6911 338.546 39.8333 341.72 36.7239C344.356 34.1505 345.432 31.0947 345.432 27.878Z" fill="#E21013"/>
<path d="M350.398 0.804171V39.8869H359.005V37.26C361.426 40.3694 364.6 40.6911 366.267 40.6911C369.71 40.6911 372.453 39.5653 374.713 37.3672C377.133 35.0083 378.586 31.6308 378.586 27.8244C378.586 23.7499 376.864 20.426 374.659 18.3351C372.292 16.0834 369.118 15.1184 366.16 15.1184C362.878 15.1184 360.565 16.5659 359.005 18.2279V0.804171H350.398ZM364.277 33.4C362.878 33.4 361.48 32.7566 360.565 31.9524C359.435 30.9338 358.736 29.3255 358.736 27.878C358.736 26.5377 359.489 24.9293 360.35 24.0179C361.318 22.9993 362.663 22.4096 364.277 22.4096C366.106 22.4096 367.343 23.2138 368.096 23.9643C369.064 24.9293 369.764 26.4305 369.764 28.0388C369.764 29.2719 369.226 30.6658 368.096 31.7916C366.913 32.9711 365.514 33.4 364.277 33.4Z" fill="#E21013"/>
<path d="M409.044 28.5749C409.044 25.8944 408.613 21.7127 405.225 18.496C402.373 15.8154 398.769 15.2257 395.972 15.2257C391.238 15.2257 388.118 16.7804 386.128 18.7104C384.03 20.7476 382.524 23.9643 382.524 27.9852C382.524 32.5422 384.514 35.4908 386.074 37.0455C389.033 39.9942 392.852 40.6911 396.026 40.6911C401.244 40.6911 404.041 39.0828 405.816 37.3672C407.591 35.6516 408.345 33.7752 408.721 32.435H400.491C400.114 33.1855 399.522 33.7216 398.985 34.0433C397.909 34.633 396.402 34.6866 396.187 34.6866C394.251 34.6866 393.175 34.0433 392.637 33.5072C391.615 32.4886 391.131 30.773 391.131 29.4863H409.044V28.5749ZM391.4 24.5541C391.561 23.4818 392.099 22.624 392.691 21.9807C393.605 21.0693 394.735 20.694 396.187 20.694C397.048 20.694 398.608 20.8549 399.738 21.9807C400.383 22.624 400.921 23.6427 401.136 24.5541H391.4ZM395.918 12.009L406.569 4.12808L402.75 0L395.918 5.25393L389.033 0L385.375 4.12808L395.918 12.009Z" fill="#E21013"/>
<path d="M441.234 0.804171H432.627V18.2279C431.067 16.5659 428.754 15.1184 425.472 15.1184C422.514 15.1184 419.34 16.0834 416.973 18.3351C414.768 20.426 413.046 23.7499 413.046 27.8244C413.046 31.6308 414.499 35.0083 416.919 37.3672C419.179 39.5653 421.922 40.6911 425.365 40.6911C427.032 40.6911 430.206 40.3694 432.627 37.26V39.8869H441.234V0.804171ZM427.355 33.4C426.118 33.4 424.719 32.9711 423.536 31.7916C422.406 30.6658 421.868 29.2719 421.868 28.0388C421.868 26.4305 422.568 24.9293 423.536 23.9643C424.289 23.2138 425.526 22.4096 427.355 22.4096C428.969 22.4096 430.314 22.9993 431.282 24.0179C432.143 24.9293 432.896 26.5377 432.896 27.878C432.896 29.3255 432.197 30.9338 431.067 31.9524C430.152 32.7566 428.754 33.4 427.355 33.4Z" fill="#E21013"/>
<path d="M111.89 31.4701H126.606V39.2225H96.543L113.151 11.9844H99.4862V4.23202H128.498L111.89 31.4701Z" fill="#E21013"/>
<path d="M158.561 15.7559V39.2226H150.152V36.4988C148.26 39.2226 145.106 39.8512 142.794 39.8512C140.271 39.8512 137.117 39.2226 134.384 36.0797C132.072 33.5655 131.02 31.0512 131.02 27.4893C131.02 23.0893 132.702 19.9464 134.594 18.0607C136.487 16.175 139.64 14.7083 143.004 14.7083C146.788 14.7083 149.1 16.594 149.941 17.6416V15.7559H158.561ZM141.322 23.5083C140.271 24.5559 139.64 26.0226 139.64 27.2797C139.64 28.5369 140.271 30.0036 141.322 31.0512C142.163 31.8893 143.634 32.7274 145.106 32.7274C146.367 32.7274 147.839 32.0988 148.89 31.0512C149.521 30.2131 150.362 29.1655 150.362 27.2797C150.362 26.2321 150.152 24.7655 148.68 23.5083C147.839 22.6702 146.788 22.0416 144.896 22.0416C143.845 22.0416 142.583 22.4607 141.322 23.5083Z" fill="#E21013"/>
<path d="M183.369 38.594C181.056 39.6416 179.375 39.8511 177.482 39.8511C172.857 39.8511 169.914 37.9654 168.232 36.2892C166.13 34.194 164.658 31.0511 164.658 27.4892C164.658 24.1368 166.13 20.7845 168.442 18.4797C170.545 16.3845 173.909 14.9178 177.903 14.9178C179.375 14.9178 181.267 15.1273 183.369 16.1749V23.0892C182.318 22.2511 180.846 21.6226 178.954 21.6226C177.062 21.6226 175.801 22.4607 174.96 23.2987C173.698 24.3464 173.278 26.0226 173.278 27.2797C173.278 28.5368 173.698 30.0035 174.749 31.2606C175.59 32.0987 176.852 32.9368 178.954 32.9368C180.216 32.9368 181.687 32.7273 183.159 31.2606V38.594H183.369Z" fill="#E21013"/>
<path d="M189.466 0.879656H197.875V18.4797C198.506 17.6416 199.557 16.8035 200.398 16.1749C202.08 15.1273 203.762 15.1273 205.234 15.1273C208.597 15.1273 210.7 16.1749 212.171 17.6416C214.274 19.7368 214.274 21.832 214.274 24.1368V39.013H205.864V27.2797C205.864 25.6035 205.654 23.7178 204.813 22.6701C204.182 21.832 203.131 21.832 202.29 21.832C201.449 21.832 200.188 22.0416 199.347 22.8797C198.716 23.5082 197.875 24.7654 197.875 26.6511V39.2225H189.466V0.879656Z" fill="#E21013"/>
<path d="M220.159 15.7559H228.568V19.5273C229.409 17.8512 230.671 17.0131 231.932 16.3845C233.193 15.7559 234.665 15.3369 236.347 15.3369C236.557 15.3369 236.978 15.3369 238.029 15.5464V23.5083C237.608 23.2988 236.347 22.6702 234.455 22.6702C233.404 22.6702 231.932 22.8797 230.671 23.9273C228.989 25.6035 228.779 27.9083 228.779 29.1654V39.2226H220.369V15.7559H220.159Z" fill="#E21013"/>
<path d="M269.564 15.7559V39.2226H261.155V36.4988C259.263 39.2226 256.109 39.8512 253.797 39.8512C251.274 39.8512 248.12 39.2226 245.387 36.0797C243.075 33.5655 242.024 31.0512 242.024 27.4893C242.024 23.0893 243.706 19.9464 245.598 18.0607C247.49 16.175 250.643 14.7083 254.007 14.7083C257.791 14.7083 260.104 16.594 260.945 17.6416V15.7559H269.564ZM252.325 23.5083C251.274 24.5559 250.643 26.0226 250.643 27.2797C250.643 28.5369 251.274 30.0036 252.325 31.0512C253.166 31.8893 254.638 32.7274 256.109 32.7274C257.371 32.7274 258.842 32.0988 259.893 31.0512C260.734 30.2131 261.575 29.1655 261.575 27.2797C261.575 26.2321 261.365 24.7655 259.893 23.5083C259.053 22.6702 258.001 22.0416 256.109 22.0416C255.058 22.0416 253.587 22.4607 252.325 23.5083Z" fill="#E21013"/>
<path d="M285.122 15.7557V18.6891C287.434 15.5462 290.588 15.3367 292.48 15.3367C294.793 15.3367 297.526 15.9653 299.418 17.851C301.31 19.9462 301.52 21.8319 301.52 24.3462V39.2224H293.111V27.4891C293.111 26.0224 293.111 24.1367 292.06 22.8795C291.219 22.0415 290.167 21.8319 289.326 21.8319C288.065 21.8319 287.014 22.251 286.173 22.8795C285.332 23.7176 284.912 25.1843 284.912 26.651V39.2224H276.502V15.7557H285.122ZM279.446 4.23193L283.02 0.250977L289.747 5.27955L296.474 0.250977L300.259 4.23193L289.957 11.9843L279.446 4.23193Z" fill="#E21013"/>
<path d="M33.08 24.2099C34.9942 25.8793 36.1906 28.264 36.4299 30.1718C36.6692 31.6026 36.9085 32.795 36.1906 34.4643C35.4728 36.1336 34.9942 36.1336 35.7121 36.8491C36.4299 37.5645 36.6692 37.803 36.6692 37.5645C36.9085 37.5645 39.3013 37.326 40.737 35.8952C42.1726 34.4643 43.1298 30.8872 43.1298 28.9794C42.8905 26.8332 42.1726 23.733 39.062 21.1098C35.9514 18.4866 33.3193 17.5327 31.405 17.7712C29.2515 18.0096 28.0551 18.725 27.8158 19.4405C27.5765 20.1559 25.6623 21.1098 25.1837 21.3483C24.7052 21.5867 23.5088 21.3483 23.5088 22.5406C23.5088 23.4945 24.2266 24.4484 24.7052 24.4484C24.9444 24.4484 25.1837 24.2099 25.423 23.9715C25.423 23.733 27.098 23.0176 27.8158 22.7791C28.2944 22.5406 29.2515 22.3022 30.2086 22.5406C30.6872 22.7791 31.6443 23.0176 33.08 24.2099Z" fill="#E21013"/>
<path d="M19.9191 39.7107C19.9191 39.7107 19.6798 39.9491 19.6798 40.1876C19.9191 40.903 20.6369 40.4261 20.6369 40.4261C20.6369 40.4261 21.1155 41.6185 21.3548 42.0954C21.594 42.5723 21.594 44.0032 21.3548 45.434C21.3548 46.8649 21.8333 47.5803 21.8333 47.5803C21.8333 47.5803 27.3368 53.7806 28.7725 55.2115C30.2081 56.6423 30.4474 56.6423 31.6438 56.4038C32.8402 56.4038 34.5152 55.4499 35.9509 54.0191C37.3866 52.5883 37.8651 51.3959 38.3437 49.965C38.8222 48.5342 37.6258 47.5803 34.9937 44.7186C32.1224 41.8569 30.2081 40.1876 29.4903 39.7107C28.7725 39.2337 25.9011 38.0413 25.1832 38.0413C24.4654 38.0413 23.7476 37.0875 23.7476 37.0875C23.7476 37.0875 24.2261 36.6105 23.9868 36.1336C23.7476 35.6566 23.0297 35.8951 23.0297 35.8951C23.269 35.4181 23.269 34.9412 22.5512 34.4642C21.8333 33.9873 20.8762 34.9412 20.8762 34.9412C20.8762 34.9412 18.4834 36.849 18.0048 37.3259C17.5263 37.8029 17.0477 38.5183 17.7655 39.2337C18.962 40.4261 19.9191 39.7107 19.9191 39.7107Z" fill="#E21013"/>
<path d="M54.1358 35.1797C54.1358 35.1797 53.1786 33.0335 54.6143 31.8411C54.6143 31.8411 54.6143 33.0335 55.8107 34.4643C57.0071 35.6567 57.0071 36.1336 57.0071 36.1336C57.0071 36.1336 57.4857 35.4182 57.4857 34.9412C57.4857 34.4643 58.2035 34.7028 58.4428 35.1797C58.6821 35.6567 59.1607 35.6567 58.4428 36.849C57.725 38.0414 57.2464 38.2799 57.2464 38.2799C57.2464 38.2799 57.9643 38.7568 58.2035 39.4723C58.4428 39.9492 59.1607 41.38 60.3571 42.3339C60.3571 42.3339 57.9643 42.3339 57.0071 41.857C57.0071 41.857 57.4857 45.1956 54.8536 47.1034C52.2215 49.0112 47.9145 49.4882 46.4788 48.0573C45.0431 46.388 44.3253 45.911 43.1289 44.2417C41.9325 42.5724 42.411 39.7107 43.6074 37.8029C44.5645 35.8951 47.6752 34.4643 49.1109 34.4643C51.2644 34.2258 52.2215 33.7489 54.1358 35.1797Z" fill="#E21013"/>
<path d="M73.5178 23.7329C73.9964 23.2559 75.9106 21.5866 74.475 18.9634C72.8 15.8632 70.1679 16.5787 69.6893 16.8171C68.2537 14.9093 66.818 13.0016 65.143 11.3322C62.0324 8.23207 58.6824 5.84733 55.0932 4.17802L50.3076 16.8171C57.7253 21.1097 62.7502 29.2178 62.7502 38.2798C62.7502 39.7106 62.5109 41.1415 62.2716 42.5723L74.9535 47.3418C75.6714 44.4801 76.1499 41.3799 76.1499 38.2798C76.3892 33.0334 75.4321 28.0254 73.5178 23.7329ZM73.0393 19.2019C73.7571 20.3942 72.8 21.1097 72.5607 21.3481C72.0822 20.3942 71.6036 19.4403 71.125 18.4865C71.3643 18.4865 72.5607 18.248 73.0393 19.2019Z" fill="#E21013"/>
<path d="M38.3426 0.124023C33.557 0.124023 28.7714 1.07792 24.4644 2.74724L24.7037 2.50876C24.7037 2.50876 22.7894 -0.114451 19.918 1.55487C17.0467 2.98571 17.5252 5.60892 17.7645 6.08587C15.611 7.51671 13.4575 9.18603 11.5432 11.0938C8.67186 13.9555 6.27905 17.0557 4.60409 20.6328L16.8074 25.4023C21.1144 18.0096 29.0107 13.2401 38.1034 13.2401C39.7783 13.2401 41.214 13.4786 42.6497 13.717L47.4353 1.07792C44.5639 0.362498 41.4533 0.124023 38.3426 0.124023ZM19.6788 4.8935C19.4395 4.41655 19.2002 3.46266 20.1573 2.74724C21.3537 2.03181 22.3108 3.22418 22.3108 3.46266C21.593 3.93961 20.6359 4.41655 19.6788 4.8935Z" fill="#E21013"/>
<path d="M13.219 38.0414C13.219 36.372 13.4583 34.7027 13.6976 33.0334L1.49425 28.2639C0.776413 31.3641 0.297852 34.7027 0.297852 38.0414C0.297852 42.8108 1.25497 47.3418 2.69066 51.6344C2.69066 51.6344 0.0585709 53.5422 1.73353 56.4038C3.4085 59.504 6.04058 58.7886 6.27987 58.5501C7.71555 60.6964 9.39051 62.8426 11.3048 64.7504C14.1761 67.6121 17.2868 69.9968 20.876 71.6662L25.6616 59.504C18.2439 55.2115 13.219 47.1034 13.219 38.0414ZM3.16922 55.9269C2.45138 54.7345 3.64778 53.7806 3.64778 53.7806C4.12634 54.7345 4.6049 55.6884 5.08346 56.6423C4.84418 56.6423 3.64778 57.1193 3.16922 55.9269Z" fill="#E21013"/>
<path d="M72.3203 54.7346L59.6384 49.9651C55.3313 57.5962 47.1958 62.8427 37.8639 62.8427C36.1889 62.8427 34.7532 62.6042 33.3175 62.3657L28.5319 74.5279C31.6426 75.2433 34.9925 75.7203 38.1031 75.7203C43.128 75.7203 47.6744 74.7664 52.2207 73.097C52.46 73.3355 54.3742 75.4818 57.2456 74.0509C60.3562 72.3816 59.6384 69.7584 59.3991 69.2815C61.3134 67.8506 63.2276 66.4198 64.9026 64.7505C68.2525 61.6503 70.6453 58.3117 72.3203 54.7346ZM57.0063 72.8586C55.8099 73.574 54.8528 72.3816 54.8528 72.1432C55.8099 71.6662 56.767 71.1893 57.7241 70.7123C57.7241 71.1893 57.9634 72.1432 57.0063 72.8586Z" fill="#E21013"/>
</svg>
