<svg width="304" height="220" viewBox="0 0 304 220" fill="none" xmlns="http://www.w3.org/2000/svg">
<path d="M150.93 220C67.5728 220 -0.00125122 216.072 -0.00125122 211.226C-0.00125122 206.38 67.5728 202.451 150.93 202.451C234.286 202.451 301.86 206.38 301.86 211.226C301.86 216.072 234.286 220 150.93 220Z" fill="#F5F5F5"/>
<path opacity="0.9" d="M257.048 87.659C260.574 119.695 300.344 125.641 303.691 159.111C307.327 195.442 278.416 212.068 245.597 213.231C217.262 214.239 199.155 185.171 171.093 179.528C135.596 172.397 110.624 194.581 85.1301 172.312C21.0338 116.324 111.846 35.8876 166.99 19.695C193.231 11.9979 232.659 4.61857 254.362 27.5471C275.808 50.2354 254.113 60.9788 257.048 87.659Z" fill="#FFF0F2"/>
<path d="M28.1157 51.508C28.1356 50.3902 28.6117 49.327 29.4373 48.5562C30.2629 47.7854 31.3692 47.3716 32.5084 47.4073L124.698 50.2965C127.044 50.37 128.887 52.2927 128.817 54.5943L124.268 204.34C124.2 206.613 122.29 208.414 119.972 208.391L29.024 208.114C27.8892 208.104 27.4173 207.064 26.6259 206.267C25.8345 205.469 25.4003 204.394 25.4202 203.282L28.1157 51.508Z" fill="#EEC0C5"/>
<path d="M28.1157 51.508C28.1356 50.3902 28.6117 49.327 29.4373 48.5562C30.2629 47.7854 31.3692 47.3716 32.5084 47.4073L124.698 50.2965C127.044 50.37 128.887 52.2927 128.817 54.5943L124.268 204.34C124.2 206.613 122.29 208.414 119.972 208.391L29.024 208.114C27.8892 208.104 27.4173 207.064 26.6259 206.267C25.8345 205.469 25.4003 204.394 25.4202 203.282L28.1157 51.508Z" fill="white" fill-opacity="0.2"/>
<g opacity="0.45">
<path d="M113.023 64.7013L113.167 60.9538L83.1967 59.6375L83.0627 63.3937L113.023 64.7013Z" fill="white"/>
<path d="M112.62 75.2002L112.763 71.4597L82.8205 70.1677L82.6867 73.9168L112.62 75.2002Z" fill="white"/>
<path d="M112.218 85.6801L112.361 81.9465L82.445 80.6786L82.3115 84.4208L112.218 85.6801Z" fill="white"/>
<path d="M111.816 96.1399L111.959 92.4135L82.0701 91.1696L81.9367 94.9048L111.816 96.1399Z" fill="white"/>
<path d="M111.415 106.581L111.558 102.861L81.6961 101.641L81.5631 105.369L111.415 106.581Z" fill="white"/>
<path d="M110.615 127.404L110.757 123.698L80.9497 122.525L80.8172 126.24L110.615 127.404Z" fill="white"/>
<path d="M109.421 158.493L109.563 154.808L79.8357 153.706L79.7039 157.4L109.421 158.493Z" fill="white"/>
<path d="M111.015 117.002L111.157 113.289L81.3227 112.093L81.19 115.814L111.015 117.002Z" fill="white"/>
<path d="M110.217 137.786L110.358 134.087L80.5777 132.939L80.4453 136.646L110.217 137.786Z" fill="white"/>
<path d="M109.819 148.149L109.96 144.457L80.2064 143.332L80.0744 147.033L109.819 148.149Z" fill="white"/>
<path d="M109.025 168.818L109.166 165.14L79.4657 164.062L79.3341 167.749L109.025 168.818Z" fill="white"/>
<path d="M108.63 179.124L108.77 175.452L79.0966 174.397L78.9652 178.077L108.63 179.124Z" fill="white"/>
<path d="M108.234 189.411L108.375 185.746L78.7276 184.714L78.5965 188.388L108.234 189.411Z" fill="white"/>
<path d="M107.84 199.678L107.98 196.02L78.3597 195.012L78.2288 198.678L107.84 199.678Z" fill="white"/>
<path d="M73.933 62.995L74.0641 59.2362L43.9223 57.9124L43.8011 61.68L73.933 62.995Z" fill="white"/>
<path d="M73.5656 73.5259L73.6965 69.7741L43.5822 68.4744L43.4612 72.235L73.5656 73.5259Z" fill="white"/>
<path d="M73.199 84.0367L73.3296 80.2921L43.2428 79.0169L43.1219 82.7703L73.199 84.0367Z" fill="white"/>
<path d="M72.8322 94.5284L72.9627 90.7906L42.9032 89.5395L42.7826 93.2858L72.8322 94.5284Z" fill="white"/>
<path d="M72.4665 105L72.5966 101.269L42.5645 100.043L42.4441 103.782L72.4665 105Z" fill="white"/>
<path d="M71.7375 125.885L71.8672 122.168L41.8895 120.99L41.7697 124.715L71.7375 125.885Z" fill="white"/>
<path d="M70.6485 157.067L70.7775 153.371L40.8813 152.263L40.762 155.968L70.6485 157.067Z" fill="white"/>
<path d="M72.1017 115.452L72.2316 111.728L42.2268 110.526L42.1066 114.258L72.1017 115.452Z" fill="white"/>
<path d="M71.3736 136.298L71.5031 132.588L41.5526 131.433L41.4329 135.152L71.3736 136.298Z" fill="white"/>
<path d="M71.0109 146.692L71.1402 142.989L41.2169 141.858L41.0974 145.569L71.0109 146.692Z" fill="white"/>
<path d="M70.2867 167.423L70.4155 163.733L40.5463 162.649L40.4273 166.347L70.2867 167.423Z" fill="white"/>
<path d="M69.9262 177.759L70.0547 174.076L40.2125 173.016L40.0937 176.707L69.9262 177.759Z" fill="white"/>
<path d="M69.5662 188.076L69.6945 184.4L39.8792 183.363L39.7606 187.047L69.5662 188.076Z" fill="white"/>
<path d="M69.206 198.374L69.334 194.705L39.5457 193.691L39.4273 197.368L69.206 198.374Z" fill="white"/>
</g>
<path d="M55.9674 19.0806C55.9822 17.9861 56.4282 16.9439 57.2039 16.191C57.9799 15.4381 59.0197 15.0381 60.0877 15.0819L141.238 18.4146C142.63 18.4717 143.721 19.6626 143.688 21.0902L139.569 198.788L57.5147 197.762C56.4627 197.749 55.4592 197.308 54.7251 196.536C53.9911 195.764 53.5867 194.725 53.6013 193.648L55.9674 19.0806Z" fill="#EEC0C5"/>
<g opacity="0.34">
<path d="M121.546 46.7766L133.536 46.7728L134.133 29.0187H122.065L121.546 46.7766Z" fill="white"/>
<path d="M102.86 46.7294L114.267 46.724L114.74 29.0188H103.26L102.86 46.7294Z" fill="white"/>
<path d="M83.7592 46.681L95.6203 46.6768L95.9745 29.0188H84.0382L83.7592 46.681Z" fill="white"/>
<path d="M64.7629 46.6329L76.5591 46.6284L76.7924 29.0188H64.9218L64.7629 46.6329Z" fill="white"/>
<path d="M120.699 75.6586L132.565 75.7377L133.149 58.3834L121.208 58.3336L120.699 75.6586Z" fill="white"/>
<path d="M102.208 75.5352L113.497 75.6105L113.96 58.3031L102.6 58.2556L102.208 75.5352Z" fill="white"/>
<path d="M83.305 75.4093L95.0434 75.4874L95.3903 58.2254L83.5782 58.1759L83.305 75.4093Z" fill="white"/>
<path d="M64.5041 75.284L76.1791 75.3619L76.4076 58.1462L64.6597 58.097L64.5041 75.284Z" fill="white"/>
<path d="M119.87 103.883L131.613 104.009L132.185 87.0091L120.369 86.9112L119.87 103.883Z" fill="white"/>
<path d="M101.569 103.687L112.742 103.807L113.196 86.8519L101.954 86.7589L101.569 103.687Z" fill="white"/>
<path d="M82.8604 103.487L94.4787 103.611L94.8186 86.6999L83.128 86.6031L82.8604 103.487Z" fill="white"/>
<path d="M64.2509 103.288L75.8069 103.411L76.0309 86.5444L64.4034 86.4481L64.2509 103.288Z" fill="white"/>
<path d="M119.058 131.538L130.68 131.708L131.241 115.052L119.546 114.908L119.058 131.538Z" fill="white"/>
<path d="M100.944 131.272L112.002 131.434L112.447 114.821L101.32 114.684L100.944 131.272Z" fill="white"/>
<path d="M82.4238 131L93.9244 131.169L94.2575 114.597L82.6861 114.455L82.4238 131Z" fill="white"/>
<path d="M64.0027 130.73L75.4424 130.898L75.6617 114.369L64.1522 114.227L64.0027 130.73Z" fill="white"/>
<path d="M118.262 158.639L129.766 158.852L130.316 142.529L118.74 142.341L118.262 158.639Z" fill="white"/>
<path d="M100.33 158.306L111.277 158.509L111.713 142.227L100.699 142.049L100.33 158.306Z" fill="white"/>
<path d="M81.9968 157.966L93.382 158.177L93.7085 141.935L82.2538 141.749L81.9968 157.966Z" fill="white"/>
<path d="M63.7593 157.627L75.0848 157.837L75.2999 141.636L63.9058 141.452L63.7593 157.627Z" fill="white"/>
<path d="M117.481 185.203L128.87 185.458L129.409 169.458L117.95 169.228L117.481 185.203Z" fill="white"/>
<path d="M99.7286 184.806L110.566 185.048L110.994 169.088L100.09 168.869L99.7286 184.806Z" fill="white"/>
<path d="M81.5772 184.4L92.8494 184.652L93.1694 168.73L81.8293 168.502L81.5772 184.4Z" fill="white"/>
<path d="M63.5203 183.996L74.7337 184.247L74.9446 168.364L63.6639 168.138L63.5203 183.996Z" fill="white"/>
</g>
<path d="M216.544 72.5449C216.899 68.8991 220.142 66.2314 223.788 66.5865C227.434 66.9416 230.102 70.1849 229.746 73.8308C229.391 77.4766 226.148 80.1443 222.502 79.7892C218.856 79.4341 216.189 76.1907 216.544 72.5449Z" fill="#AD0014"/>
<path d="M244.341 21.7947C257.152 27.0773 266.933 36.597 272.735 48.0617C273.926 50.4142 272.898 53.282 270.464 54.2949L270.22 54.3966C268.054 55.2977 265.544 54.3938 264.487 52.2995C259.656 42.7242 251.503 34.7698 240.809 30.3604C230.116 25.951 218.726 25.8466 208.55 29.234C206.324 29.9749 203.906 28.8469 203.005 26.6811L202.903 26.4367C201.89 24.0023 203.183 21.2439 205.686 20.4141C217.882 16.3713 231.53 16.5121 244.341 21.7947Z" fill="#AD0014"/>
<path d="M238.455 36.0707C247.305 39.7202 254.147 46.1716 258.392 53.9727C259.662 56.3072 258.598 59.2321 256.144 60.253L256.102 60.2705C253.952 61.1653 251.507 60.2551 250.387 58.213C247.097 52.215 241.818 47.257 235.001 44.446C228.184 41.6349 220.945 41.4316 214.383 43.367C212.149 44.0261 209.774 42.9489 208.879 40.7985L208.862 40.7564C207.841 38.3025 209.147 35.4778 211.694 34.717C220.203 32.1749 229.604 32.4214 238.455 36.0707Z" fill="#AD0014"/>
<path d="M241.72 66.2547C239.591 67.1405 237.183 66.3461 235.879 64.4444C234.241 62.0554 231.914 60.0992 229.036 58.9126C226.158 57.726 223.129 57.473 220.283 58.0134C218.018 58.4435 215.749 57.3091 214.863 55.1805L214.852 55.1529C213.766 52.5434 215.324 49.5905 218.09 49.008C222.779 48.0202 227.803 48.3823 232.568 50.3471C237.333 52.3119 241.152 55.5964 243.783 59.6023C245.334 61.965 244.357 65.1575 241.748 66.2434L241.72 66.2547Z" fill="#AD0014"/>
<g clip-path="url(#clip0_10347_13280)">
<path d="M230.634 17.4271C230.713 15.6383 232.281 14.2493 234.155 14.2868L234.245 14.2897C236.159 14.3741 237.646 15.9158 237.566 17.733L234.677 83.2102C234.598 84.999 233.03 86.388 231.155 86.3505L231.066 86.3476C229.181 86.2645 227.711 84.7694 227.742 82.9893L227.745 82.9043L230.634 17.4271ZM226.141 82.8335C226.023 85.4917 228.198 87.7468 230.998 87.8704C233.798 87.9939 236.163 85.9391 236.281 83.2809L239.17 17.8038C239.287 15.1455 237.112 12.8905 234.312 12.7669C231.512 12.6434 229.147 14.6982 229.03 17.3564L226.141 82.8335Z" fill="#FFF0F2"/>
</g>
<path d="M237.731 13.9815C237.816 12.0673 236.333 10.447 234.418 10.3626C232.504 10.2781 230.884 11.7614 230.799 13.6756L227.756 82.6473C227.672 84.5615 229.155 86.1817 231.069 86.2662C232.983 86.3506 234.604 84.8673 234.688 82.9531L237.731 13.9815Z" fill="#AD0014"/>
<path d="M187.92 65.5657C187.92 65.5657 187.063 64.0153 187.155 62.7681C187.247 61.5209 186.47 59.6891 187.297 59.8246C188.124 59.9601 188.294 59.8496 188.519 61.3463C188.743 62.8429 190.763 68.3632 187.92 65.5657Z" fill="#FF8B7B"/>
<path d="M147.978 208.025C150.991 207.941 152.549 207.586 153.354 207.257C153.356 207.556 153.355 207.861 153.345 208.177C153.335 208.514 153.085 208.784 152.777 208.782L136.236 208.675C135.708 208.672 135.399 208.059 135.628 207.575C137.797 207.755 143.321 208.155 147.978 208.025Z" fill="#181A1B"/>
<path d="M152.649 201.682C152.27 200.337 151.028 199.425 149.631 199.469L148.25 199.513C140.897 201.275 137.177 205.34 135.716 207.381C135.688 207.421 135.67 207.464 135.65 207.506C137.819 207.685 143.343 208.086 148 207.956C151.013 207.872 152.571 207.517 153.377 207.187C153.363 204.836 153.016 202.987 152.649 201.682Z" fill="#263238"/>
<path d="M145.927 194.767L147.082 200.329C147.167 200.736 147.48 201.042 147.86 201.077C148.324 201.121 148.985 201.146 149.649 201.049C150.245 200.961 150.661 200.355 150.555 199.705L149.752 194.767H145.927Z" fill="#FF8B7B"/>
<path d="M169.865 208.025C166.852 207.941 165.294 207.586 164.488 207.257C164.486 207.556 164.488 207.861 164.498 208.177C164.508 208.514 164.758 208.784 165.065 208.782L181.607 208.675C182.135 208.672 182.443 208.059 182.215 207.575C180.046 207.755 174.522 208.156 169.865 208.025Z" fill="#181A1B"/>
<path d="M182.215 207.575C182.195 207.533 182.178 207.49 182.149 207.45C180.688 205.409 176.968 201.345 169.615 199.582L166.088 199.47C166.088 199.47 164.518 202.2 164.488 207.257C165.294 207.586 166.852 207.941 169.865 208.025C174.522 208.155 180.046 207.754 182.215 207.575Z" fill="#263238"/>
<path d="M165.435 194.126C165.474 194.388 165.957 198.384 166.144 199.934C166.189 200.302 166.456 200.587 166.792 200.627C167.392 200.698 168.364 200.764 169.215 200.589C169.673 200.495 170.005 200.055 170.005 199.542V193.27L165.435 194.126Z" fill="#FF8B7B"/>
<path d="M162.605 121.205C162.605 121.205 171.112 153.534 170.958 194.218C170.955 194.96 170.434 195.6 169.709 195.753C168.639 195.978 167.067 196.246 165.765 196.209C165.07 196.19 164.489 195.674 164.372 194.989C163.18 187.994 156.334 148.587 152.434 142.19C152.434 142.19 149.868 177.287 150.688 195.496C150.709 195.949 150.377 196.341 149.927 196.393C149.244 196.472 148.152 196.532 146.761 196.385C146.233 196.329 145.807 195.93 145.732 195.404C144.882 189.484 139.992 154.245 140.2 128.861C140.212 127.429 143.986 121.205 143.986 121.205L162.605 121.205Z" fill="#E3969F"/>
<path d="M136.087 93.0875C133.774 86.7592 134.613 79.1174 134.622 79.041L135.259 79.1138C135.25 79.1888 134.429 86.6839 136.689 92.8672L136.087 93.0875Z" fill="url(#paint0_linear_10347_13280)"/>
<path d="M195.361 95.7346C197.27 85.3481 194.53 68.2307 194.53 68.2307L190.799 72.0981C190.799 72.0981 190.169 86.0714 187.512 91.8542C189.261 92.0625 192.65 92.8431 195.361 95.7346Z" fill="#AD0014"/>
<path d="M187.512 91.8543C187.011 92.9459 186.437 93.7466 185.782 94.1054C183.383 95.4225 178.73 87.9072 175.261 81.3936C172.767 76.712 170.883 72.5493 170.883 72.5493C168.389 69.7315 162.21 69.3443 156.463 69.7036C150.48 70.0748 144.973 71.2522 144.573 71.34C144.558 71.3439 144.549 71.3439 144.549 71.3439C141.796 71.7071 139.405 72.0104 137.677 72.2299C135.657 72.4853 133.809 73.4831 132.476 75.0237C127.196 81.1341 115.606 97.869 129.247 114.732C130.992 113.762 133.474 112.209 135.158 110.409C133.65 106.155 133.526 100.719 136.687 94.0494C136.795 94.5803 136.93 95.1031 137.09 95.618C141.452 109.427 141.684 120.922 141.672 123.568C141.672 123.931 141.887 124.254 142.223 124.386C147.958 126.685 159.005 125.316 162.709 124.765C163.392 124.665 163.847 124.031 163.755 123.348C162.649 115.338 165.667 104.187 168.756 95.4503C186.883 113.414 193.358 106.632 195.361 95.7346C192.65 92.8432 189.261 92.0626 187.512 91.8543Z" fill="#AD0014"/>
<path d="M145.291 122.001C143.717 121.118 137.611 117.326 135.157 110.409C133.473 112.207 130.992 113.761 129.246 114.73C131.853 117.953 135.381 121.179 140.05 124.338C140.216 127.932 142.979 129.262 143.61 130.426C144.242 131.59 143.344 131.324 143.743 132.788C144.143 134.251 148.333 130.459 149.331 129.595C150.329 128.73 149.73 126.335 149.73 126.335C149.73 126.335 149.797 125.836 150.063 124.838C150.328 123.843 145.311 122.008 145.291 122.001Z" fill="#FF8B7B"/>
<path d="M147.571 60.9634L146.465 72.2606C146.465 72.2606 152.82 74.1748 157.443 70.9133L154.194 60.6458L147.571 60.9634Z" fill="#FF8B7B"/>
<path d="M168.888 95.0714C168.88 95.0714 168.872 95.0708 168.863 95.0698C168.754 95.0561 168.676 94.9566 168.69 94.8471C168.701 94.7594 169.776 86.0376 169.192 83.5247C169.167 83.4174 169.234 83.3101 169.342 83.2852C169.448 83.2586 169.556 83.3268 169.581 83.4342C170.181 86.0158 169.131 94.535 169.086 94.8965C169.074 94.9975 168.987 95.0714 168.888 95.0714Z" fill="#87000F"/>
<path d="M194.169 56.3068C194.16 56.0726 194.047 55.8549 193.861 55.7125C193.675 55.57 193.435 55.5175 193.207 55.5697L187.502 56.8673C187.28 56.9176 187.132 57.1263 187.157 57.3522L188.816 72.1797C188.823 72.2436 188.856 72.302 188.906 72.3419C188.957 72.3818 189.021 72.3999 189.085 72.3922L194.064 71.7889C194.472 71.7394 194.774 71.3851 194.757 70.9745L194.169 56.3068Z" fill="#263238"/>
<path d="M192.565 57.1623C192.558 57.0293 192.491 56.9067 192.384 56.8278C192.277 56.7489 192.14 56.7218 192.011 56.7541L188.258 57.6924C188.041 57.7467 187.897 57.9532 187.922 58.1755L189.346 70.8023C189.354 70.8686 189.388 70.9287 189.442 70.9686C189.495 71.0084 189.563 71.0244 189.628 71.0127L193.09 70.3966C193.21 70.3752 193.295 70.2677 193.288 70.1459L192.565 57.1623Z" fill="#FAFAFA"/>
<path d="M190.409 56.8225C190.418 56.8672 190.356 56.9178 190.271 56.9354L189.016 57.1955C188.931 57.2131 188.855 57.1912 188.845 57.1464L188.836 57.103C188.827 57.0584 188.889 57.0077 188.974 56.9902L190.229 56.7301C190.314 56.7124 190.39 56.7343 190.4 56.7791L190.409 56.8225Z" fill="url(#paint1_linear_10347_13280)"/>
<path d="M196.151 60.0744C195.229 59.7348 193.426 56.6137 193.08 57.6405C192.735 58.6673 193.226 60.0744 193.08 60.511C192.934 60.9478 191.937 63.3738 192.386 64.4898C192.71 65.295 193.244 67.7732 193.517 69.0904C193.607 69.5276 193.992 69.8413 194.439 69.8415C194.885 69.8417 195.27 69.5285 195.361 69.0914C195.398 68.9161 197.073 60.414 196.151 60.0744Z" fill="#FF8B7B"/>
<path d="M159.477 50.0993C159.477 50.0993 161.175 57.8933 160.636 61.7002C160.098 65.507 160.424 68.1113 155.919 68.0045C151.415 67.8977 148.179 65.0003 146.937 60.8549C146.937 60.8549 144.972 54.4571 146.141 52.2291C147.309 50.0012 159.477 50.0993 159.477 50.0993Z" fill="#FF8B7B"/>
<path d="M148.96 58.4541L149.23 58.394C149.573 58.3177 149.783 57.9688 149.685 57.6311C149.307 56.323 148.65 53.367 150.322 53.0401C152.477 52.6188 160.689 52.5776 162.949 50.1154C165.12 47.749 164.36 43.9866 162.377 42.5653C162.245 42.4703 162.062 42.4886 161.959 42.6153L161.709 42.9228C161.538 43.1334 161.198 43.0287 161.175 42.7584C161.153 42.4989 160.836 42.3864 160.657 42.5762C159.968 43.3101 158.284 44.3876 154.367 44.3342C148.799 44.2583 144.816 45.7263 143.99 49.42C143.938 49.6546 143.661 49.7359 143.484 49.5731C143.135 49.2527 142.523 49.0132 141.534 49.5578C139.812 50.505 139.776 53.8422 142.484 57.1312C142.613 57.2873 142.564 57.527 142.376 57.6021C141.714 57.8673 140.66 58.6016 142.683 60.2618C144.777 61.9792 146.546 62.224 147.241 62.2466C147.415 62.2522 147.555 62.1115 147.551 61.9384L147.48 58.5336C147.477 58.3409 147.652 58.1939 147.841 58.2315L148.96 58.4541Z" fill="#263238"/>
<path d="M148.959 59.1692C148.959 59.1692 148.678 54.3501 146.368 55.2267C144.059 56.1032 146.414 60.5729 148.032 61.0725L148.959 59.1692Z" fill="#FF8B7B"/>
<defs>
<linearGradient id="paint0_linear_10347_13280" x1="135.965" y1="85.0643" x2="144.214" y2="61.3836" gradientUnits="userSpaceOnUse">
<stop stop-color="#53D8FF"/>
<stop offset="1" stop-color="#3840F7"/>
</linearGradient>
<linearGradient id="paint1_linear_10347_13280" x1="189.941" y1="56.6052" x2="189.71" y2="58.1144" gradientUnits="userSpaceOnUse">
<stop stop-color="#8D55D1"/>
<stop offset="0.9964" stop-color="#1C2873"/>
</linearGradient>
<clipPath id="clip0_10347_13280">
<rect width="35.1114" height="69.2522" fill="white" transform="matrix(-0.924489 -0.381208 -0.381208 0.924489 261.152 27.2623)"/>
</clipPath>
</defs>
</svg>
