<svg width="295" height="230" viewBox="0 0 295 230" fill="none" xmlns="http://www.w3.org/2000/svg">
<g clip-path="url(#clip0_8917_11284)">
<path d="M147.504 230C228.692 230 294.508 223.734 294.508 216.005C294.508 208.276 228.692 202.01 147.504 202.01C66.316 202.01 0.5 208.276 0.5 216.005C0.5 223.734 66.316 230 147.504 230Z" fill="#CCCCCC"/>
<path d="M152.743 62.4966H73.4872C68.2551 62.4966 64.0137 66.7277 64.0137 71.9471V199.57C64.0137 204.789 68.2551 209.02 73.4872 209.02H152.743C157.975 209.02 162.217 204.789 162.217 199.57V71.9471C162.217 66.7277 157.975 62.4966 152.743 62.4966Z" fill="#3F3849"/>
<path d="M162.225 71.9469V199.561C162.225 204.779 157.983 209.012 152.752 209.012H73.4954C71.2547 209.012 69.2035 208.239 67.5889 206.941L157.851 63.9756C160.479 65.652 162.225 68.594 162.225 71.9386V71.9469Z" fill="#342E3D"/>
<path d="M149.407 69.0459H76.8317C73.5605 69.0459 70.9087 71.6913 70.9087 74.9545V196.553C70.9087 199.817 73.5605 202.462 76.8317 202.462H149.407C152.678 202.462 155.33 199.817 155.33 196.553V74.9545C155.33 71.6913 152.678 69.0459 149.407 69.0459Z" fill="white"/>
<path d="M155.33 74.9546V196.553C155.33 199.816 152.677 202.462 149.407 202.462H76.8317C74.8299 202.462 73.067 201.476 71.9961 199.956L153.575 70.7471C154.663 71.8154 155.33 73.311 155.33 74.9464V74.9546Z" fill="#EFEFEF"/>
<path d="M94.3948 102.131H81.066C78.9983 102.131 77.3096 100.454 77.3096 98.3836V85.0872C77.3096 83.0245 78.9901 81.3398 81.066 81.3398H94.3948C96.4625 81.3398 98.1513 83.0163 98.1513 85.0872V98.3836C98.1513 100.446 96.4708 102.131 94.3948 102.131ZM81.066 83.2792C80.061 83.2792 79.2455 84.0928 79.2455 85.0954V98.3918C79.2455 99.3944 80.061 100.208 81.066 100.208H94.3948C95.3999 100.208 96.2154 99.3944 96.2154 98.3918V85.0954C96.2154 84.0928 95.3999 83.2792 94.3948 83.2792H81.066Z" fill="#3F3849"/>
<path d="M147.521 85.7773H107.221C106.686 85.7773 106.249 85.3417 106.249 84.8076C106.249 84.2734 106.686 83.8379 107.221 83.8379H147.521C148.056 83.8379 148.493 84.2734 148.493 84.8076C148.493 85.3417 148.056 85.7773 147.521 85.7773Z" fill="#3F3849"/>
<path d="M147.521 92.705H107.221C106.686 92.705 106.249 92.2695 106.249 91.7353C106.249 91.2012 106.686 90.7656 107.221 90.7656H147.521C148.056 90.7656 148.493 91.2012 148.493 91.7353C148.493 92.2695 148.056 92.705 147.521 92.705Z" fill="#3F3849"/>
<path d="M137.882 99.6328H107.221C106.686 99.6328 106.249 99.1972 106.249 98.6631C106.249 98.1289 106.686 97.6934 107.221 97.6934H137.882C138.418 97.6934 138.854 98.1289 138.854 98.6631C138.854 99.1972 138.418 99.6328 137.882 99.6328Z" fill="#3F3849"/>
<path d="M94.3948 130.047H81.066C78.9983 130.047 77.3096 128.37 77.3096 126.3V113.003C77.3096 110.941 78.9901 109.256 81.066 109.256H94.3948C96.4625 109.256 98.1513 110.932 98.1513 113.003V126.3C98.1513 128.362 96.4708 130.047 94.3948 130.047ZM81.066 111.195C80.061 111.195 79.2455 112.009 79.2455 113.011V126.308C79.2455 127.31 80.061 128.124 81.066 128.124H94.3948C95.3999 128.124 96.2154 127.31 96.2154 126.308V113.011C96.2154 112.009 95.3999 111.195 94.3948 111.195H81.066Z" fill="#3F3849"/>
<path d="M147.521 113.693H107.221C106.686 113.693 106.249 113.258 106.249 112.724C106.249 112.189 106.686 111.754 107.221 111.754H147.521C148.056 111.754 148.493 112.189 148.493 112.724C148.493 113.258 148.056 113.693 147.521 113.693Z" fill="#3F3849"/>
<path d="M147.521 120.621H107.221C106.686 120.621 106.249 120.186 106.249 119.651C106.249 119.117 106.686 118.682 107.221 118.682H147.521C148.056 118.682 148.493 119.117 148.493 119.651C148.493 120.186 148.056 120.621 147.521 120.621Z" fill="#3F3849"/>
<path d="M137.882 127.557H107.221C106.686 127.557 106.249 127.122 106.249 126.587C106.249 126.053 106.686 125.618 107.221 125.618H137.882C138.418 125.618 138.854 126.053 138.854 126.587C138.854 127.122 138.418 127.557 137.882 127.557Z" fill="#3F3849"/>
<path d="M94.3948 157.962H81.066C78.9983 157.962 77.3096 156.278 77.3096 154.215V140.919C77.3096 138.856 78.9901 137.171 81.066 137.171H94.3948C96.4625 137.171 98.1513 138.856 98.1513 140.919V154.215C98.1513 156.278 96.4708 157.962 94.3948 157.962ZM81.066 139.111C80.061 139.111 79.2455 139.924 79.2455 140.927V154.223C79.2455 155.226 80.061 156.039 81.066 156.039H94.3948C95.3999 156.039 96.2154 155.226 96.2154 154.223V140.927C96.2154 139.924 95.3999 139.111 94.3948 139.111H81.066Z" fill="#3F3849"/>
<path d="M147.521 141.609H107.221C106.686 141.609 106.249 141.173 106.249 140.639C106.249 140.105 106.686 139.669 107.221 139.669H147.521C148.056 139.669 148.493 140.105 148.493 140.639C148.493 141.173 148.056 141.609 147.521 141.609Z" fill="#3F3849"/>
<path d="M147.521 148.537H107.221C106.686 148.537 106.249 148.101 106.249 147.567C106.249 147.033 106.686 146.597 107.221 146.597H147.521C148.056 146.597 148.493 147.033 148.493 147.567C148.493 148.101 148.056 148.537 147.521 148.537Z" fill="#3F3849"/>
<path d="M137.882 155.473H107.221C106.686 155.473 106.249 155.037 106.249 154.503C106.249 153.969 106.686 153.533 107.221 153.533H137.882C138.418 153.533 138.854 153.969 138.854 154.503C138.854 155.037 138.418 155.473 137.882 155.473Z" fill="#3F3849"/>
<path d="M94.3948 185.887H81.066C78.9983 185.887 77.3096 184.202 77.3096 182.139V168.843C77.3096 166.78 78.9901 165.096 81.066 165.096H94.3948C96.4625 165.096 98.1513 166.78 98.1513 168.843V182.139C98.1513 184.202 96.4708 185.887 94.3948 185.887ZM81.066 167.027C80.061 167.027 79.2455 167.84 79.2455 168.843V182.139C79.2455 183.142 80.061 183.956 81.066 183.956H94.3948C95.3999 183.956 96.2154 183.142 96.2154 182.139V168.843C96.2154 167.84 95.3999 167.027 94.3948 167.027H81.066Z" fill="#3F3849"/>
<path d="M147.521 169.525H107.221C106.686 169.525 106.249 169.09 106.249 168.556C106.249 168.021 106.686 167.586 107.221 167.586H147.521C148.056 167.586 148.493 168.021 148.493 168.556C148.493 169.09 148.056 169.525 147.521 169.525Z" fill="#3F3849"/>
<path d="M147.521 176.453H107.221C106.686 176.453 106.249 176.017 106.249 175.483C106.249 174.949 106.686 174.513 107.221 174.513H147.521C148.056 174.513 148.493 174.949 148.493 175.483C148.493 176.017 148.056 176.453 147.521 176.453Z" fill="#3F3849"/>
<path d="M137.882 183.389H107.221C106.686 183.389 106.249 182.953 106.249 182.419C106.249 181.885 106.686 181.449 107.221 181.449H137.882C138.418 181.449 138.854 181.885 138.854 182.419C138.854 182.953 138.418 183.389 137.882 183.389Z" fill="#3F3849"/>
<path d="M99.387 62.4966H126.844V66.9013C126.844 70.2213 124.142 72.9168 120.814 72.9168H105.417C102.089 72.9168 99.387 70.2213 99.387 66.9013V62.4966Z" fill="#CCCCCC"/>
<path d="M123.886 61.7404V62.4964H113.119C114.998 62.4964 116.513 60.9761 116.513 59.1107C116.513 57.2453 114.989 55.725 113.119 55.725C111.249 55.725 109.725 57.237 109.725 59.1107C109.725 60.9844 111.249 62.4964 113.119 62.4964H102.353V61.7404C102.353 55.9304 107.073 51.2134 112.905 51.2134H113.334C119.166 51.2134 123.886 55.9304 123.886 61.7404Z" fill="#CCCCCC"/>
<path d="M126.852 63.1211V66.9013C126.852 70.2213 124.15 72.9167 120.822 72.9167H105.425C102.089 72.9167 99.3953 70.2213 99.3953 66.9013V63.1211C99.3953 66.4493 102.097 69.1365 105.425 69.1365H120.822C124.158 69.1365 126.852 66.4411 126.852 63.1211Z" fill="#A6A7A7"/>
<path d="M213.341 1.20745C210.565 2.13197 207.418 1.95441 204.699 0.944175C201.701 -0.170144 197.92 -0.298719 194.732 0.589063C189.822 1.95441 186.238 5.21777 184.047 8.75665C181.848 12.2955 180.826 16.1589 179.483 19.9243C177.012 26.8674 173.42 33.5901 168.807 39.8964C164.771 45.4251 159.96 50.6232 155.923 56.152C151.895 61.6807 148.616 67.6564 147.99 73.926C147.372 80.2017 149.679 86.8386 155.577 91.3448C161.476 95.8572 171.254 97.7308 178.816 94.9021C183.635 100.884 190.291 105.274 199.081 107.717C207.863 110.16 218.242 109.756 226.093 105.947C233.944 102.139 238.705 94.7674 236.786 87.9468C243.088 87.9468 251.4 86.208 255.321 82.5466C259.242 78.8853 260.774 73.8709 259.366 69.3034C257.718 63.9767 252.528 59.7337 248.335 55.2397C243.508 50.0722 239.891 44.2924 237.634 38.231C234.166 28.9062 237.206 18.8468 233.408 9.67505C230.509 2.66464 221.694 -1.5661 213.349 1.20133L213.341 1.20745Z" fill="#362825"/>
<path d="M255.313 82.5526C251.391 86.2078 243.079 87.9528 236.778 87.9528C238.697 94.7734 233.944 102.151 226.085 105.959C218.234 109.768 207.855 110.166 199.073 107.723C190.291 105.286 183.627 100.89 178.816 94.9081C171.254 97.7368 161.476 95.8632 155.577 91.3509C149.679 86.8446 147.372 80.2015 147.99 73.932C148.229 71.4768 148.888 69.0767 149.835 66.7256C149.597 72.3217 151.796 78.1015 156.928 82.0996C162.39 86.3548 171.435 88.1181 178.437 85.4548C182.902 91.0937 189.064 95.2326 197.195 97.5347C205.326 99.8368 214.931 99.4572 222.197 95.8632C229.462 92.2693 233.87 85.3201 232.09 78.8913C237.923 78.8913 245.617 77.2504 249.25 73.8034C252.882 70.3502 254.299 65.6174 252.99 61.3193C252.759 60.5418 252.438 59.7887 252.059 59.0479C255.197 62.2316 258.188 65.4889 259.374 69.3033C260.783 73.8646 259.25 78.8852 255.329 82.5465L255.313 82.5526Z" fill="#2D1E1E"/>
<path d="M224.553 15.8896V19.4223C213.275 19.1223 208.744 11.9405 208.744 11.9405C204.617 19.7223 192.936 19.4223 192.936 19.4223V15.8896C192.936 15.8896 200.712 16.0916 205.803 11.9405C206.965 10.9976 207.986 9.84041 208.744 8.40771C208.744 8.40771 209.84 10.1343 212.286 11.9405C214.815 13.8018 218.811 15.7365 224.553 15.8896Z" fill="#362525"/>
<path d="M224.553 22.8896V26.4223C213.275 26.1223 208.744 18.9405 208.744 18.9405C204.617 26.7223 192.936 26.4223 192.936 26.4223V22.8896C192.936 22.8896 200.712 23.0916 205.803 18.9405C206.965 17.9976 207.986 16.8404 208.744 15.4077C208.744 15.4077 209.84 17.1343 212.286 18.9405C214.815 20.8018 218.811 22.7365 224.553 22.8896Z" fill="#2D1E1E"/>
<path d="M223.021 111.245C223.021 111.368 222.988 111.491 222.979 111.614C221.859 119.15 216.15 123.275 210.038 123.957C208.86 124.089 207.673 124.089 206.504 123.957C200.457 123.333 194.798 119.314 193.579 111.894C193.546 111.721 193.529 111.54 193.504 111.36C193.035 107.908 193.504 103.651 195.49 98.4083C197.368 96.3925 196.726 95.9347 197.368 94.587C197.368 94.587 197.763 94.5377 198.826 94.5541C199.139 94.5541 199.502 94.5541 199.889 94.5541C200.696 94.5541 201.643 94.5706 202.714 94.5706C205.754 94.5952 209.733 94.6034 213.819 94.587C214.758 94.587 215.714 94.587 216.653 94.5706C217.007 94.5706 217.369 94.5706 217.724 94.5706C218.539 94.5706 219.119 94.5625 219.91 94.5543C219.91 94.5543 220.173 96.9179 221.941 99.6738C221.941 99.6738 221.941 99.6793 221.941 99.6903C222.815 102.846 223.556 107.07 223.012 111.253L223.021 111.245Z" fill="#2F2E41"/>
<path d="M205.499 190.768L205.523 201.008C205.523 203.867 203.769 206.44 201.091 207.459C197.903 208.675 192.508 210.31 183.462 212.184C180.571 212.784 177.951 210.195 178.66 207.335C178.668 207.286 178.685 207.237 178.693 207.187C178.94 206.259 179.525 205.462 180.316 204.919C183.397 202.824 192.013 196.34 194.106 188.311C194.106 188.311 196.775 196.233 205.499 190.76V190.768Z" fill="#FEC2BD"/>
<path d="M183.462 212.184C186.403 211.568 188.957 210.992 191.173 210.442C190.596 210.565 190.02 210.688 189.41 210.82C186.527 211.42 183.899 208.823 184.607 205.963C184.624 205.922 184.624 205.864 184.64 205.823C184.888 204.895 185.472 204.098 186.263 203.563C188.628 201.945 193.817 199.126 197.22 192.042C195.111 190.892 194.097 188.328 194.097 188.328C192.005 196.356 183.388 202.832 180.307 204.936C179.516 205.47 178.923 206.267 178.684 207.196C178.668 207.237 178.66 207.294 178.652 207.335C177.943 210.195 180.563 212.792 183.454 212.192L183.462 212.184Z" fill="#EFACA8"/>
<path d="M183.462 212.184C192.508 210.31 197.895 208.683 201.083 207.458C203.769 206.439 205.523 203.867 205.515 201.007V195.641C205.515 195.641 192.022 201.846 189.188 197.071C185.958 200.851 182.144 203.67 180.307 204.927C179.516 205.461 178.923 206.259 178.684 207.187C178.668 207.228 178.66 207.286 178.652 207.327C177.943 210.187 180.563 212.783 183.454 212.184H183.462Z" fill="#3A3152"/>
<path d="M183.462 212.184C186.403 211.568 188.957 210.992 191.173 210.442C190.596 210.565 190.02 210.688 189.41 210.82C186.519 211.42 183.899 208.823 184.608 205.963C184.608 205.922 184.624 205.864 184.64 205.823C184.879 204.895 185.473 204.098 186.263 203.563C187.557 202.676 189.822 201.024 192.186 198.797C190.868 198.608 189.789 198.09 189.196 197.08C185.967 200.86 182.153 203.678 180.316 204.936C179.525 205.47 178.932 206.267 178.693 207.196C178.676 207.237 178.668 207.294 178.66 207.335C177.951 210.195 180.571 212.792 183.462 212.192V212.184Z" fill="#2A213A"/>
<path d="M205.779 189.56C205.738 190.012 205.639 190.448 205.49 190.867C204.7 193.316 202.426 195.099 199.782 195.066H199.567C199.518 195.066 199.469 195.066 199.411 195.066C198.216 194.984 197.129 194.548 196.248 193.866C194.831 192.765 193.908 191.048 193.867 189.149C193.867 189.042 193.867 188.919 193.867 188.804C194.056 181.901 193.043 155.095 192.17 148.586C191.832 146.104 191.42 143.639 190.901 141.182C190.695 140.204 190.481 139.226 190.25 138.248C190.135 137.763 190.02 137.278 189.896 136.785C188.43 130.959 187.903 125.765 188.018 121.163C188.034 120.621 188.051 120.095 188.084 119.577C188.117 119.068 188.15 118.567 188.199 118.073C188.224 117.835 188.24 117.589 188.273 117.359C188.273 117.326 188.273 117.276 188.29 117.243C188.339 116.75 188.405 116.266 188.471 115.781C188.512 115.493 188.562 115.197 188.611 114.901C188.652 114.614 188.71 114.326 188.768 114.047C188.809 113.8 188.867 113.554 188.908 113.307C189.031 112.715 189.163 112.132 189.311 111.573C189.377 111.31 189.443 111.047 189.517 110.784C189.608 110.456 189.699 110.135 189.797 109.823C189.855 109.634 189.913 109.453 189.97 109.264C190.283 108.27 190.629 107.333 191 106.429C191.091 106.199 191.181 105.977 191.28 105.755C191.371 105.533 191.461 105.328 191.569 105.106C191.667 104.884 191.766 104.678 191.865 104.465C191.964 104.259 192.063 104.054 192.162 103.848C192.368 103.429 192.582 103.018 192.796 102.616C192.895 102.435 192.994 102.262 193.092 102.09C193.191 101.901 193.307 101.72 193.414 101.539C194.089 100.389 194.798 99.3451 195.49 98.4C195.778 98.0138 196.066 97.644 196.355 97.2824C196.519 97.0852 196.676 96.888 196.832 96.7072C197.129 96.362 197.409 96.0333 197.697 95.7293C197.879 95.532 198.052 95.343 198.233 95.1622C198.439 94.9404 198.637 94.7431 198.834 94.5459C199.147 94.5459 199.51 94.5459 199.897 94.5459C200.704 94.5459 201.652 94.5623 202.723 94.5623C204.691 103.684 205.869 113.85 206.512 123.957C208.118 149.005 206.512 182.156 205.787 189.552L205.779 189.56Z" fill="#2F2E41"/>
<path d="M199.765 192.691C199.782 193.562 199.79 194.359 199.79 195.066H199.576C199.526 195.066 199.477 195.066 199.419 195.066C198.225 194.984 197.137 194.548 196.256 193.866C194.839 192.765 193.916 191.048 193.875 189.149C193.875 189.042 193.875 188.919 193.875 188.804C194.065 181.901 193.051 155.095 192.178 148.586C191.84 146.104 191.429 143.639 190.91 141.182C190.704 140.204 190.489 139.226 190.259 138.248C190.143 137.763 190.028 137.278 189.905 136.785C188.438 130.959 187.911 125.765 188.026 121.163C188.043 120.621 188.059 120.095 188.092 119.577C188.125 119.068 188.158 118.567 188.208 118.073C188.232 117.835 188.249 117.589 188.282 117.359C188.282 117.326 188.282 117.276 188.298 117.243C188.348 116.75 188.405 116.266 188.479 115.781C188.521 115.493 188.57 115.197 188.619 114.901C188.661 114.614 188.718 114.326 188.776 114.047C188.817 113.8 188.875 113.554 188.916 113.307C189.04 112.715 189.171 112.132 189.32 111.573C189.386 111.31 189.451 111.047 189.526 110.784C189.616 110.456 189.707 110.135 189.806 109.823C189.863 109.634 189.921 109.453 189.979 109.264C190.292 108.27 190.638 107.333 191.008 106.429C191.099 106.199 191.19 105.977 191.288 105.755C191.379 105.533 191.47 105.328 191.577 105.106C191.676 104.884 191.775 104.678 191.873 104.465C191.972 104.259 192.071 104.054 192.17 103.848C192.376 103.429 192.59 103.018 192.804 102.616C192.903 102.435 193.002 102.262 193.101 102.09C193.2 101.901 193.315 101.72 193.422 101.539C194.098 100.389 194.806 99.3451 195.498 98.4C195.786 98.0138 196.075 97.644 196.363 97.2824C196.528 97.0852 196.684 96.8962 196.841 96.7072C197.137 96.362 197.417 96.0333 197.706 95.7293C197.887 95.532 198.06 95.343 198.241 95.1622C198.447 94.9404 198.645 94.7431 198.843 94.5459C199.156 94.5459 199.518 94.5459 199.905 94.5459C197.236 98.7699 194.732 104.325 193.513 111.36C192.244 118.632 192.335 127.491 194.996 138.059C196.165 142.719 197.104 147.46 197.739 152.243C198.62 158.826 199.609 183.767 199.773 192.683L199.765 192.691Z" fill="black" fill-opacity="0.5"/>
<path d="M211.051 190.768L211.026 201.008C211.026 203.867 212.781 206.44 215.458 207.459C218.646 208.675 224.042 210.31 233.087 212.184C235.979 212.784 238.598 210.195 237.89 207.335C237.881 207.286 237.865 207.237 237.857 207.187C237.61 206.259 237.025 205.462 236.234 204.919C233.153 202.824 224.536 196.34 222.444 188.311C222.444 188.311 219.775 196.233 211.051 190.76V190.768Z" fill="#FEC2BD"/>
<path d="M233.087 212.184C230.146 211.568 227.592 210.992 225.376 210.442C225.953 210.565 226.53 210.688 227.139 210.82C230.023 211.42 232.65 208.823 231.942 205.963C231.925 205.922 231.925 205.864 231.909 205.823C231.662 204.895 231.077 204.098 230.286 203.563C227.922 201.945 222.732 199.126 219.33 192.042C221.439 190.892 222.452 188.328 222.452 188.328C224.544 196.356 233.161 202.832 236.242 204.936C237.033 205.47 237.626 206.267 237.865 207.196C237.881 207.237 237.89 207.294 237.898 207.335C238.606 210.195 235.987 212.792 233.095 212.192L233.087 212.184Z" fill="#EFACA8"/>
<path d="M233.087 212.184C224.042 210.31 218.654 208.683 215.466 207.458C212.781 206.439 211.026 203.867 211.034 201.007V195.641C211.034 195.641 224.528 201.846 227.362 197.071C230.591 200.851 234.405 203.67 236.242 204.927C237.033 205.461 237.626 206.259 237.865 207.187C237.882 207.228 237.89 207.286 237.898 207.327C238.606 210.187 235.987 212.783 233.095 212.184H233.087Z" fill="#3A3152"/>
<path d="M233.087 212.184C230.146 211.568 227.593 210.992 225.377 210.442C225.953 210.565 226.53 210.688 227.139 210.82C230.031 211.42 232.651 208.823 231.942 205.963C231.942 205.922 231.926 205.864 231.909 205.823C231.67 204.895 231.077 204.098 230.286 203.563C228.993 202.676 226.728 201.024 224.363 198.797C225.681 198.608 226.76 198.09 227.354 197.08C230.583 200.86 234.397 203.678 236.234 204.936C237.025 205.47 237.618 206.267 237.857 207.196C237.873 207.237 237.882 207.294 237.89 207.335C238.598 210.195 235.979 212.792 233.087 212.192V212.184Z" fill="#2A213A"/>
<path d="M226.653 136.794C226.167 138.741 225.722 140.697 225.343 142.661C225.154 143.647 224.981 144.634 224.816 145.62C224.651 146.606 224.503 147.6 224.371 148.586C224.1 150.633 223.811 153.862 223.556 157.527C223.506 158.201 223.457 158.883 223.416 159.574C223.375 160.272 223.325 160.979 223.284 161.686C223.243 162.384 223.193 163.099 223.16 163.814C223.144 164.176 223.127 164.537 223.103 164.899C223.045 165.967 222.996 167.044 222.946 168.095V168.112C222.913 168.81 222.88 177.99 222.856 178.672C222.839 179.025 222.823 179.362 222.814 179.707C222.79 180.381 222.773 181.03 222.749 181.663C222.658 184.531 222.633 187.037 222.683 188.796C222.683 188.911 222.683 189.026 222.683 189.141C222.641 190.752 221.974 192.239 220.903 193.316C220.771 193.447 220.64 193.571 220.5 193.686C220.434 193.751 220.368 193.801 220.302 193.858C220.22 193.916 220.137 193.973 220.063 194.023C219.585 194.351 219.058 194.614 218.498 194.795C218.333 194.844 218.177 194.894 218.012 194.927C217.822 194.959 217.633 195.001 217.435 195.025C217.336 195.042 217.246 195.05 217.139 195.058C217.089 195.058 217.04 195.058 216.974 195.058H216.768C214.124 195.099 211.85 193.316 211.059 190.867C210.911 190.448 210.82 190.004 210.771 189.552C210.038 182.164 208.431 149.005 210.038 123.949C210.688 113.85 211.858 103.684 213.827 94.5789C214.766 94.5789 215.722 94.5789 216.661 94.5625C217.015 94.5625 217.378 94.5625 217.732 94.5625L218.02 94.8501C218.506 95.3432 219.025 95.902 219.552 96.5183C219.659 96.6416 219.766 96.7649 219.874 96.8964C220.417 97.5373 220.969 98.2523 221.513 99.0248C221.661 99.2384 221.809 99.4439 221.958 99.6658C221.958 99.6658 221.958 99.6712 221.958 99.6822C222.032 99.7808 222.098 99.8876 222.164 99.9863C222.279 100.151 222.394 100.323 222.493 100.488C222.6 100.652 222.716 100.833 222.823 101.005C222.93 101.178 223.045 101.359 223.144 101.548C223.251 101.728 223.358 101.909 223.465 102.098C223.63 102.386 223.787 102.673 223.951 102.978C224.116 103.265 224.256 103.561 224.404 103.857C224.503 104.062 224.61 104.268 224.701 104.473C224.89 104.876 225.072 105.279 225.253 105.689C225.269 105.722 225.278 105.739 225.286 105.763C225.385 105.985 225.475 106.207 225.566 106.437C225.937 107.341 226.283 108.286 226.596 109.272C226.653 109.461 226.711 109.642 226.769 109.831C226.867 110.143 226.958 110.464 227.049 110.793C227.115 111.056 227.189 111.319 227.255 111.582C227.337 111.894 227.419 112.206 227.485 112.527C227.601 113.02 227.708 113.529 227.798 114.047C227.856 114.326 227.905 114.614 227.955 114.902C228.004 115.189 228.054 115.485 228.095 115.781C228.161 116.266 228.227 116.742 228.276 117.244C228.276 117.277 228.293 117.326 228.293 117.359C228.326 117.589 228.342 117.835 228.367 118.074C228.416 118.558 228.457 119.068 228.482 119.578C228.515 120.095 228.532 120.621 228.548 121.164C228.663 125.766 228.136 130.959 226.67 136.786L226.653 136.794Z" fill="#2F2E41"/>
<path d="M226.653 136.794C226.167 138.741 225.722 140.697 225.343 142.661C225.154 143.647 224.981 144.634 224.816 145.62C224.651 146.606 224.511 147.6 224.38 148.586C224.108 150.633 223.819 153.862 223.556 157.527C223.515 158.201 223.465 158.883 223.416 159.574C223.375 160.272 223.325 160.979 223.284 161.686C223.243 162.392 223.202 163.099 223.16 163.814C223.144 164.176 223.127 164.537 223.103 164.899C223.053 165.967 222.996 167.044 222.946 168.095V168.112C222.913 168.81 222.88 177.99 222.856 178.672C222.839 179.025 222.823 179.362 222.814 179.707C222.79 180.373 222.773 181.03 222.749 181.663C222.658 184.531 222.633 187.037 222.683 188.796C222.683 188.911 222.683 189.026 222.683 189.141C222.641 190.752 221.974 192.239 220.903 193.316C220.771 193.447 220.64 193.571 220.5 193.686C220.434 193.751 220.368 193.801 220.294 193.85C220.22 193.908 220.137 193.965 220.063 194.023C219.585 194.351 219.058 194.614 218.498 194.795C218.333 194.844 218.177 194.894 218.012 194.927C217.822 194.959 217.633 195.001 217.435 195.025C217.336 195.042 217.246 195.05 217.139 195.058C217.089 195.058 217.04 195.058 216.974 195.058H216.768C216.768 194.351 216.768 193.546 216.793 192.683C216.949 183.759 217.938 158.818 218.827 152.243C219.462 147.469 220.392 142.727 221.57 138.059C224.248 127.426 224.33 118.534 223.037 111.236C221.809 104.268 219.33 98.7536 216.677 94.5625C217.031 94.5625 217.394 94.5625 217.748 94.5625L218.036 94.8501C218.523 95.3432 219.041 95.902 219.569 96.5183C219.666 96.6322 220.141 96.2157 220.248 96.3471C220.507 96.8942 220.626 96.8964 221.529 99.0248C221.678 99.2384 221.826 99.4439 221.974 99.6658C221.974 99.6658 221.974 99.6712 221.974 99.6822C222.048 99.7808 222.114 99.8876 222.18 99.9863C222.295 100.151 222.411 100.323 222.51 100.488C222.617 100.652 222.732 100.833 222.839 101.005C222.946 101.178 223.062 101.359 223.16 101.548C223.268 101.728 223.375 101.909 223.482 102.098C223.646 102.386 223.803 102.673 223.968 102.978C224.132 103.265 224.273 103.561 224.421 103.857C224.52 104.062 224.627 104.268 224.717 104.473C224.907 104.876 225.088 105.279 225.269 105.689C225.286 105.722 225.294 105.739 225.302 105.763C225.401 105.985 225.492 106.207 225.582 106.437C225.953 107.341 226.299 108.286 226.612 109.272C226.67 109.461 226.727 109.642 226.785 109.831C226.884 110.143 226.975 110.464 227.065 110.793C227.131 111.056 227.205 111.319 227.271 111.582C227.353 111.894 227.436 112.206 227.502 112.527C227.617 113.02 227.724 113.529 227.815 114.047C227.872 114.326 227.922 114.614 227.971 114.902C228.021 115.189 228.07 115.485 228.111 115.781C228.177 116.266 228.243 116.742 228.293 117.244C228.293 117.277 228.309 117.326 228.309 117.359C228.342 117.589 228.358 117.835 228.383 118.074C228.433 118.558 228.474 119.068 228.499 119.578C228.531 120.095 228.548 120.621 228.564 121.164C228.68 125.766 228.153 130.959 226.686 136.786L226.653 136.794Z" fill="black" fill-opacity="0.5"/>
<path d="M217.311 56.9745C217.311 56.9745 240.394 73.6485 246.457 84.2659C246.745 84.7754 246.91 85.3342 246.935 85.9176V85.9834C247.075 89.5417 242.692 91.3825 240.13 88.9089C236.621 85.5232 229.33 78.7353 220.895 72.2843C216.422 68.8657 214.634 62.7927 216.965 57.673C217.073 57.4347 217.188 57.2046 217.311 56.9663V56.9745Z" fill="#FEC2BD"/>
<path d="M246.144 88.49C246.144 88.49 239.661 96.6914 230.097 101.104C230.097 101.104 231.439 101.992 232.609 103.446C236.077 107.753 230.311 113.456 226.027 109.955C225.978 109.914 225.928 109.873 225.879 109.832C222.024 106.545 221.776 100.652 225.088 96.8229C227.543 93.9877 231.645 90.1747 238.499 85.5234C238.499 85.5234 243.483 84.529 246.144 88.4982V88.49Z" fill="#FEC2BD"/>
<path d="M217.311 56.9745C217.311 56.9745 240.394 73.6485 246.457 84.2659C246.745 84.7754 246.91 85.3342 246.935 85.9176V85.9834C247.075 89.5417 242.692 91.3825 240.13 88.9089C236.621 85.5232 229.33 78.7353 220.895 72.2843C216.422 68.8657 214.634 62.7927 216.965 57.673C217.073 57.4347 217.188 57.2046 217.311 56.9663V56.9745Z" fill="#FEC2BD"/>
<path d="M246.144 88.49C246.144 88.49 239.661 96.6914 230.097 101.104C230.097 101.104 231.439 101.992 232.609 103.446C236.077 107.753 230.311 113.456 226.027 109.955C225.978 109.914 225.928 109.873 225.879 109.832C222.024 106.545 221.776 100.652 225.088 96.8229C227.543 93.9877 231.645 90.1747 238.499 85.5234C238.499 85.5234 243.483 84.529 246.144 88.4982V88.49Z" fill="#FEC2BD"/>
<path d="M246.449 84.2743C240.386 73.6486 217.303 56.9829 217.303 56.9829C217.18 57.213 217.064 57.4513 216.957 57.6814C216.858 57.9115 216.76 58.1416 216.677 58.3635C222.518 62.7518 238.763 75.4319 243.706 84.0935C243.994 84.5947 244.159 85.1618 244.192 85.7452V85.811C244.192 86.0657 244.192 86.304 244.15 86.5424C244.052 87.2162 243.78 87.8079 243.401 88.301C243.401 88.301 243.401 88.3065 243.401 88.3174C243.401 88.3174 242.906 88.942 241.992 89.9445C239.587 92.566 234.281 97.735 227.362 100.94C227.362 100.94 228.704 101.827 229.874 103.282C232.296 106.29 230.22 109.971 227.288 110.727C231.332 112.387 235.756 107.358 232.617 103.463C231.448 102.008 230.105 101.121 230.105 101.121C238.738 97.1269 244.867 90.0514 245.963 88.7201C245.963 88.7201 245.979 88.7201 245.979 88.7037C246.02 88.6461 246.078 88.5886 246.127 88.5229C246.144 88.5064 246.152 88.4982 246.152 88.4982C246.671 87.8243 246.976 86.9697 246.943 86V85.9342C246.91 85.3508 246.745 84.792 246.457 84.2825L246.449 84.2743Z" fill="#F9B5B2"/>
<path d="M200.111 56.974C200.111 56.974 177.037 73.6398 170.974 84.2654C170.685 84.7749 170.521 85.3337 170.488 85.9172C170.488 85.9418 170.488 85.9582 170.488 85.9829C170.356 89.5412 174.73 91.382 177.3 88.9084C180.81 85.5227 188.108 78.7348 196.544 72.2838C201.017 68.8652 202.797 62.8005 200.465 57.6726C200.358 57.4342 200.243 57.2041 200.119 56.9658L200.111 56.974Z" fill="#FEC2BD"/>
<path d="M200.111 56.974C200.111 56.974 177.037 73.6398 170.974 84.2654C170.685 84.7749 170.521 85.3337 170.488 85.9172C170.488 85.9418 170.488 85.9582 170.488 85.9829C170.356 89.5412 174.73 91.382 177.3 88.9084C180.81 85.5227 188.108 78.7348 196.544 72.2838C201.017 68.8652 202.797 62.8005 200.465 57.6726C200.358 57.4342 200.243 57.2041 200.119 56.9658L200.111 56.974Z" fill="#FEC2BD"/>
<path d="M178.544 86.4268C178.544 86.4268 173.404 69.3255 162.711 57.6398C161.764 56.6044 160.388 56.0702 158.979 56.1688C158.93 56.1688 158.881 56.1688 158.823 56.1853C155.536 56.4893 153.707 60.1462 155.272 63.0471C156.228 64.8304 158.106 66.9259 161.739 67.8381C161.739 67.8381 166.772 80.6661 170.488 86.9692C170.685 87.3061 170.883 87.643 171.262 87.7581C172.44 88.1114 175.224 88.5552 178.544 86.435V86.4268Z" fill="#FEC2BD"/>
<path d="M200.465 57.6726C200.358 57.4343 200.234 57.2042 200.111 56.9741C200.111 56.9741 199.963 57.0809 199.699 57.2782C200.49 61.7322 198.752 66.4246 195.251 69.2762C187.985 75.2012 181.609 81.4221 178.083 85.0133C177.762 85.3338 177.473 85.6296 177.21 85.9008C175.117 88.0539 171.74 86.9362 170.982 84.2572C170.982 84.2408 170.965 84.2162 170.965 84.1997C170.916 84.1175 170.867 84.0354 170.817 83.945C167.333 77.6419 162.612 64.8057 162.612 64.8057C159.202 63.8935 157.447 61.8062 156.549 60.0147C156.146 59.2094 155.989 58.3547 156.022 57.5247C154.679 58.9135 154.251 61.1323 155.272 63.0306C156.236 64.8139 158.106 66.9094 161.739 67.8216C161.739 67.8216 166.764 80.6496 170.488 86.9527C170.537 87.0349 170.586 87.117 170.636 87.2074C171.394 89.9275 175.043 91.0862 177.292 88.9085C180.793 85.5228 188.092 78.7349 196.536 72.2839C201.009 68.8653 202.788 62.8005 200.457 57.6809L200.465 57.6726Z" fill="#F9B5B2"/>
<path d="M220.829 83.2139L208.744 84.5945L196.659 83.2139C198.776 88.8266 196.964 96.7815 196.964 96.7815C198.101 97.3814 199.674 97.8333 201.305 98.1867C206.207 99.2386 211.29 99.2386 216.191 98.1867C217.822 97.8333 219.396 97.3814 220.532 96.7815C220.532 96.7815 218.72 88.8266 220.837 83.2139H220.829Z" fill="#C00016"/>
<path d="M220.524 96.7815C219.692 97.2252 219.587 97.281 218.417 97.5768C217.723 95.8972 218.124 88.7066 219.978 83.3897L220.829 83.2139C218.712 88.8266 220.524 96.7815 220.524 96.7815Z" fill="#86140B"/>
<path d="M196.659 83.1061C197.491 82.6624 196.588 83.8407 197.758 83.5449C198.452 85.2245 200.076 92.1118 198.223 97.4287L196.584 97.0416C198.701 91.4288 196.659 83.1061 196.659 83.1061Z" fill="#86140B"/>
<path d="M225.005 67.2548C223.621 62.5625 219.708 55.3308 208.744 54.3857C197.779 55.3226 193.866 62.5542 192.482 67.2548C191.749 69.753 191.568 72.3992 192.062 74.9549C193.026 79.976 195.967 83.0988 199.106 85.0464C204.971 88.6704 212.517 88.6704 218.382 85.0464C221.529 83.107 224.462 79.976 225.426 74.9549C225.92 72.3992 225.739 69.753 225.005 67.2548Z" fill="#C00016"/>
<path d="M225.426 74.9547C224.462 79.9676 221.529 83.0986 218.382 85.038C212.509 88.662 204.971 88.662 199.106 85.038C195.959 83.0904 193.026 79.9676 192.054 74.9547C191.675 72.9742 191.692 70.9444 192.054 68.9722C193.026 73.9604 195.951 77.0749 199.098 79.0061C204.963 82.6302 212.5 82.6302 218.374 79.0061C221.504 77.0667 224.429 73.9604 225.409 68.9722C225.78 70.9444 225.796 72.9742 225.409 74.9547H225.426Z" fill="#86140B"/>
<path d="M213.481 44.9517V55.1171C213.481 57.7221 211.364 59.8423 208.744 59.8423C206.125 59.8423 204.016 57.7221 204.016 55.1171V44.9517H213.481Z" fill="#FFBEBA"/>
<path d="M213.481 44.9517V51.7971C211.982 52.2655 210.392 52.512 208.744 52.512C207.097 52.512 205.507 52.2655 204.016 51.7971V44.9517H213.481Z" fill="#F2A2A0"/>
<path d="M224.553 26.0671V34.0712C224.553 42.7821 217.476 49.8412 208.744 49.8412C200.012 49.8412 192.936 42.7821 192.936 34.0712V26.0671C192.936 26.0671 204.617 26.4697 208.744 16.0249C208.744 16.0249 213.275 25.6644 224.553 26.0671Z" fill="#FEC2BD"/>
</g>
<defs>
<clipPath id="clip0_8917_11284">
<rect width="294" height="230" fill="white" transform="translate(0.5)"/>
</clipPath>
</defs>
</svg>
