<svg width="294" height="230" viewBox="0 0 294 230" fill="none" xmlns="http://www.w3.org/2000/svg">
<g clip-path="url(#clip0_8557_10450)">
<path d="M147.004 230C228.192 230 294.008 223.734 294.008 216.005C294.008 208.276 228.192 202.01 147.004 202.01C65.816 202.01 0 208.276 0 216.005C0 223.734 65.816 230 147.004 230Z" fill="#CCCCCC"/>
<path d="M152.243 62.4965H72.9872C67.7551 62.4965 63.5137 66.7276 63.5137 71.9469V199.569C63.5137 204.789 67.7551 209.02 72.9872 209.02H152.243C157.475 209.02 161.717 204.789 161.717 199.569V71.9469C161.717 66.7276 157.475 62.4965 152.243 62.4965Z" fill="#3F3849"/>
<path d="M161.725 71.9469V199.561C161.725 204.78 157.483 209.012 152.252 209.012H72.9954C70.7547 209.012 68.7035 208.239 67.0889 206.941L157.351 63.9756C159.979 65.6521 161.725 68.5941 161.725 71.9387V71.9469Z" fill="#342E3D"/>
<path d="M148.907 69.046H76.3317C73.0605 69.046 70.4087 71.6914 70.4087 74.9546V196.554C70.4087 199.817 73.0605 202.462 76.3317 202.462H148.907C152.178 202.462 154.83 199.817 154.83 196.554V74.9546C154.83 71.6914 152.178 69.046 148.907 69.046Z" fill="white"/>
<path d="M154.83 74.9547V196.554C154.83 199.816 152.177 202.462 148.907 202.462H76.3317C74.3299 202.462 72.567 201.476 71.4961 199.956L153.075 70.7471C154.163 71.8154 154.83 73.3111 154.83 74.9464V74.9547Z" fill="#EFEFEF"/>
<path d="M93.8948 102.131H80.566C78.4983 102.131 76.8096 100.454 76.8096 98.3836V85.0872C76.8096 83.0245 78.4901 81.3398 80.566 81.3398H93.8948C95.9625 81.3398 97.6513 83.0163 97.6513 85.0872V98.3836C97.6513 100.446 95.9708 102.131 93.8948 102.131ZM80.566 83.2792C79.561 83.2792 78.7455 84.0928 78.7455 85.0954V98.3918C78.7455 99.3944 79.561 100.208 80.566 100.208H93.8948C94.8999 100.208 95.7154 99.3944 95.7154 98.3918V85.0954C95.7154 84.0928 94.8999 83.2792 93.8948 83.2792H80.566Z" fill="#3F3849"/>
<path d="M147.021 85.7775H106.721C106.186 85.7775 105.749 85.3419 105.749 84.8078C105.749 84.2736 106.186 83.8381 106.721 83.8381H147.021C147.556 83.8381 147.993 84.2736 147.993 84.8078C147.993 85.3419 147.556 85.7775 147.021 85.7775Z" fill="#3F3849"/>
<path d="M147.021 92.7051H106.721C106.186 92.7051 105.749 92.2695 105.749 91.7354C105.749 91.2012 106.186 90.7657 106.721 90.7657H147.021C147.556 90.7657 147.993 91.2012 147.993 91.7354C147.993 92.2695 147.556 92.7051 147.021 92.7051Z" fill="#3F3849"/>
<path d="M137.382 99.6327H106.721C106.186 99.6327 105.749 99.1972 105.749 98.663C105.749 98.1288 106.186 97.6933 106.721 97.6933H137.382C137.918 97.6933 138.354 98.1288 138.354 98.663C138.354 99.1972 137.918 99.6327 137.382 99.6327Z" fill="#3F3849"/>
<path d="M93.8948 130.047H80.566C78.4983 130.047 76.8096 128.37 76.8096 126.299V113.003C76.8096 110.94 78.4901 109.256 80.566 109.256H93.8948C95.9625 109.256 97.6513 110.932 97.6513 113.003V126.299C97.6513 128.362 95.9708 130.047 93.8948 130.047ZM80.566 111.195C79.561 111.195 78.7455 112.009 78.7455 113.011V126.308C78.7455 127.31 79.561 128.124 80.566 128.124H93.8948C94.8999 128.124 95.7154 127.31 95.7154 126.308V113.011C95.7154 112.009 94.8999 111.195 93.8948 111.195H80.566Z" fill="#3F3849"/>
<path d="M147.021 113.693H106.721C106.186 113.693 105.749 113.258 105.749 112.724C105.749 112.19 106.186 111.754 106.721 111.754H147.021C147.556 111.754 147.993 112.19 147.993 112.724C147.993 113.258 147.556 113.693 147.021 113.693Z" fill="#3F3849"/>
<path d="M147.021 120.621H106.721C106.186 120.621 105.749 120.185 105.749 119.651C105.749 119.117 106.186 118.682 106.721 118.682H147.021C147.556 118.682 147.993 119.117 147.993 119.651C147.993 120.185 147.556 120.621 147.021 120.621Z" fill="#3F3849"/>
<path d="M137.382 127.557H106.721C106.186 127.557 105.749 127.121 105.749 126.587C105.749 126.053 106.186 125.617 106.721 125.617H137.382C137.918 125.617 138.354 126.053 138.354 126.587C138.354 127.121 137.918 127.557 137.382 127.557Z" fill="#3F3849"/>
<path d="M93.8948 157.963H80.566C78.4983 157.963 76.8096 156.278 76.8096 154.215V140.919C76.8096 138.856 78.4901 137.172 80.566 137.172H93.8948C95.9625 137.172 97.6513 138.856 97.6513 140.919V154.215C97.6513 156.278 95.9708 157.963 93.8948 157.963ZM80.566 139.111C79.561 139.111 78.7455 139.925 78.7455 140.927V154.224C78.7455 155.226 79.561 156.04 80.566 156.04H93.8948C94.8999 156.04 95.7154 155.226 95.7154 154.224V140.927C95.7154 139.925 94.8999 139.111 93.8948 139.111H80.566Z" fill="#3F3849"/>
<path d="M147.021 141.609H106.721C106.186 141.609 105.749 141.174 105.749 140.64C105.749 140.105 106.186 139.67 106.721 139.67H147.021C147.556 139.67 147.993 140.105 147.993 140.64C147.993 141.174 147.556 141.609 147.021 141.609Z" fill="#3F3849"/>
<path d="M147.021 148.537H106.721C106.186 148.537 105.749 148.101 105.749 147.567C105.749 147.033 106.186 146.597 106.721 146.597H147.021C147.556 146.597 147.993 147.033 147.993 147.567C147.993 148.101 147.556 148.537 147.021 148.537Z" fill="#3F3849"/>
<path d="M137.382 155.473H106.721C106.186 155.473 105.749 155.037 105.749 154.503C105.749 153.969 106.186 153.533 106.721 153.533H137.382C137.918 153.533 138.354 153.969 138.354 154.503C138.354 155.037 137.918 155.473 137.382 155.473Z" fill="#3F3849"/>
<path d="M93.8948 185.887H80.566C78.4983 185.887 76.8096 184.202 76.8096 182.139V168.843C76.8096 166.78 78.4901 165.096 80.566 165.096H93.8948C95.9625 165.096 97.6513 166.78 97.6513 168.843V182.139C97.6513 184.202 95.9708 185.887 93.8948 185.887ZM80.566 167.027C79.561 167.027 78.7455 167.84 78.7455 168.843V182.139C78.7455 183.142 79.561 183.956 80.566 183.956H93.8948C94.8999 183.956 95.7154 183.142 95.7154 182.139V168.843C95.7154 167.84 94.8999 167.027 93.8948 167.027H80.566Z" fill="#3F3849"/>
<path d="M147.021 169.525H106.721C106.186 169.525 105.749 169.09 105.749 168.555C105.749 168.021 106.186 167.586 106.721 167.586H147.021C147.556 167.586 147.993 168.021 147.993 168.555C147.993 169.09 147.556 169.525 147.021 169.525Z" fill="#3F3849"/>
<path d="M147.021 176.453H106.721C106.186 176.453 105.749 176.017 105.749 175.483C105.749 174.949 106.186 174.513 106.721 174.513H147.021C147.556 174.513 147.993 174.949 147.993 175.483C147.993 176.017 147.556 176.453 147.021 176.453Z" fill="#3F3849"/>
<path d="M137.382 183.389H106.721C106.186 183.389 105.749 182.953 105.749 182.419C105.749 181.885 106.186 181.449 106.721 181.449H137.382C137.918 181.449 138.354 181.885 138.354 182.419C138.354 182.953 137.918 183.389 137.382 183.389Z" fill="#3F3849"/>
<path d="M98.887 62.4965H126.344V66.9012C126.344 70.2212 123.642 72.9166 120.314 72.9166H104.917C101.589 72.9166 98.887 70.2212 98.887 66.9012V62.4965Z" fill="#CCCCCC"/>
<path d="M123.386 61.7404V62.4964H112.619C114.498 62.4964 116.013 60.9761 116.013 59.1107C116.013 57.2453 114.489 55.725 112.619 55.725C110.749 55.725 109.225 57.237 109.225 59.1107C109.225 60.9844 110.749 62.4964 112.619 62.4964H101.853V61.7404C101.853 55.9304 106.573 51.2134 112.405 51.2134H112.834C118.666 51.2134 123.386 55.9304 123.386 61.7404Z" fill="#CCCCCC"/>
<path d="M126.352 63.121V66.9012C126.352 70.2212 123.65 72.9166 120.322 72.9166H104.925C101.589 72.9166 98.8953 70.2212 98.8953 66.9012V63.121C98.8953 66.4492 101.597 69.1364 104.925 69.1364H120.322C123.658 69.1364 126.352 66.441 126.352 63.121Z" fill="#A6A7A7"/>
<path d="M212.841 1.61891C210.065 2.8598 206.918 2.62148 204.199 1.26554C201.201 -0.230099 197.42 -0.402673 194.232 0.788909C189.322 2.62148 185.738 7.00157 183.547 11.7515C181.348 16.5014 180.326 21.6868 178.983 26.7407C176.512 36.0597 172.92 45.0829 168.307 53.5472C164.271 60.9679 159.46 67.9448 155.423 75.3655C151.395 82.7862 148.116 90.8068 147.49 99.2218C146.872 107.645 149.179 116.553 155.077 122.601C160.976 128.658 170.754 131.173 178.316 127.376C183.135 135.405 189.791 141.297 198.581 144.576C207.363 147.855 217.742 147.312 225.593 142.201C233.444 137.089 238.205 127.195 236.286 118.041C242.588 118.041 250.9 115.707 254.821 110.792C258.742 105.878 260.274 99.1479 258.866 93.0174C257.218 85.8679 252.028 80.1729 247.835 74.1411C243.008 67.2052 239.391 59.4476 237.134 51.312C233.666 38.7963 236.706 25.2944 232.908 12.9841C230.009 3.57475 221.194 -2.10376 212.849 1.61069L212.841 1.61891Z" fill="#362525"/>
<path d="M254.813 110.801C250.891 115.707 242.579 118.049 236.278 118.049C238.197 127.203 233.444 137.106 225.585 142.217C217.734 147.329 207.355 147.863 198.573 144.584C189.791 141.313 183.127 135.413 178.316 127.384C170.754 131.181 160.976 128.666 155.077 122.61C149.179 116.561 146.872 107.645 147.49 99.2301C147.729 95.9347 148.388 92.7133 149.335 89.5577C149.097 97.0688 151.296 104.826 156.428 110.193C161.89 115.904 170.935 118.271 177.937 114.696C182.402 122.265 188.564 127.82 196.695 130.91C204.826 134 214.431 133.49 221.697 128.666C228.962 123.842 233.37 114.515 231.59 105.886C237.423 105.886 245.117 103.684 248.75 99.0575C252.382 94.4226 253.799 88.0703 252.49 82.3014C252.259 81.2577 251.938 80.2469 251.559 79.2526C254.697 83.5258 257.688 87.8977 258.874 93.0174C260.283 99.1397 258.75 105.878 254.829 110.793L254.813 110.801Z" fill="#2D1E1E"/>
<path d="M224.053 21.3252V26.0669C212.775 25.6642 208.244 16.0247 208.244 16.0247C204.117 26.4695 192.436 26.0669 192.436 26.0669V21.3252C192.436 21.3252 200.212 21.5964 205.303 16.0247C206.465 14.7592 207.486 13.206 208.244 11.283C208.244 11.283 209.34 13.6004 211.786 16.0247C214.315 18.5229 218.311 21.1197 224.053 21.3252Z" fill="#362525"/>
<path d="M224.053 21.3252V26.0669C212.775 25.6642 208.244 16.0247 208.244 16.0247C204.117 26.4695 192.436 26.0669 192.436 26.0669V21.3252C192.436 21.3252 200.212 21.5964 205.303 16.0247C206.465 14.7592 207.486 13.206 208.244 11.283C208.244 11.283 209.34 13.6004 211.786 16.0247C214.315 18.5229 218.311 21.1197 224.053 21.3252Z" fill="#2D1E1E"/>
<path d="M222.52 111.244C222.52 111.368 222.487 111.491 222.479 111.614C221.359 119.15 215.65 123.275 209.537 123.957C208.359 124.089 207.173 124.089 206.003 123.957C199.957 123.333 194.298 119.314 193.078 111.894C193.045 111.721 193.029 111.54 193.004 111.36C192.535 107.908 193.004 103.651 194.989 98.4082C195.459 97.1756 196.003 95.8854 196.645 94.5377C196.645 94.5377 197.263 94.5377 198.326 94.5541C198.639 94.5541 199.001 94.5541 199.388 94.5541C200.196 94.5541 201.143 94.5705 202.214 94.5705C205.254 94.5952 209.233 94.6034 213.319 94.587C214.258 94.587 215.213 94.587 216.152 94.5705C216.507 94.5705 216.869 94.5705 217.223 94.5705C218.039 94.5705 218.838 94.5459 219.629 94.5377C219.629 94.5377 220.593 96.5921 221.441 99.6738C221.441 99.6738 221.441 99.6793 221.441 99.6902C222.314 102.846 223.056 107.07 222.512 111.253L222.52 111.244Z" fill="#C00016"/>
<path d="M204.998 190.768L205.023 201.008C205.023 203.867 203.268 206.44 200.591 207.459C197.403 208.675 192.007 210.31 182.962 212.184C180.071 212.784 177.451 210.195 178.16 207.335C178.168 207.286 178.184 207.237 178.193 207.187C178.44 206.259 179.025 205.462 179.815 204.919C182.896 202.824 191.513 196.34 193.606 188.311C193.606 188.311 196.275 196.233 204.998 190.76V190.768Z" fill="#FEC2BD"/>
<path d="M182.962 212.184C185.903 211.567 188.457 210.992 190.673 210.442C190.096 210.565 189.52 210.688 188.91 210.82C186.027 211.42 183.399 208.823 184.107 205.963C184.124 205.922 184.124 205.864 184.14 205.823C184.387 204.895 184.972 204.097 185.763 203.563C188.127 201.944 193.317 199.126 196.719 192.042C194.611 190.891 193.597 188.328 193.597 188.328C191.505 196.356 182.888 202.832 179.807 204.936C179.016 205.47 178.423 206.267 178.184 207.196C178.168 207.237 178.16 207.294 178.151 207.335C177.443 210.195 180.063 212.792 182.954 212.192L182.962 212.184Z" fill="#EFACA8"/>
<path d="M182.962 212.184C192.007 210.31 197.395 208.683 200.583 207.459C203.269 206.44 205.023 203.867 205.015 201.008V195.641C205.015 195.641 191.521 201.846 188.688 197.071C185.458 200.852 181.644 203.67 179.807 204.928C179.016 205.462 178.423 206.259 178.184 207.187C178.168 207.229 178.16 207.286 178.151 207.327C177.443 210.187 180.063 212.784 182.954 212.184H182.962Z" fill="#3A3152"/>
<path d="M182.962 212.184C185.903 211.568 188.457 210.992 190.673 210.442C190.096 210.565 189.52 210.688 188.91 210.82C186.019 211.42 183.399 208.823 184.107 205.963C184.107 205.922 184.124 205.864 184.14 205.823C184.379 204.895 184.972 204.098 185.763 203.563C187.057 202.676 189.322 201.024 191.686 198.797C190.368 198.608 189.289 198.09 188.696 197.08C185.467 200.86 181.653 203.678 179.815 204.936C179.025 205.47 178.432 206.267 178.193 207.196C178.176 207.237 178.168 207.294 178.16 207.335C177.451 210.195 180.071 212.792 182.962 212.192V212.184Z" fill="#2A213A"/>
<path d="M205.279 189.56C205.237 190.012 205.138 190.448 204.99 190.867C204.199 193.316 201.926 195.099 199.281 195.066H199.067C199.018 195.066 198.968 195.066 198.911 195.066C197.716 194.984 196.629 194.548 195.747 193.866C194.33 192.765 193.408 191.048 193.367 189.149C193.367 189.042 193.367 188.919 193.367 188.804C193.556 181.901 192.543 155.095 191.67 148.586C191.332 146.104 190.92 143.639 190.401 141.182C190.195 140.204 189.981 139.226 189.75 138.248C189.635 137.763 189.52 137.278 189.396 136.785C187.93 130.959 187.402 125.765 187.518 121.163C187.534 120.621 187.551 120.095 187.584 119.577C187.617 119.068 187.65 118.567 187.699 118.073C187.724 117.835 187.74 117.589 187.773 117.359C187.773 117.326 187.773 117.276 187.79 117.243C187.839 116.75 187.905 116.266 187.971 115.781C188.012 115.493 188.061 115.197 188.111 114.901C188.152 114.614 188.21 114.326 188.267 114.047C188.309 113.8 188.366 113.554 188.407 113.307C188.531 112.715 188.663 112.132 188.811 111.573C188.877 111.31 188.943 111.047 189.017 110.784C189.108 110.456 189.198 110.135 189.297 109.823C189.355 109.634 189.412 109.453 189.47 109.264C189.783 108.27 190.129 107.333 190.5 106.429C190.59 106.199 190.681 105.977 190.78 105.755C190.871 105.533 190.961 105.328 191.068 105.106C191.167 104.884 191.266 104.678 191.365 104.465C191.464 104.259 191.563 104.054 191.661 103.848C191.867 103.429 192.082 103.018 192.296 102.616C192.395 102.435 192.493 102.262 192.592 102.09C192.691 101.901 192.806 101.72 192.914 101.539C193.589 100.389 194.297 99.3451 194.989 98.4C195.278 98.0138 195.566 97.644 195.854 97.2824C196.019 97.0852 196.176 96.888 196.332 96.7072C196.629 96.362 196.909 96.0333 197.197 95.7293C197.378 95.532 197.551 95.343 197.733 95.1622C197.939 94.9404 198.136 94.7431 198.334 94.5459C198.647 94.5459 199.01 94.5459 199.397 94.5459C200.204 94.5459 201.151 94.5623 202.222 94.5623C204.191 103.684 205.369 113.85 206.012 123.957C207.618 149.005 206.012 182.156 205.287 189.552L205.279 189.56Z" fill="#C00016"/>
<path d="M199.265 192.691C199.281 193.562 199.29 194.359 199.29 195.066H199.075C199.026 195.066 198.977 195.066 198.919 195.066C197.724 194.984 196.637 194.548 195.756 193.866C194.339 192.765 193.416 191.048 193.375 189.149C193.375 189.042 193.375 188.919 193.375 188.804C193.564 181.901 192.551 155.095 191.678 148.586C191.34 146.104 190.928 143.639 190.409 141.182C190.203 140.204 189.989 139.226 189.758 138.248C189.643 137.763 189.528 137.278 189.404 136.785C187.938 130.959 187.411 125.765 187.526 121.163C187.542 120.621 187.559 120.095 187.592 119.577C187.625 119.068 187.658 118.567 187.707 118.073C187.732 117.835 187.748 117.589 187.781 117.359C187.781 117.326 187.781 117.276 187.798 117.243C187.847 116.75 187.905 116.266 187.979 115.781C188.02 115.493 188.07 115.197 188.119 114.901C188.16 114.614 188.218 114.326 188.276 114.047C188.317 113.8 188.374 113.554 188.416 113.307C188.539 112.715 188.671 112.132 188.819 111.573C188.885 111.31 188.951 111.047 189.025 110.784C189.116 110.456 189.206 110.135 189.305 109.823C189.363 109.634 189.421 109.453 189.478 109.264C189.791 108.27 190.137 107.333 190.508 106.429C190.599 106.199 190.689 105.977 190.788 105.755C190.879 105.533 190.969 105.328 191.076 105.106C191.175 104.884 191.274 104.678 191.373 104.465C191.472 104.259 191.571 104.054 191.67 103.848C191.876 103.429 192.09 103.018 192.304 102.616C192.403 102.435 192.502 102.262 192.6 102.09C192.699 101.901 192.815 101.72 192.922 101.539C193.597 100.389 194.306 99.3451 194.998 98.4C195.286 98.0138 195.574 97.644 195.863 97.2824C196.027 97.0852 196.184 96.8962 196.34 96.7072C196.637 96.362 196.917 96.0333 197.205 95.7293C197.387 95.532 197.56 95.343 197.741 95.1622C197.947 94.9404 198.145 94.7431 198.342 94.5459C198.655 94.5459 199.018 94.5459 199.405 94.5459C196.736 98.7699 194.232 104.325 193.012 111.36C191.744 118.632 191.834 127.491 194.495 138.059C195.665 142.719 196.604 147.46 197.238 152.243C198.12 158.826 199.108 183.767 199.273 192.683L199.265 192.691Z" fill="#86140B"/>
<path d="M210.551 190.768L210.526 201.008C210.526 203.867 212.281 206.44 214.958 207.459C218.146 208.675 223.542 210.31 232.587 212.184C235.479 212.784 238.098 210.195 237.39 207.335C237.381 207.286 237.365 207.237 237.357 207.187C237.11 206.259 236.525 205.462 235.734 204.919C232.653 202.824 224.036 196.34 221.944 188.311C221.944 188.311 219.275 196.233 210.551 190.76V190.768Z" fill="#FEC2BD"/>
<path d="M232.587 212.184C229.646 211.567 227.092 210.992 224.876 210.442C225.453 210.565 226.03 210.688 226.639 210.82C229.523 211.42 232.15 208.823 231.442 205.963C231.425 205.922 231.425 205.864 231.409 205.823C231.162 204.895 230.577 204.097 229.786 203.563C227.422 201.944 222.232 199.126 218.83 192.042C220.939 190.891 221.952 188.327 221.952 188.327C224.044 196.356 232.661 202.832 235.742 204.936C236.533 205.47 237.126 206.267 237.365 207.196C237.381 207.237 237.39 207.294 237.398 207.335C238.106 210.195 235.487 212.792 232.595 212.192L232.587 212.184Z" fill="#EFACA8"/>
<path d="M232.587 212.184C223.542 210.31 218.154 208.683 214.966 207.459C212.281 206.44 210.526 203.867 210.534 201.008V195.641C210.534 195.641 224.028 201.846 226.862 197.071C230.091 200.851 233.905 203.67 235.742 204.927C236.533 205.462 237.126 206.259 237.365 207.187C237.381 207.228 237.39 207.286 237.398 207.327C238.106 210.187 235.487 212.784 232.595 212.184H232.587Z" fill="#3A3152"/>
<path d="M232.587 212.184C229.646 211.567 227.092 210.992 224.876 210.442C225.453 210.565 226.03 210.688 226.639 210.82C229.531 211.42 232.15 208.823 231.442 205.963C231.442 205.922 231.425 205.864 231.409 205.823C231.17 204.895 230.577 204.097 229.786 203.563C228.493 202.676 226.227 201.024 223.863 198.797C225.181 198.608 226.26 198.09 226.853 197.079C230.083 200.86 233.897 203.678 235.734 204.936C236.525 205.47 237.118 206.267 237.357 207.196C237.373 207.237 237.381 207.294 237.39 207.335C238.098 210.195 235.478 212.792 232.587 212.192V212.184Z" fill="#2A213A"/>
<path d="M226.153 136.794C225.667 138.741 225.222 140.697 224.843 142.661C224.654 143.647 224.481 144.633 224.316 145.62C224.151 146.606 224.003 147.6 223.871 148.586C223.6 150.632 223.311 153.862 223.056 157.527C223.006 158.201 222.957 158.883 222.916 159.573C222.875 160.272 222.825 160.979 222.784 161.685C222.743 162.384 222.693 163.099 222.66 163.814C222.644 164.175 222.627 164.537 222.603 164.899C222.545 165.967 222.496 167.043 222.446 168.095V168.112C222.413 168.81 222.38 177.989 222.356 178.672C222.339 179.025 222.323 179.362 222.314 179.707C222.29 180.381 222.273 181.03 222.249 181.663C222.158 184.531 222.133 187.037 222.183 188.796C222.183 188.911 222.183 189.026 222.183 189.141C222.141 190.752 221.474 192.239 220.403 193.316C220.271 193.447 220.14 193.57 220 193.686C219.934 193.751 219.868 193.801 219.802 193.858C219.72 193.916 219.637 193.973 219.563 194.022C219.085 194.351 218.558 194.614 217.998 194.795C217.833 194.844 217.677 194.894 217.512 194.926C217.322 194.959 217.133 195 216.935 195.025C216.836 195.041 216.746 195.05 216.639 195.058C216.589 195.058 216.54 195.058 216.474 195.058H216.268C213.624 195.099 211.35 193.316 210.559 190.867C210.411 190.448 210.32 190.004 210.271 189.552C209.538 182.164 207.931 149.005 209.538 123.949C210.188 113.85 211.358 103.684 213.327 94.5787C214.266 94.5787 215.222 94.5788 216.161 94.5623C216.515 94.5623 216.878 94.5623 217.232 94.5623L217.52 94.8499C218.006 95.343 218.525 95.9018 219.052 96.5182C219.159 96.6414 219.266 96.7647 219.374 96.8962C219.917 97.5372 220.469 98.2521 221.013 99.0246C221.161 99.2382 221.309 99.4437 221.458 99.6656C221.458 99.6656 221.458 99.6711 221.458 99.682C221.532 99.7806 221.598 99.8875 221.664 99.9861C221.779 100.15 221.894 100.323 221.993 100.487C222.1 100.652 222.216 100.833 222.323 101.005C222.43 101.178 222.545 101.358 222.644 101.547C222.751 101.728 222.858 101.909 222.965 102.098C223.13 102.386 223.287 102.673 223.451 102.977C223.616 103.265 223.756 103.561 223.904 103.857C224.003 104.062 224.11 104.268 224.201 104.473C224.39 104.876 224.572 105.278 224.753 105.689C224.769 105.722 224.778 105.739 224.786 105.763C224.885 105.985 224.975 106.207 225.066 106.437C225.437 107.341 225.783 108.286 226.096 109.272C226.153 109.461 226.211 109.642 226.269 109.831C226.367 110.143 226.458 110.464 226.549 110.792C226.615 111.055 226.689 111.318 226.755 111.581C226.837 111.894 226.919 112.206 226.985 112.526C227.101 113.02 227.208 113.529 227.298 114.047C227.356 114.326 227.405 114.614 227.455 114.901C227.504 115.189 227.554 115.485 227.595 115.781C227.661 116.266 227.727 116.742 227.776 117.243C227.776 117.276 227.793 117.326 227.793 117.359C227.826 117.589 227.842 117.835 227.867 118.073C227.916 118.558 227.957 119.068 227.982 119.577C228.015 120.095 228.032 120.621 228.048 121.163C228.163 125.765 227.636 130.959 226.17 136.785L226.153 136.794Z" fill="#C00016"/>
<path d="M226.153 136.794C225.667 138.741 225.222 140.697 224.843 142.661C224.654 143.647 224.481 144.633 224.316 145.62C224.151 146.606 224.011 147.6 223.88 148.586C223.608 150.632 223.319 153.862 223.056 157.527C223.015 158.201 222.965 158.883 222.916 159.573C222.875 160.272 222.825 160.979 222.784 161.685C222.743 162.392 222.702 163.099 222.66 163.814C222.644 164.175 222.627 164.537 222.603 164.899C222.553 165.967 222.496 167.043 222.446 168.095V168.112C222.413 168.81 222.38 177.989 222.356 178.672C222.339 179.025 222.323 179.362 222.314 179.707C222.29 180.373 222.273 181.03 222.249 181.663C222.158 184.531 222.133 187.037 222.183 188.796C222.183 188.911 222.183 189.026 222.183 189.141C222.141 190.752 221.474 192.239 220.403 193.316C220.271 193.447 220.14 193.57 220 193.686C219.934 193.751 219.868 193.801 219.794 193.85C219.72 193.907 219.637 193.965 219.563 194.022C219.085 194.351 218.558 194.614 217.998 194.795C217.833 194.844 217.677 194.894 217.512 194.926C217.322 194.959 217.133 195 216.935 195.025C216.836 195.041 216.746 195.05 216.639 195.058C216.589 195.058 216.54 195.058 216.474 195.058H216.268C216.268 194.351 216.268 193.546 216.293 192.683C216.449 183.758 217.438 158.817 218.327 152.243C218.962 147.469 219.892 142.727 221.07 138.059C223.748 127.425 223.83 118.534 222.537 111.236C221.309 104.268 218.83 98.7534 216.177 94.5623C216.531 94.5623 216.894 94.5623 217.248 94.5623L217.536 94.8499C218.023 95.343 218.541 95.9018 219.069 96.5182C219.176 96.6414 219.283 96.7647 219.39 96.8962C219.934 97.5372 220.486 98.2521 221.029 99.0246C221.178 99.2382 221.326 99.4437 221.474 99.6656C221.474 99.6656 221.474 99.6711 221.474 99.682C221.548 99.7806 221.614 99.8875 221.68 99.9861C221.795 100.15 221.911 100.323 222.01 100.487C222.117 100.652 222.232 100.833 222.339 101.005C222.446 101.178 222.562 101.358 222.66 101.547C222.768 101.728 222.875 101.909 222.982 102.098C223.146 102.386 223.303 102.673 223.468 102.977C223.632 103.265 223.773 103.561 223.921 103.857C224.02 104.062 224.127 104.268 224.217 104.473C224.407 104.876 224.588 105.278 224.769 105.689C224.786 105.722 224.794 105.739 224.802 105.763C224.901 105.985 224.992 106.207 225.082 106.437C225.453 107.341 225.799 108.286 226.112 109.272C226.17 109.461 226.227 109.642 226.285 109.831C226.384 110.143 226.475 110.464 226.565 110.792C226.631 111.055 226.705 111.318 226.771 111.581C226.853 111.894 226.936 112.206 227.002 112.526C227.117 113.02 227.224 113.529 227.315 114.047C227.372 114.326 227.422 114.614 227.471 114.901C227.521 115.189 227.57 115.485 227.611 115.781C227.677 116.266 227.743 116.742 227.793 117.243C227.793 117.276 227.809 117.326 227.809 117.359C227.842 117.589 227.858 117.835 227.883 118.073C227.933 118.558 227.974 119.068 227.999 119.577C228.031 120.095 228.048 120.621 228.064 121.163C228.18 125.765 227.653 130.959 226.186 136.785L226.153 136.794Z" fill="#86140B"/>
<path d="M216.812 56.974C216.812 56.974 239.894 73.648 245.957 84.2654C246.245 84.7749 246.41 85.3337 246.435 85.9172V85.9829C246.575 89.5412 242.192 91.382 239.63 88.9084C236.121 85.5227 228.831 78.7348 220.395 72.2838C215.922 68.8652 214.134 62.7922 216.466 57.6726C216.573 57.4342 216.688 57.2041 216.812 56.9658V56.974Z" fill="#FEC2BD"/>
<path d="M245.644 88.4893C245.644 88.4893 239.161 96.6907 229.597 101.104C229.597 101.104 230.94 101.991 232.109 103.446C235.577 107.752 229.811 113.455 225.527 109.954C225.478 109.913 225.428 109.872 225.379 109.831C221.524 106.544 221.277 100.652 224.588 96.8222C227.043 93.9871 231.145 90.174 237.999 85.5227C237.999 85.5227 242.983 84.5284 245.644 88.4976V88.4893Z" fill="#FEC2BD"/>
<path d="M216.812 56.974C216.812 56.974 239.894 73.648 245.957 84.2654C246.245 84.7749 246.41 85.3337 246.435 85.9172V85.9829C246.575 89.5412 242.192 91.382 239.63 88.9084C236.121 85.5227 228.831 78.7348 220.395 72.2838C215.922 68.8652 214.134 62.7922 216.466 57.6726C216.573 57.4342 216.688 57.2041 216.812 56.9658V56.974Z" fill="#FEC2BD"/>
<path d="M245.644 88.4893C245.644 88.4893 239.161 96.6907 229.597 101.104C229.597 101.104 230.94 101.991 232.109 103.446C235.577 107.752 229.811 113.455 225.527 109.954C225.478 109.913 225.428 109.872 225.379 109.831C221.524 106.544 221.277 100.652 224.588 96.8222C227.043 93.9871 231.145 90.174 237.999 85.5227C237.999 85.5227 242.983 84.5284 245.644 88.4976V88.4893Z" fill="#FEC2BD"/>
<path d="M245.949 84.2736C239.886 73.648 216.803 56.9822 216.803 56.9822C216.68 57.2123 216.564 57.4507 216.457 57.6808C216.358 57.9109 216.26 58.1409 216.177 58.3628C222.018 62.7511 238.263 75.4312 243.206 84.0928C243.494 84.5941 243.659 85.1611 243.692 85.7446V85.8103C243.692 86.0651 243.692 86.3034 243.65 86.5417C243.552 87.2156 243.28 87.8072 242.901 88.3003C242.901 88.3003 242.901 88.3058 242.901 88.3167C242.901 88.3167 242.406 88.9413 241.492 89.9439C239.087 92.5653 233.781 97.7343 226.862 100.939C226.862 100.939 228.204 101.827 229.374 103.281C231.796 106.289 229.72 109.971 226.788 110.727C230.832 112.387 235.256 107.357 232.117 103.462C230.948 102.008 229.605 101.12 229.605 101.12C238.238 97.1262 244.367 90.0507 245.463 88.7194C245.463 88.7194 245.479 88.7194 245.479 88.703C245.52 88.6455 245.578 88.5879 245.627 88.5222C245.644 88.5058 245.652 88.4975 245.652 88.4975C246.171 87.8237 246.476 86.969 246.443 85.9993V85.9336C246.41 85.3501 246.245 84.7913 245.957 84.2818L245.949 84.2736Z" fill="#F9B5B2"/>
<path d="M199.611 56.974C199.611 56.974 176.537 73.6398 170.474 84.2654C170.185 84.7749 170.021 85.3337 169.988 85.9172C169.988 85.9418 169.988 85.9582 169.988 85.9829C169.856 89.5412 174.23 91.382 176.8 88.9084C180.31 85.5227 187.608 78.7348 196.044 72.2838C200.517 68.8652 202.297 62.8005 199.965 57.6726C199.858 57.4342 199.743 57.2041 199.619 56.9658L199.611 56.974Z" fill="#FEC2BD"/>
<path d="M199.611 56.974C199.611 56.974 176.537 73.6398 170.474 84.2654C170.185 84.7749 170.021 85.3337 169.988 85.9172C169.988 85.9418 169.988 85.9582 169.988 85.9829C169.856 89.5412 174.23 91.382 176.8 88.9084C180.31 85.5227 187.608 78.7348 196.044 72.2838C200.517 68.8652 202.297 62.8005 199.965 57.6726C199.858 57.4342 199.743 57.2041 199.619 56.9658L199.611 56.974Z" fill="#FEC2BD"/>
<path d="M178.044 86.4267C178.044 86.4267 172.904 69.3254 162.211 57.6397C161.264 56.6042 159.888 56.0701 158.48 56.1687C158.43 56.1687 158.381 56.1687 158.323 56.1851C155.036 56.4892 153.207 60.1461 154.773 63.047C155.728 64.8303 157.606 66.9258 161.239 67.838C161.239 67.838 166.273 80.666 169.988 86.969C170.185 87.306 170.383 87.6429 170.762 87.7579C171.94 88.1113 174.725 88.5551 178.044 86.4349V86.4267Z" fill="#FEC2BD"/>
<path d="M199.965 57.6726C199.858 57.4343 199.735 57.2042 199.611 56.9741C199.611 56.9741 199.463 57.0809 199.199 57.2781C199.99 61.7322 198.252 66.4245 194.751 69.2761C187.485 75.2012 181.109 81.422 177.583 85.0132C177.262 85.3337 176.973 85.6296 176.71 85.9007C174.617 88.0538 171.24 86.9362 170.482 84.2572C170.482 84.2407 170.466 84.2161 170.466 84.1997C170.416 84.1175 170.367 84.0353 170.317 83.9449C166.833 77.6418 162.112 64.8056 162.112 64.8056C158.702 63.8935 156.947 61.8061 156.049 60.0146C155.646 59.2093 155.489 58.3547 155.522 57.5247C154.179 58.9135 153.751 61.1323 154.772 63.0306C155.736 64.8138 157.606 66.9094 161.239 67.8216C161.239 67.8216 166.264 80.6496 169.988 86.9526C170.037 87.0348 170.087 87.117 170.136 87.2074C170.894 89.9275 174.543 91.0862 176.792 88.9085C180.293 85.5227 187.592 78.7348 196.036 72.2838C200.509 68.8652 202.288 62.8005 199.957 57.6808L199.965 57.6726Z" fill="#F9B5B2"/>
<path d="M220.329 83.2135L208.244 84.5941L196.159 83.2135C198.277 88.8263 196.464 96.7811 196.464 96.7811C197.601 97.381 199.174 97.833 200.806 98.1863C205.707 99.2382 210.79 99.2382 215.691 98.1863C217.322 97.833 218.896 97.381 220.033 96.7811C220.033 96.7811 218.22 88.8263 220.337 83.2135H220.329Z" fill="#FEC2BD"/>
<path d="M220.024 96.7811C219.192 97.2249 218.113 97.5947 216.944 97.8905C216.556 95.8607 215.436 88.8838 217.29 83.5669L220.329 83.2135C218.212 88.8263 220.024 96.7811 220.024 96.7811Z" fill="#F9B5B2"/>
<path d="M224.506 67.2545C223.122 62.5622 219.209 55.3305 208.244 54.3854C197.28 55.3223 193.367 62.5539 191.983 67.2545C191.25 69.7527 191.068 72.3989 191.563 74.9546C192.526 79.9757 195.467 83.0985 198.606 85.0461C204.471 88.6701 212.017 88.6701 217.883 85.0461C221.029 83.1067 223.962 79.9757 224.926 74.9546C225.42 72.3989 225.239 69.7527 224.506 67.2545Z" fill="#C00016"/>
<path d="M224.926 74.9546C223.962 79.9675 221.029 83.0985 217.883 85.0379C212.009 88.6619 204.471 88.6619 198.606 85.0379C195.459 83.0902 192.526 79.9675 191.554 74.9546C191.175 72.9741 191.192 70.9443 191.554 68.972C192.526 73.9603 195.451 77.0748 198.598 79.006C204.463 82.63 212.001 82.63 217.874 79.006C221.005 77.0666 223.929 73.9603 224.909 68.972C225.28 70.9443 225.297 72.9741 224.909 74.9546H224.926Z" fill="#86140B"/>
<path d="M212.981 44.9514V55.1168C212.981 57.7219 210.864 59.8421 208.244 59.8421C205.625 59.8421 203.516 57.7219 203.516 55.1168V44.9514H212.981Z" fill="#FFBEBA"/>
<path d="M212.981 44.9514V51.7968C211.482 52.2653 209.892 52.5118 208.244 52.5118C206.597 52.5118 205.007 52.2653 203.516 51.7968V44.9514H212.981Z" fill="#F2A2A0"/>
<path d="M224.053 26.0669V34.071C224.053 42.7819 216.976 49.841 208.244 49.841C199.512 49.841 192.436 42.7819 192.436 34.071V26.0669C192.436 26.0669 204.117 26.4696 208.244 16.0247C208.244 16.0247 212.775 25.6642 224.053 26.0669Z" fill="#FEC2BD"/>
</g>
<defs>
<clipPath id="clip0_8557_10450">
<rect width="294" height="230" fill="white"/>
</clipPath>
</defs>
</svg>
