<?xml version="1.0" encoding="utf-8"?>
<!-- Generator: Adobe Illustrator 22.0.0, SVG Export Plug-In . SVG Version: 6.00 Build 0)  -->
<svg version="1.1" id="Layer_1" xmlns="http://www.w3.org/2000/svg" xmlns:xlink="http://www.w3.org/1999/xlink" x="0px" y="0px"
	 viewBox="0 0 215 40.2" style="enable-background:new 0 0 215 40.2;" xml:space="preserve">
<g>
	<g>
		<path class="st0" d="M55.6,22.6h7v3.7H48.3l7.9-13h-6.5V9.6h13.8L55.6,22.6z"/>
		<path class="st0" d="M73.8,15.1h4v11.2h-4V25c-0.9,1.3-2.4,1.6-3.5,1.6c-1.2,0-2.7-0.3-4-1.8c-1.1-1.2-1.6-2.4-1.6-4.1
			c0-2.1,0.8-3.6,1.7-4.5c0.9-0.9,2.4-1.6,4-1.6c1.8,0,2.9,0.9,3.3,1.4V15.1z M69.6,18.8c-0.5,0.5-0.8,1.2-0.8,1.8
			c0,0.6,0.3,1.3,0.8,1.8c0.4,0.4,1.1,0.8,1.8,0.8c0.6,0,1.3-0.3,1.8-0.8c0.3-0.4,0.7-0.9,0.7-1.8c0-0.5-0.1-1.2-0.8-1.8
			c-0.4-0.4-0.9-0.7-1.8-0.7C70.8,18.1,70.2,18.3,69.6,18.8z"/>
		<path class="st0" d="M89.6,26c-1.1,0.5-1.9,0.6-2.8,0.6c-2.2,0-3.6-0.9-4.4-1.7c-1-1-1.7-2.5-1.7-4.2c0-1.6,0.7-3.2,1.8-4.3
			c1-1,2.6-1.7,4.5-1.7c0.7,0,1.6,0.1,2.6,0.6v3.3c-0.5-0.4-1.2-0.7-2.1-0.7c-0.9,0-1.5,0.4-1.9,0.8c-0.6,0.5-0.8,1.3-0.8,1.9
			c0,0.6,0.2,1.3,0.7,1.9c0.4,0.4,1,0.8,2,0.8c0.6,0,1.3-0.1,2-0.8V26z"/>
		<path class="st0" d="M92.5,8h4v8.4c0.3-0.4,0.8-0.8,1.2-1.1c0.8-0.5,1.6-0.5,2.3-0.5c1.6,0,2.6,0.5,3.3,1.2c1,1,1,2,1,3.1v7.1h-4
			v-5.6c0-0.8-0.1-1.7-0.5-2.2C99.5,18,99,18,98.6,18c-0.4,0-1,0.1-1.4,0.5c-0.3,0.3-0.7,0.9-0.7,1.8v6h-4V8z"/>
		<path class="st0" d="M107.1,15.1h4v1.8c0.4-0.8,1-1.2,1.6-1.5c0.6-0.3,1.3-0.5,2.1-0.5c0.1,0,0.3,0,0.8,0.1v3.8
			c-0.2-0.1-0.8-0.4-1.7-0.4c-0.5,0-1.2,0.1-1.8,0.6c-0.8,0.8-0.9,1.9-0.9,2.5v4.8h-4V15.1z"/>
		<path class="st0" d="M126.6,15.1h4v11.2h-4V25c-0.9,1.3-2.4,1.6-3.5,1.6c-1.2,0-2.7-0.3-4-1.8c-1.1-1.2-1.6-2.4-1.6-4.1
			c0-2.1,0.8-3.6,1.7-4.5c0.9-0.9,2.4-1.6,4-1.6c1.8,0,2.9,0.9,3.3,1.4V15.1z M122.4,18.8c-0.5,0.5-0.8,1.2-0.8,1.8
			c0,0.6,0.3,1.3,0.8,1.8c0.4,0.4,1.1,0.8,1.8,0.8c0.6,0,1.3-0.3,1.8-0.8c0.4-0.4,0.8-0.9,0.8-1.8c0-0.5-0.1-1.2-0.8-1.8
			c-0.4-0.4-0.9-0.7-1.8-0.7C123.7,18.1,123,18.3,122.4,18.8z"/>
	</g>
	<g>
		<path class="st0" d="M134,15.1h4v1.4c1.1-1.5,2.6-1.6,3.5-1.6c1.1,0,2.4,0.3,3.3,1.2c0.9,1,1,1.9,1,3.1v7.1h-4v-5.6
			c0-0.7,0-1.6-0.5-2.2c-0.4-0.4-0.9-0.5-1.3-0.5c-0.6,0-1.1,0.2-1.5,0.5c-0.4,0.4-0.6,1.1-0.6,1.8v6h-4V15.1z M135.3,9.6l1.7-1.9
			l3.2,2.4l3.2-2.4l1.8,1.9l-4.9,3.7L135.3,9.6z"/>
	</g>
	<g>
		<path class="st0" d="M157.7,8.2c1.2,0,2.2,1,2.2,2.2s-1,2.2-2.2,2.2c-1.2,0-2.2-1-2.2-2.2S156.5,8.2,157.7,8.2z M159.7,15.1V32h-4
			V15.1H159.7z"/>
		<path class="st0" d="M167,15.1v11.2h-4V15.1H167z M169,9.9l-3.8,3.4l-1.8-1.4l3.2-3.8L169,9.9z"/>
		<path class="st0" d="M183,26.2h-4V25c-1.1,1.4-2.6,1.6-3.4,1.6c-1.6,0-2.9-0.5-3.9-1.5c-1.1-1.1-1.8-2.7-1.8-4.4
			c0-1.9,0.8-3.4,1.8-4.4c1.1-1,2.6-1.5,3.9-1.5c1.5,0,2.6,0.7,3.3,1.4V8h4V26.2z M178.3,22.5c0.5-0.5,0.8-1.2,0.8-1.9
			c0-0.6-0.4-1.4-0.7-1.8c-0.5-0.5-1.1-0.8-1.8-0.8c-0.9,0-1.4,0.4-1.8,0.7c-0.4,0.4-0.8,1.1-0.8,1.9c0,0.6,0.2,1.2,0.8,1.7
			c0.6,0.5,1.2,0.8,1.8,0.8C177.2,23.2,177.9,22.9,178.3,22.5z"/>
		<path class="st0" d="M190.4,8v18.2h-4V8H190.4z"/>
		<path class="st0" d="M205,24.8c-1.5,1.4-3.2,1.8-5,1.8c-1.6,0-3.4-0.3-5-1.8c-1.2-1.2-1.7-2.6-1.7-4.1c0-2,0.9-3.3,1.7-4.1
			c0.9-0.9,2.5-1.8,5-1.8c2.5,0,4.1,1,5,1.8c0.8,0.8,1.7,2.1,1.7,4.1C206.7,22.2,206.2,23.6,205,24.8z M198.2,18.8
			c-0.5,0.5-0.8,1.2-0.8,1.8c0,0.7,0.3,1.3,0.8,1.8c0.5,0.5,1.1,0.8,1.8,0.8c0.6,0,1.3-0.3,1.8-0.8c0.5-0.5,0.8-1.1,0.8-1.8
			c0-0.6-0.3-1.3-0.8-1.8c-0.5-0.4-1.1-0.7-1.8-0.7C199.4,18.1,198.7,18.4,198.2,18.8z"/>
	</g>
</g>
<g>
	<path class="st0" d="M17.7,13.6c0.8,0.7,1.3,1.7,1.4,2.5c0.1,0.6,0.2,1.1-0.1,1.8c-0.3,0.7-0.5,0.7-0.2,1c0.3,0.3,0.4,0.4,0.4,0.3
		c0.1,0,1.1-0.1,1.7-0.7c0.6-0.6,1-2.1,1-2.9c-0.1-0.9-0.4-2.2-1.7-3.3c-1.3-1.1-2.4-1.5-3.2-1.4c-0.9,0.1-1.4,0.4-1.5,0.7
		c-0.1,0.3-0.9,0.7-1.1,0.8c-0.2,0.1-0.7,0-0.7,0.5c0,0.4,0.3,0.8,0.5,0.8c0.1,0,0.2-0.1,0.3-0.2c0-0.1,0.7-0.4,1-0.5
		c0.2-0.1,0.6-0.2,1-0.1C16.7,13,17.1,13.1,17.7,13.6z"/>
	<path class="st0" d="M12.2,20.1c0,0-0.1,0.1-0.1,0.2c0.1,0.3,0.4,0.1,0.4,0.1s0.2,0.5,0.3,0.7c0.1,0.2,0.1,0.8,0,1.4
		c0,0.6,0.2,0.9,0.2,0.9s2.3,2.6,2.9,3.2c0.6,0.6,0.7,0.6,1.2,0.5c0.5,0,1.2-0.4,1.8-1c0.6-0.6,0.8-1.1,1-1.7c0.2-0.6-0.3-1-1.4-2.2
		c-1.2-1.2-2-1.9-2.3-2.1c-0.3-0.2-1.5-0.7-1.8-0.7c-0.3,0-0.6-0.4-0.6-0.4s0.2-0.2,0.1-0.4c-0.1-0.2-0.4-0.1-0.4-0.1
		c0.1-0.2,0.1-0.4-0.2-0.6c-0.3-0.2-0.7,0.2-0.7,0.2s-1,0.8-1.2,1c-0.2,0.2-0.4,0.5-0.1,0.8C11.8,20.4,12.2,20.1,12.2,20.1z"/>
	<path class="st0" d="M26.5,18.2c0,0-0.4-0.9,0.2-1.4c0,0,0,0.5,0.5,1.1c0.5,0.5,0.5,0.7,0.5,0.7s0.2-0.3,0.2-0.5
		c0-0.2,0.3-0.1,0.4,0.1c0.1,0.2,0.3,0.2,0,0.7c-0.3,0.5-0.5,0.6-0.5,0.6s0.3,0.2,0.4,0.5c0.1,0.2,0.4,0.8,0.9,1.2c0,0-1,0-1.4-0.2
		c0,0,0.2,1.4-0.9,2.2c-1.1,0.8-2.9,1-3.5,0.4c-0.6-0.7-0.9-0.9-1.4-1.6c-0.5-0.7-0.3-1.9,0.2-2.7c0.4-0.8,1.7-1.4,2.3-1.4
		C25.3,17.8,25.7,17.6,26.5,18.2z"/>
	<path class="st0" d="M34.6,13.4c0.2-0.2,1-0.9,0.4-2c-0.7-1.3-1.8-1-2-0.9c-0.6-0.8-1.2-1.6-1.9-2.3c-1.3-1.3-2.7-2.3-4.2-3l-2,5.3
		c3.1,1.8,5.2,5.2,5.2,9c0,0.6-0.1,1.2-0.2,1.8l5.3,2c0.3-1.2,0.5-2.5,0.5-3.8C35.8,17.3,35.4,15.2,34.6,13.4z M34.4,11.5
		c0.3,0.5-0.1,0.8-0.2,0.9c-0.2-0.4-0.4-0.8-0.6-1.2C33.7,11.2,34.2,11.1,34.4,11.5z"/>
	<path class="st0" d="M19.9,3.5c-2,0-4,0.4-5.8,1.1l0.1-0.1c0,0-0.8-1.1-2-0.4c-1.2,0.6-1,1.7-0.9,1.9c-0.9,0.6-1.8,1.3-2.6,2.1
		c-1.2,1.2-2.2,2.5-2.9,4l5.1,2C12.7,11,16,9,19.8,9c0.7,0,1.3,0.1,1.9,0.2l2-5.3C22.5,3.6,21.2,3.5,19.9,3.5z M12.1,5.5
		c-0.1-0.2-0.2-0.6,0.2-0.9c0.5-0.3,0.9,0.2,0.9,0.3C12.9,5.1,12.5,5.3,12.1,5.5z"/>
	<g>
		<path class="st0" d="M9.4,19.4c0-0.7,0.1-1.4,0.2-2.1l-5.1-2C4.2,16.6,4,18,4,19.4c0,2,0.4,3.9,1,5.7c0,0-1.1,0.8-0.4,2
			c0.7,1.3,1.8,1,1.9,0.9c0.6,0.9,1.3,1.8,2.1,2.6c1.2,1.2,2.5,2.2,4,2.9l2-5.1C11.5,26.6,9.4,23.2,9.4,19.4z M5.2,26.9
			C4.9,26.4,5.4,26,5.4,26c0.2,0.4,0.4,0.8,0.6,1.2C5.9,27.2,5.4,27.4,5.2,26.9z"/>
		<path class="st0" d="M34.1,26.4l-5.3-2c-1.8,3.2-5.2,5.4-9.1,5.4c-0.7,0-1.3-0.1-1.9-0.2l-2,5.1c1.3,0.3,2.7,0.5,4,0.5
			c2.1,0,4-0.4,5.9-1.1c0.1,0.1,0.9,1,2.1,0.4c1.3-0.7,1-1.8,0.9-2c0.8-0.6,1.6-1.2,2.3-1.9C32.4,29.3,33.4,27.9,34.1,26.4z
			 M27.7,34c-0.5,0.3-0.9-0.2-0.9-0.3c0.4-0.2,0.8-0.4,1.2-0.6C28,33.3,28.1,33.7,27.7,34z"/>
	</g>
</g>
</svg>
