<svg width="180" height="180" viewBox="0 0 180 180" fill="none" xmlns="http://www.w3.org/2000/svg">
<rect width="180" height="180" fill="#C00016"/>
<path d="M81.7015 68.2335C84.7789 70.8834 86.7022 74.6689 87.0869 77.6972C87.4716 79.9685 87.8563 81.8613 86.7022 84.5111C85.5482 87.161 84.7789 87.161 85.9329 88.2966C87.0869 89.4323 87.4716 89.8108 87.4716 89.4323C87.8563 89.4323 91.703 89.0537 94.011 86.7824C96.3191 84.5111 97.8578 78.8329 97.8578 75.8045C97.4731 72.3976 96.3191 67.4764 91.3183 63.3124C86.3176 59.1484 82.0861 57.6342 79.0087 58.0127C75.5467 58.3913 73.6233 59.5269 73.2386 60.6625C72.854 61.7982 69.7766 63.3124 69.0072 63.6909C68.2379 64.0695 66.3145 63.6909 66.3145 65.5837C66.3145 67.0979 67.4685 68.6121 68.2379 68.6121C68.6225 68.6121 69.0072 68.2335 69.3919 67.855C69.3919 67.4764 72.0846 66.3408 73.2386 65.9622C74.008 65.5837 75.5467 65.2051 77.0854 65.5837C77.8547 65.9622 79.3934 66.3408 81.7015 68.2335Z" fill="white"/>
<path d="M60.5436 92.8391C60.5436 92.8391 60.1589 93.2176 60.1589 93.5962C60.5436 94.7318 61.6976 93.9747 61.6976 93.9747C61.6976 93.9747 62.467 95.8675 62.8517 96.6246C63.2363 97.3817 63.2363 99.6529 62.8517 101.924C62.8517 104.196 63.621 105.331 63.621 105.331C63.621 105.331 72.4685 115.173 74.7766 117.445C77.0846 119.716 77.4693 119.716 79.3927 119.337C81.316 119.337 84.0087 117.823 86.3168 115.552C88.6248 113.281 89.3942 111.388 90.1635 109.117C90.9329 106.845 89.0095 105.331 84.7781 100.789C80.162 96.246 77.0846 93.5962 75.9306 92.8391C74.7766 92.082 70.1605 90.1892 69.0064 90.1892C67.8524 90.1892 66.6984 88.675 66.6984 88.675C66.6984 88.675 67.4678 87.9179 67.0831 87.1608C66.6984 86.4037 65.5444 86.7823 65.5444 86.7823C65.9291 86.0252 65.9291 85.2681 64.775 84.511C63.621 83.7539 62.0823 85.2681 62.0823 85.2681C62.0823 85.2681 58.2356 88.2965 57.4662 89.0536C56.6969 89.8107 55.9275 90.9463 57.0816 92.082C59.0049 93.9747 60.5436 92.8391 60.5436 92.8391Z" fill="white"/>
<path d="M115.551 85.6467C115.551 85.6467 114.013 82.2398 116.321 80.347C116.321 80.347 116.321 82.2398 118.244 84.5111C120.167 86.4038 120.167 87.1609 120.167 87.1609C120.167 87.1609 120.937 86.0253 120.937 85.2682C120.937 84.5111 122.091 84.8896 122.475 85.6467C122.86 86.4038 123.629 86.4038 122.475 88.2966C121.321 90.1893 120.552 90.5679 120.552 90.5679C120.552 90.5679 121.706 91.325 122.091 92.4606C122.475 93.2177 123.629 95.489 125.553 97.0032C125.553 97.0032 121.706 97.0032 120.167 96.2461C120.167 96.2461 120.937 101.546 116.705 104.574C112.474 107.603 105.55 108.36 103.242 106.088C100.934 103.439 99.7797 102.681 97.8563 100.032C95.9329 97.3818 96.7023 92.8392 98.6257 89.8108C100.164 86.7824 105.165 84.5111 107.473 84.5111C110.935 84.1325 112.474 83.3754 115.551 85.6467Z" fill="white"/>
<path d="M146.71 67.4762C147.48 66.7191 150.557 64.0693 148.249 59.9053C145.556 54.9841 141.325 56.1198 140.556 56.4983C138.248 53.4699 135.94 50.4415 133.247 47.7917C128.246 42.8706 122.861 39.0851 117.091 36.4352L109.397 56.4983C121.322 63.3122 129.4 76.1829 129.4 90.5677C129.4 92.839 129.015 95.1103 128.631 97.3816L149.019 104.953C150.173 100.41 150.942 95.4888 150.942 90.5677C151.327 82.2396 149.788 74.2901 146.71 67.4762ZM145.941 60.2838C147.095 62.1766 145.556 63.3122 145.172 63.6907C144.402 62.1765 143.633 60.6624 142.864 59.1482C143.248 59.1482 145.172 58.7696 145.941 60.2838Z" fill="white"/>
<path d="M90.1619 30C82.4684 30 74.7749 31.5142 67.8508 34.164L68.2354 33.7855C68.2354 33.7855 65.1581 29.6215 60.542 32.2713C55.9259 34.5426 56.6952 38.7066 57.0799 39.4637C53.6178 41.735 50.1558 44.3849 47.0784 47.4132C42.4623 51.9558 38.6155 56.877 35.9228 62.5552L55.5412 70.1262C62.4653 58.3912 75.1596 50.8202 89.7772 50.8202C92.4699 50.8202 94.778 51.1987 97.086 51.5773L104.779 31.5142C100.163 30.3785 95.1626 30 90.1619 30ZM60.1573 37.571C59.7726 36.8139 59.3879 35.2997 60.9266 34.164C62.85 33.0284 64.3887 34.9211 64.3887 35.2997C63.2347 36.0568 61.696 36.8139 60.1573 37.571Z" fill="white"/>
<path d="M49.7724 90.1892C49.7724 87.5394 50.1571 84.8896 50.5418 82.2397L30.9234 74.6687C29.7693 79.5899 29 84.8895 29 90.1892C29 97.7602 30.5387 104.953 32.8467 111.767C32.8467 111.767 28.6153 114.795 31.308 119.337C34.0008 124.259 38.2322 123.123 38.6169 122.744C40.9249 126.151 43.6176 129.558 46.695 132.587C51.3111 137.129 56.3119 140.915 62.082 143.565L69.7755 124.259C57.8506 117.445 49.7724 104.574 49.7724 90.1892ZM33.6161 118.58C32.4621 116.688 34.3854 115.173 34.3854 115.173C35.1548 116.688 35.9241 118.202 36.6935 119.716C36.3088 119.716 34.3854 120.473 33.6161 118.58Z" fill="white"/>
<path d="M144.785 116.688L124.397 109.117C117.473 121.23 104.394 129.558 89.3922 129.558C86.6994 129.558 84.3914 129.18 82.0834 128.801L74.3899 148.107C79.3906 149.243 84.7761 150 89.7768 150C97.855 150 105.164 148.486 112.473 145.836C112.857 146.215 115.935 149.621 120.551 147.35C125.552 144.7 124.397 140.536 124.013 139.779C127.09 137.508 130.168 135.237 132.86 132.587C138.246 127.666 142.093 122.366 144.785 116.688ZM120.166 145.457C118.243 146.593 116.704 144.7 116.704 144.322C118.243 143.565 119.781 142.808 121.32 142.05C121.32 142.808 121.705 144.322 120.166 145.457Z" fill="white"/>
</svg>
